<?xml version="1.0" encoding="UTF-8"?>
<svg width="12px" height="16px" viewBox="0 0 12 16" version="1.1" xmlns="http://www.w3.org/2000/svg" xmlns:xlink="http://www.w3.org/1999/xlink">
    <title>Path</title>
    <g id="Home" stroke="none" stroke-width="1" fill="none" fill-rule="evenodd">
        <g id="Home-desktop" transform="translate(-421.000000, -718.000000)" fill="#FFFFFF">
            <g id="Button" transform="translate(135.000000, 692.000000)">
                <path d="M297.706413,33.7529923 C298.236447,34.5213414 298.029101,35.5643426 297.243294,36.0826006 L288.706309,41.7129356 C287.920501,42.2311936 286.853801,42.0284547 286.323767,41.2601056 C286.26116,41.1693499 286.208841,41.0747623 286.166549,40.9776602 C286.082941,40.8206361 286.033557,40.6354746 286.028739,40.4194959 L286.018574,39.8645493 L286.009247,39.0652468 L286.001788,37.8044822 L286,37.0415646 L286.000652,34.4158198 C286.016021,33.5132684 286.756301,32.7829588 287.684151,32.7710892 C288.634633,32.7589301 289.422018,33.5052886 289.442826,34.4381276 L289.445105,37.1776417 L293.491477,34.5086154 L286.624114,28.9446271 C285.908759,28.3365939 285.832957,27.2766594 286.454806,26.5771972 C287.076655,25.877735 288.160673,25.8036172 288.876029,26.4116504 L297.070558,33.1041813 C297.15492,33.1758869 297.230388,33.2538774 297.296866,33.3368204 C297.452882,33.4479374 297.592124,33.5873159 297.706413,33.7529923 Z" id="Path"></path>
            </g>
        </g>
    </g>
</svg>