<?xml version="1.0" encoding="utf-8"?>
<svg width="10px" height="13px" viewBox="0 0 10 13" version="1.1" xmlns:xlink="http://www.w3.org/1999/xlink" xmlns="http://www.w3.org/2000/svg">
  <path d="M9.75488 6.29931C10.1973 6.92359 10.0244 7.77103 9.36914 8.19211L2.25488 12.7668C1.60059 13.1878 0.711914 13.0231 0.269531 12.3988C0.217773 12.3251 0.173828 12.2482 0.138672 12.1693C0.0693359 12.0418 0.0283203 11.8913 0.0244141 11.7158L0.015625 11.2649L0.0078125 10.6155L0.00195313 9.59114L0 8.97127L0.000976563 6.83785C0.0136719 6.10453 0.629883 5.51115 1.40332 5.50151C2.19531 5.49163 2.85156 6.09805 2.86914 6.85598L2.87109 9.08183L6.24316 6.91325L0.520508 2.39251C-0.0761719 1.89848 -0.139648 1.03729 0.378906 0.468973C0.897461 -0.0993404 1.80078 -0.159561 2.39648 0.334466L9.22559 5.77215C9.2959 5.83041 9.3584 5.89378 9.41406 5.96117C9.54395 6.05145 9.66016 6.16469 9.75488 6.29931Z" id="Path" fill="#FFFFFF" fill-rule="evenodd" stroke="none" />
</svg>