<?xml version="1.0" encoding="utf-8"?>
<svg width="12px" height="16px" viewBox="0 0 12 16" version="1.1" xmlns:xlink="http://www.w3.org/1999/xlink" xmlns="http://www.w3.org/2000/svg">
  <g id="Path-2">
    <path d="M11.7064 7.75299C12.2364 8.52134 12.0291 9.56434 11.2433 10.0826L2.70631 15.7129C1.9205 16.2312 0.853801 16.0285 0.323767 15.2601C0.26116 15.1693 0.208841 15.0748 0.166549 14.9777C0.0829409 14.8206 0.0335567 14.6355 0.0287391 14.4195L0.0185744 13.8645L0.00924688 13.0652L0.00178766 11.8045L0 11.0416L0.000652349 8.41582C0.0160209 7.51327 0.756301 6.78296 1.68415 6.77109C2.63463 6.75893 3.42202 7.50529 3.44283 8.43813L3.4451 11.1776L7.49148 8.50862L0.624114 2.94463C-0.0912414 2.33659 -0.167043 1.27666 0.454806 0.577197C1.07665 -0.122265 2.16067 -0.196383 2.87603 0.41165L11.0706 7.10418C11.1549 7.17589 11.2304 7.25388 11.2969 7.33682C11.4529 7.44794 11.5921 7.58732 11.7064 7.75299Z" id="Path" fill="#1A407A" fill-rule="evenodd" stroke="none" />
  </g>
</svg>