<?xml version="1.0" encoding="utf-8"?>
<svg width="12px" height="16px" viewBox="0 0 12 16" version="1.1" xmlns:xlink="http://www.w3.org/1999/xlink" xmlns="http://www.w3.org/2000/svg">
  <g id="Path-4">
    <path d="M11.7064 8.24704C12.2365 7.47869 12.0291 6.43569 11.2433 5.91743L2.70635 0.287071C1.92054 -0.231188 0.853842 -0.0284519 0.323806 0.739895C0.261199 0.830651 0.20888 0.925239 0.166587 1.02234C0.0829789 1.17936 0.0335943 1.36453 0.0287761 1.5805L0.01861 2.13545L0.00928045 2.93475L0.00181803 4.19552L2.84374e-05 4.95844L0.00067413 7.58418C0.0160404 8.48673 0.756318 9.21704 1.68417 9.22892C2.63465 9.24108 3.42204 8.49472 3.44285 7.56188L3.44513 4.82237L7.4915 7.4914L0.624122 13.0554C-0.091235 13.6634 -0.16704 14.7233 0.454808 15.4228C1.07665 16.1223 2.16067 16.1964 2.87603 15.5884L11.0706 8.89585C11.1549 8.82414 11.2304 8.74615 11.2969 8.66321C11.4529 8.55209 11.5921 8.41271 11.7064 8.24704Z" id="Path" fill="#969696" fill-rule="evenodd" stroke="none" />
  </g>
</svg>