<?xml version="1.0" encoding="utf-8"?>
<svg width="21px" height="21px" viewBox="0 0 21 21" version="1.1" xmlns:xlink="http://www.w3.org/1999/xlink" xmlns="http://www.w3.org/2000/svg">
  <g id="Path-2">
    <path d="M1.75 8.75L8.74956 8.74965L8.75 1.75C8.75 0.83437 9.4532 0.0829808 10.349 0.00642354L10.5 0C11.4665 3.52482e-15 12.25 0.783502 12.25 1.75L12.2503 8.74965L19.25 8.75C20.2165 8.75 21 9.5335 21 10.5C21 11.4665 20.2165 12.25 19.25 12.25L12.2503 12.2504L12.25 19.25C12.25 20.1656 11.5468 20.917 10.651 20.9936L10.5 21C9.5335 21 8.75 20.2165 8.75 19.25L8.74956 12.2504L1.75 12.25C0.783502 12.25 0 11.4665 0 10.5C0 9.5335 0.783502 8.75 1.75 8.75Z" id="Path" fill="#1A407A" fill-rule="evenodd" stroke="none" />
  </g>
</svg>