<?xml version="1.0" encoding="utf-8"?>
<svg width="18px" height="18px" viewBox="0 0 18 18" version="1.1" xmlns:xlink="http://www.w3.org/1999/xlink" xmlns="http://www.w3.org/2000/svg">
  <g id="Path-3">
    <path d="M3.38746 0.581197L8.99993 6.1931L14.6125 0.581197C15.3467 -0.152947 16.513 -0.191586 17.2926 0.46528L17.4188 0.581197C18.1937 1.35613 18.1937 2.61254 17.4188 3.38746L11.8068 8.99993L17.4188 14.6125C18.1937 15.3875 18.1937 16.6439 17.4188 17.4188C16.6439 18.1937 15.3875 18.1937 14.6125 17.4188L8.99993 11.8068L3.38746 17.4188C2.65332 18.1529 1.48705 18.1916 0.707415 17.5347L0.581197 17.4188C-0.193732 16.6439 -0.193732 15.3875 0.581197 14.6125L6.1931 8.99993L0.581197 3.38746C-0.193732 2.61254 -0.193732 1.35613 0.581197 0.581197C1.35613 -0.193732 2.61254 -0.193732 3.38746 0.581197Z" id="Path" fill="#FFFFFF" fill-rule="evenodd" stroke="none" />
  </g>
</svg>