<?xml version="1.0" encoding="utf-8"?>
<svg width="23px" height="30px" viewBox="0 0 23 30" version="1.1" xmlns:xlink="http://www.w3.org/1999/xlink" xmlns="http://www.w3.org/2000/svg">
  <g id="customer">
    <g id="customer">
      <path d="M20.3461 3.57477L17.6922 3.57477L17.6922 2.69588C17.6922 2.2105 17.2962 1.81699 16.8076 1.81699L14.0062 1.81699C13.8785 1.44815 13.6702 1.10708 13.3904 0.816289C12.3433 -0.272009 10.6568 -0.272184 9.60952 0.816289C9.32974 1.10703 9.12145 1.44809 8.99371 1.81699L6.19231 1.81699C5.70376 1.81699 5.30769 2.2105 5.30769 2.69588L5.30769 3.57477L2.65385 3.57477C1.19052 3.57477 0 4.75757 0 6.21143L0 27.3633C0 28.8172 1.19052 30 2.65385 30L20.3462 30C21.8095 30 23 28.8172 23 27.3633L23 6.21143C22.9999 4.75757 21.8094 3.57477 20.3461 3.57477ZM7.07686 3.57477L9.73071 3.57477C10.2193 3.57477 10.6153 3.18126 10.6153 2.69588C10.6153 2.19649 11.0287 1.7584 11.4999 1.7584C11.9711 1.7584 12.3846 2.19649 12.3846 2.69588C12.3846 3.18126 12.7806 3.57477 13.2692 3.57477L15.923 3.57477L15.923 5.33254L7.07686 5.33254L7.07686 3.57477ZM21.2307 27.3633C21.2307 27.848 20.8339 28.2422 20.3461 28.2422L2.65379 28.2422C2.16601 28.2422 1.76917 27.848 1.76917 27.3633L1.76917 6.21143C1.76917 5.72681 2.16601 5.33254 2.65379 5.33254L5.30763 5.33254L5.30763 6.21143C5.30763 6.69681 5.70371 7.09032 6.19225 7.09032L16.8076 7.09032C17.2962 7.09032 17.6922 6.69681 17.6922 6.21143L17.6922 5.33254L20.3461 5.33254C20.8339 5.33254 21.2307 5.72681 21.2307 6.21143L21.2307 27.3633Z" id="Shape" fill="#1A407A" stroke="none" />
      <path d="M7.96148 19.3948L15.0384 19.3948C15.5269 19.3948 15.923 19.0012 15.923 18.5159L15.923 16.1722C15.923 14.6883 15.0639 13.4009 13.8144 12.7726C14.8053 11.0215 13.5229 8.84809 11.4999 8.84809C9.47783 8.84809 8.19402 11.0206 9.18543 12.7726C7.93594 13.4009 7.07686 14.6883 7.07686 16.1722L7.07686 18.5159C7.07686 19.0012 7.47294 19.3948 7.96148 19.3948ZM11.4999 10.6059C11.9877 10.6059 12.3846 11.0001 12.3846 11.4848C12.3846 11.9694 11.9877 12.3636 11.4999 12.3636C11.0122 12.3636 10.6153 11.9694 10.6153 11.4848C10.6153 11.0001 11.0122 10.6059 11.4999 10.6059ZM8.8461 16.1722C8.8461 15.0414 9.77205 14.1214 10.9102 14.1214L12.0897 14.1214C13.2278 14.1214 14.1538 15.0414 14.1538 16.1722L14.1538 17.637L8.8461 17.637L8.8461 16.1722Z" id="Shape" fill="#FB3C09" stroke="none" />
      <path d="M16.8076 21.1525L6.19225 21.1525C5.70371 21.1525 5.30763 21.546 5.30763 22.0314C5.30763 22.5168 5.70371 22.9103 6.19225 22.9103L16.8076 22.9103C17.2962 22.9103 17.6922 22.5168 17.6922 22.0314C17.6922 21.546 17.2962 21.1525 16.8076 21.1525Z" id="Path" fill="#FB3C09" fill-rule="evenodd" stroke="none" />
      <path d="M16.8076 24.6681L6.19225 24.6681C5.70371 24.6681 5.30763 25.0616 5.30763 25.547C5.30763 26.0323 5.70371 26.4259 6.19225 26.4259L16.8076 26.4259C17.2962 26.4259 17.6922 26.0323 17.6922 25.547C17.6922 25.0616 17.2962 24.6681 16.8076 24.6681Z" id="Path" fill="#FB3C09" fill-rule="evenodd" stroke="none" />
    </g>
  </g>
</svg>