<?xml version="1.0" encoding="utf-8"?>
<svg width="51px" height="56px" viewBox="0 0 51 56" version="1.1" xmlns:xlink="http://www.w3.org/1999/xlink" xmlns="http://www.w3.org/2000/svg">
  <g id="document">
    <g id="document">
      <path d="M41.7072 33.9157L19.4995 33.9157C18.8886 33.9157 18.3932 34.4049 18.3932 35.0083C18.3932 35.6116 18.8886 36.1008 19.4995 36.1008L41.7072 36.1008C42.3181 36.1008 42.8134 35.6116 42.8134 35.0083C42.8134 34.4049 42.3181 33.9157 41.7072 33.9157Z" id="Path" fill="#1A407A" fill-rule="evenodd" stroke="none" />
      <path d="M41.7072 39.3561L19.4995 39.3561C18.8886 39.3561 18.3932 39.8454 18.3932 40.4487C18.3932 41.0521 18.8886 41.5413 19.4995 41.5413L41.7072 41.5413C42.3181 41.5413 42.8134 41.0521 42.8134 40.4487C42.8134 39.8454 42.3181 39.3561 41.7072 39.3561Z" id="Path" fill="#1A407A" fill-rule="evenodd" stroke="none" />
      <path d="M41.7072 44.7965L19.4995 44.7965C18.8886 44.7965 18.3932 45.2858 18.3932 45.8891C18.3932 46.4924 18.8886 46.9817 19.4995 46.9817L41.7072 46.9817C42.3181 46.9817 42.8134 46.4924 42.8134 45.8891C42.8134 45.2858 42.3181 44.7965 41.7072 44.7965Z" id="Path" fill="#1A407A" fill-rule="evenodd" stroke="none" />
      <path d="M9.32669 14.2478L7.45529 14.2478C7.06035 14.2478 6.6935 14.5171 6.6935 15.0001L6.6935 20.1177C6.6935 20.6471 7.01322 20.9165 7.45529 20.9165C7.89726 20.9165 8.21697 20.6471 8.21697 20.1177L8.21697 18.7338L9.3736 18.7338C10.8218 18.7338 11.6211 17.7864 11.6211 16.4955C11.6213 15.0001 10.5022 14.2478 9.32669 14.2478L9.32669 14.2478ZM9.03508 17.3964L8.21686 17.3964L8.21686 15.5852L9.03508 15.5852C9.63701 15.5852 10.0415 15.9011 10.0415 16.4955C10.0415 16.9598 9.68403 17.3964 9.03508 17.3964Z" id="Shape" fill="#FB3C09" stroke="none" />
      <path d="M14.8652 14.2478L13.0408 14.2478C12.6459 14.2478 12.2791 14.5171 12.2791 15.0001L12.2791 20.1084C12.2791 20.5914 12.6458 20.8607 13.0408 20.8607L14.8652 20.8607C16.5203 20.8607 17.9874 19.6719 17.9874 17.5078C17.9874 15.8081 16.859 14.2478 14.8652 14.2478ZM14.6112 19.4676L13.8024 19.4676L13.8024 15.6411L14.677 15.6411C15.7867 15.6411 16.351 16.3933 16.351 17.5079C16.3511 18.6595 15.7962 19.4676 14.6112 19.4676Z" id="Shape" fill="#FB3C09" stroke="none" />
      <path d="M21.8332 15.641C22.3129 15.641 22.595 15.3808 22.595 14.9443C22.595 14.5264 22.3129 14.2478 21.8332 14.2478L19.501 14.2478C19.1061 14.2478 18.7392 14.5171 18.7392 15.0001L18.7392 20.1177C18.7392 20.6471 19.059 20.9165 19.501 20.9165C19.943 20.9165 20.2627 20.6471 20.2627 20.1177L20.2627 18.2137L21.6357 18.2137C22.1154 18.2137 22.3975 17.9443 22.3975 17.5171C22.3975 17.0899 22.1154 16.8205 21.6357 16.8205L20.2627 16.8205L20.2627 15.641L21.8332 15.641Z" id="Path" fill="#FB3C09" fill-rule="evenodd" stroke="none" />
      <path d="M18.8918 10.9265C19.5031 10.9265 19.9986 10.4371 19.9986 9.83338C19.9986 9.22965 19.5031 8.74024 18.8918 8.74024C18.2805 8.74024 17.785 9.22965 17.785 9.83338C17.785 10.4371 18.2805 10.9265 18.8918 10.9265Z" id="Oval" fill="#1A407A" fill-rule="evenodd" stroke="none" />
      <path d="M50.7453 11.8728C50.7418 11.8642 50.738 11.8557 50.7343 11.847C50.7318 11.8416 50.7297 11.8361 50.7272 11.8306C50.7222 11.8198 50.7159 11.8098 50.7108 11.7991C50.7031 11.7838 50.6957 11.7684 50.6873 11.7535C50.5398 11.4576 50.3483 11.1889 50.113 10.9564L39.9063 0.876045C39.6717 0.644305 39.4005 0.455832 39.1007 0.309751C39.0834 0.300137 39.0653 0.291505 39.0474 0.282764C39.0378 0.278285 39.0289 0.272931 39.0193 0.26856C39.0146 0.266375 39.0097 0.264627 39.0049 0.262551C38.9961 0.258727 38.9871 0.255012 38.9782 0.251297C38.5935 0.0851134 38.1856 0 37.7643 0L13.177 0C11.4116 0 9.97542 1.41841 9.97542 3.16198L9.97542 8.74078L3.40184 8.74078C1.52602 8.74078 0 10.2479 0 12.1005L0 22.8626C0 24.7152 1.52602 26.2223 3.40184 26.2223L9.97542 26.2223L9.97542 52.838C9.97542 54.5816 11.4116 56 13.177 56L47.7984 56C49.5638 56 51 54.5816 51 52.838L51 13.0718C51 12.6562 50.914 12.2538 50.7453 11.8728L50.7453 11.8728ZM47.2229 11.1926L39.9117 11.1926C39.7768 11.1926 39.6672 11.0843 39.6672 10.9511L39.6672 3.73035L47.2229 11.1926ZM47.7984 53.8148L13.177 53.8148C12.6316 53.8148 12.188 53.3766 12.188 52.838L12.188 26.2223L25.4723 26.2223C27.3482 26.2223 28.8742 24.7152 28.8742 22.8626L28.8742 12.1005C28.8742 10.2479 27.3482 8.74078 25.4723 8.74078L24.449 8.74078C23.8381 8.74078 23.3427 9.23005 23.3427 9.83338C23.3427 10.4367 23.8381 10.926 24.449 10.926L25.4723 10.926C26.1282 10.926 26.6616 11.4528 26.6616 12.1005L26.6616 22.8626C26.6616 23.5103 26.1282 24.0371 25.4723 24.0371L3.40184 24.0371C2.74603 24.0371 2.21258 23.5103 2.21258 22.8626L2.21258 12.1005C2.21258 11.4528 2.74603 10.926 3.40184 10.926L13.3308 10.926C13.9417 10.926 14.4371 10.4367 14.4371 9.83338C14.4371 9.23005 13.9417 8.74078 13.3308 8.74078L12.188 8.74078L12.188 3.16198C12.188 2.62333 12.6317 2.1852 13.177 2.1852L37.4546 2.1852L37.4546 10.9511C37.4546 12.2892 38.5568 13.3778 39.9116 13.3778L48.7874 13.3778L48.7874 52.838C48.7874 53.3766 48.3437 53.8148 47.7984 53.8148Z" id="Shape" fill="#1A407A" stroke="none" />
    </g>
  </g>
</svg>