<?xml version="1.0" encoding="utf-8"?>
<svg width="56px" height="56px" viewBox="0 0 56 56" version="1.1" xmlns:xlink="http://www.w3.org/1999/xlink" xmlns="http://www.w3.org/2000/svg">
  <g id="earthquake">
    <path d="M22.1351 33.3738C22.1351 33.3738 17.9214 32.2162 17.9164 32.2149C17.3565 32.0611 16.7319 32.3973 16.572 32.9798C16.572 32.9798 15.4147 37.1924 15.413 37.1985C15.2556 37.7714 15.6084 38.3866 16.178 38.5429C16.178 38.5429 20.3906 39.7001 20.3967 39.7018C20.9545 39.855 21.5817 39.5174 21.7411 38.9368L22.9001 34.7181C23.0601 34.1357 22.7176 33.5338 22.1351 33.3738ZM19.9216 37.3028L17.8122 36.7233L18.3916 34.6139L20.501 35.1934L19.9216 37.3028Z" id="Shape" fill="#1A407A" stroke="none" />
    <path d="M30.5725 35.6917C30.5725 35.6917 26.3582 34.5339 26.3538 34.5327C25.7937 34.3788 25.1695 34.7147 25.0094 35.2977L23.8504 39.5164C23.6904 40.0988 24.0329 40.7008 24.6154 40.8607C24.6154 40.8607 28.8302 42.0186 28.8341 42.0197C29.3938 42.1735 30.0187 41.8367 30.1785 41.2547L31.3375 37.036C31.4975 36.4535 31.155 35.8517 30.5725 35.6917ZM28.359 39.6205L26.2496 39.0411L26.829 36.9317L28.9384 37.5111L28.359 39.6205Z" id="Shape" fill="#1A407A" stroke="none" />
    <path d="M39.0099 38.0094L34.7912 36.8505C34.2089 36.6906 33.6069 37.0329 33.4468 37.6155C33.4468 37.6155 32.2888 41.8304 32.2878 41.8342C32.1338 42.3946 32.4691 43.0183 33.0528 43.1785C33.0528 43.1785 37.2654 44.3358 37.2715 44.3374C37.8294 44.4907 38.4568 44.1521 38.6159 43.5725L39.7749 39.3538C39.9349 38.7714 39.5924 38.1695 39.0099 38.0094ZM36.7964 41.9384L34.687 41.3589L35.2664 39.2495L37.3758 39.829L36.7964 41.9384Z" id="Shape" fill="#1A407A" stroke="none" />
    <path d="M41.3278 29.5721L37.1091 28.4132C36.5268 28.2533 35.9248 28.5956 35.7646 29.1782C35.7646 29.1782 34.606 33.3956 34.6057 33.3969C34.4518 33.957 34.7868 34.581 35.3707 34.7412C35.3707 34.7412 39.586 35.8992 39.5894 35.9001C40.1493 36.0539 40.774 35.7169 40.9338 35.1352L42.0928 30.9165C42.2528 30.3341 41.9103 29.7322 41.3278 29.5721ZM39.1143 33.501L37.0048 32.9215L37.5843 30.8121L39.6937 31.3916L39.1143 33.501Z" id="Shape" fill="#1A407A" stroke="none" />
    <path d="M32.8904 27.2543C32.8904 27.2543 28.6814 26.098 28.6717 26.0953C28.1039 25.9394 27.4822 26.296 27.3272 26.8603L26.1683 31.079C26.0083 31.6615 26.3507 32.2634 26.9333 32.4233C26.9333 32.4233 31.15 33.5817 31.152 33.5823C31.7128 33.7364 32.3364 33.3999 32.4964 32.8173L33.6553 28.5986C33.8154 28.0161 33.4729 27.4142 32.8904 27.2543ZM30.6768 31.1832L28.5674 30.6038L29.1469 28.4944L31.2563 29.0738L30.6768 31.1832Z" id="Shape" fill="#1A407A" stroke="none" />
    <path d="M24.4529 24.9365C24.4529 24.9365 20.2451 23.7805 20.2342 23.7776C19.6679 23.622 19.0442 23.9801 18.8897 24.5425C18.8897 24.5425 17.7343 28.7486 17.7308 28.7612C17.5791 29.3135 17.9235 29.9485 18.4958 30.1057L22.7146 31.2646C23.2909 31.423 23.9011 31.0745 24.0589 30.4996L25.2178 26.2808C25.3778 25.6983 25.0354 25.0964 24.4529 24.9365ZM22.2394 28.8654L20.13 28.2859L20.7095 26.1765L22.8189 26.756L22.2394 28.8654Z" id="Shape" fill="#1A407A" stroke="none" />
    <path d="M26.7708 16.499C26.7708 16.499 22.5626 15.3429 22.5521 15.34C21.9858 15.1845 21.3622 15.5421 21.2077 16.105L20.0488 20.3237C19.8888 20.9063 20.2313 21.5081 20.8137 21.668C20.8137 21.668 25.0235 22.8245 25.0324 22.827C25.5908 22.9803 26.2181 22.6402 26.3769 22.062C26.3769 22.062 27.5324 17.8557 27.5358 17.8434C27.6912 17.2776 27.3336 16.6535 26.7708 16.499ZM24.5573 20.4281L22.4479 19.8486L23.0274 17.7392L25.1368 18.3187L24.5573 20.4281Z" id="Shape" fill="#1A407A" stroke="none" />
    <path d="M35.2082 18.8167L30.9895 17.6578C30.4069 17.4976 29.8051 17.8402 29.6451 18.4228L28.4862 22.6415C28.3262 23.224 28.6687 23.8259 29.2511 23.9859C29.2511 23.9859 33.4682 25.1444 33.4698 25.1449C34.0301 25.2988 34.6537 24.9645 34.8143 24.3799C34.8143 24.3799 35.9704 20.1716 35.9732 20.1612C36.1275 19.5992 35.7678 18.9704 35.2082 18.8167ZM32.9947 22.7459L30.8853 22.1665L31.4648 20.0571L33.5742 20.6365L32.9947 22.7459Z" id="Shape" fill="#1A407A" stroke="none" />
    <path d="M44.2943 21.6554C44.155 21.4094 43.9275 21.2121 43.6458 21.1347L39.4271 19.9758C38.8444 19.8157 38.2426 20.1582 38.0826 20.7408L36.9237 24.9595C36.7637 25.542 37.1061 26.1439 37.6887 26.3038L41.9074 27.4627C42.4833 27.621 43.0939 27.2729 43.2517 26.6978C43.2517 26.6978 44.4081 22.4881 44.4106 22.4791C44.4861 22.2043 44.4356 21.9048 44.2943 21.6554ZM41.4321 25.0637L39.3227 24.4842L39.9022 22.3748L42.0116 22.9543L41.4321 25.0637Z" id="Shape" fill="#1A407A" stroke="none" />
    <path d="M55.4502 40.864C55.1352 40.675 54.7338 40.6292 54.3817 40.8216L50.1926 43.1114L45.9465 41.8083L52.8264 16.6242C52.8264 16.6242 53.457 16.7975 53.4577 16.7977C54.0086 16.9491 54.6413 16.618 54.8021 16.0327C54.8021 16.0327 55.9561 11.8319 55.9611 11.814C56.1159 11.2501 55.7568 10.6235 55.1961 10.4696L17.2277 0.0393503C16.645 -0.120665 16.0432 0.221788 15.8832 0.804319C15.8832 0.804319 14.7281 5.00902 14.7243 5.02291C14.5729 5.57384 14.9061 6.20723 15.4893 6.36735L16.9658 6.77303L8.11256 39.0001C4.69973 38.1006 1.38502 37.2269 1.37255 37.2237C0.710719 37.0492 0 37.5581 0 38.2813L0 54.9063C0 55.5103 0.489672 56 1.09375 56L54.9063 56C55.5103 56 56 55.5103 56 54.9063C56 54.9063 56 41.8297 56 41.7815C56 41.3945 55.7695 41.0556 55.4502 40.864ZM17.7028 2.43838L53.5618 12.2892L52.9823 14.3987L17.1234 4.54768L17.7028 2.43838ZM22.31 53.8125L2.1875 53.8125L2.1875 39.7007L12.5898 42.4424L9.56047 44.4839C9.11203 44.7858 8.95234 45.36 9.17984 45.8511L10.663 49.0514C10.3042 49.2712 10.1019 49.6825 10.1467 50.1003C10.2058 50.657 10.6728 51.0781 11.2328 51.0781C11.2722 51.0781 12.3648 50.9624 12.367 50.9622C13.076 50.887 13.5601 50.0962 13.242 49.4156L11.5566 45.7767L15.185 43.3311L21.8435 48.0872L24.113 52.0815L22.31 53.8125ZM41.3438 53.8125L25.4686 53.8125L26.2418 53.0703C26.6028 52.7237 26.6826 52.1761 26.4353 51.7409L24.3315 48.0383L27.159 46.8546L28.9538 49.5041C29.1572 49.8046 29.4965 49.9845 29.8593 49.9845L38.1768 49.9845L41.3438 51.2707L41.3438 53.8125ZM38.8022 47.8774C38.6715 47.8242 38.5317 47.7969 38.3906 47.7969L30.4395 47.7969L28.468 44.8866C28.1759 44.4556 27.6205 44.2901 27.1401 44.4911L22.9992 46.2246L15.8388 41.1101C15.731 41.033 15.61 40.9762 15.4818 40.9425L10.2279 39.5576L17.8583 11.782C17.8583 11.782 29.336 14.9347 29.3541 14.9396C29.9293 15.0976 30.5403 14.7494 30.6983 14.1752C30.8532 13.6119 30.4942 12.9857 29.9338 12.8309L18.4376 9.67321L19.075 7.35271L50.7169 16.0451L50.0829 18.3658L38.3709 15.1486C37.7965 14.99 37.1842 15.34 37.0267 15.9132C36.867 16.495 37.2105 17.0977 37.7913 17.2585L49.5063 20.4764L41.6992 49.054L38.8022 47.8774ZM53.8125 53.8125L43.5313 53.8125L43.5313 50.6499L44.0884 48.6236C44.0884 48.6236 45.7932 50.3736 45.8008 50.3813C46.21 50.8013 46.9295 50.8095 47.347 50.4013C47.767 49.9907 47.7759 49.273 47.3681 48.8544L44.7607 46.1788L45.381 43.9228L49.9917 45.3377C50.2736 45.4242 50.5784 45.3932 50.8372 45.2518L53.8125 43.6256L53.8125 53.8125Z" id="Shape" fill="#1A407A" stroke="none" />
    <path d="M6.89063 51.5156C7.49469 51.5156 7.98438 51.0259 7.98438 50.4219C7.98438 49.8178 7.49469 49.3281 6.89063 49.3281C6.28656 49.3281 5.79688 49.8178 5.79688 50.4219C5.79688 51.0259 6.28656 51.5156 6.89063 51.5156Z" id="Oval" fill="#1A407A" stroke="none" />
    <path d="M50.4219 51.1875C51.0259 51.1875 51.5156 50.6978 51.5156 50.0937C51.5156 49.4897 51.0259 49 50.4219 49C49.8178 49 49.3281 49.4897 49.3281 50.0937C49.3281 50.6978 49.8178 51.1875 50.4219 51.1875Z" id="Oval" fill="#1A407A" stroke="none" />
    <path d="M33.9063 16.1875C34.5103 16.1875 35 15.6978 35 15.0937C35 14.4897 34.5103 14 33.9063 14C33.3022 14 32.8125 14.4897 32.8125 15.0937C32.8125 15.6978 33.3022 16.1875 33.9063 16.1875Z" id="Oval" fill="#1A407A" stroke="none" />
  </g>
</svg>