<?xml version="1.0" encoding="utf-8"?>
<svg width="18px" height="1.9990234px" viewBox="0 0 18 1.9990234" version="1.1" xmlns:xlink="http://www.w3.org/1999/xlink" xmlns="http://www.w3.org/2000/svg">
  <g id="Группа-2">
    <g id="Группа">
      <path d="M16.9985 0L17.0015 0Q17.0999 0 17.1963 0.0191854Q17.2928 0.0383708 17.3836 0.0760043Q17.4745 0.113638 17.5562 0.168273Q17.638 0.222909 17.7076 0.292446Q17.7771 0.361984 17.8317 0.443751Q17.8864 0.525519 17.924 0.616374Q17.9616 0.70723 17.9808 0.803681Q18 0.900133 18 0.998474L18 1.00047Q18 1.09881 17.9808 1.19527Q17.9616 1.29172 17.924 1.38257Q17.8864 1.47343 17.8317 1.5552Q17.7771 1.63696 17.7076 1.7065Q17.638 1.77604 17.5562 1.83067Q17.4745 1.88531 17.3836 1.92294Q17.2928 1.96058 17.1963 1.97976Q17.0999 1.99895 17.0015 1.99895L16.9985 1.99895Q16.9001 1.99895 16.8037 1.97976Q16.7072 1.96058 16.6164 1.92294Q16.5255 1.88531 16.4438 1.83067Q16.362 1.77604 16.2924 1.7065Q16.2229 1.63696 16.1683 1.5552Q16.1136 1.47343 16.076 1.38257Q16.0384 1.29172 16.0192 1.19527Q16 1.09881 16 1.00047L16 0.998474Q16 0.900133 16.0192 0.803681Q16.0384 0.70723 16.076 0.616374Q16.1136 0.525519 16.1683 0.443751Q16.2229 0.361984 16.2924 0.292446Q16.362 0.222909 16.4438 0.168273Q16.5255 0.113638 16.6164 0.0760043Q16.7072 0.0383708 16.8037 0.0191854Q16.9001 0 16.9985 0Z" id="Rectangle" fill="#FFFFFF" fill-rule="evenodd" stroke="none" />
      <path d="M8.99847 0L9.00153 0Q9.09987 0 9.19632 0.0191854Q9.29277 0.0383708 9.38362 0.0760043Q9.47448 0.113638 9.55625 0.168273Q9.63802 0.222909 9.70755 0.292446Q9.77709 0.361984 9.83173 0.443751Q9.88636 0.525519 9.92399 0.616374Q9.96163 0.70723 9.98081 0.803681Q10 0.900133 10 0.998474L10 1.00047Q10 1.09881 9.98081 1.19527Q9.96163 1.29172 9.92399 1.38257Q9.88636 1.47343 9.83173 1.5552Q9.77709 1.63696 9.70755 1.7065Q9.63802 1.77604 9.55625 1.83067Q9.47448 1.88531 9.38362 1.92294Q9.29277 1.96058 9.19632 1.97976Q9.09987 1.99895 9.00153 1.99895L8.99847 1.99895Q8.90013 1.99895 8.80368 1.97976Q8.70723 1.96058 8.61637 1.92294Q8.52552 1.88531 8.44375 1.83067Q8.36198 1.77604 8.29245 1.7065Q8.22291 1.63696 8.16827 1.5552Q8.11364 1.47343 8.076 1.38257Q8.03837 1.29172 8.01918 1.19527Q8 1.09881 8 1.00047L8 0.998474Q8 0.900133 8.01918 0.803681Q8.03837 0.70723 8.076 0.616374Q8.11364 0.525519 8.16827 0.443751Q8.22291 0.361984 8.29245 0.292446Q8.36198 0.222909 8.44375 0.168273Q8.52552 0.113638 8.61637 0.0760043Q8.70723 0.0383708 8.80368 0.0191854Q8.90013 0 8.99847 0Z" id="Rectangle" fill="#FFFFFF" fill-rule="evenodd" stroke="none" />
      <path d="M0.998474 0L1.00153 0Q1.09987 0 1.19632 0.0191854Q1.29277 0.0383708 1.38363 0.0760043Q1.47448 0.113638 1.55625 0.168273Q1.63802 0.222909 1.70755 0.292446Q1.77709 0.361984 1.83173 0.443751Q1.88636 0.525519 1.924 0.616374Q1.96163 0.70723 1.98081 0.803681Q2 0.900133 2 0.998474L2 1.00047Q2 1.09881 1.98081 1.19527Q1.96163 1.29172 1.924 1.38257Q1.88636 1.47343 1.83173 1.5552Q1.77709 1.63696 1.70755 1.7065Q1.63802 1.77604 1.55625 1.83067Q1.47448 1.88531 1.38363 1.92294Q1.29277 1.96058 1.19632 1.97976Q1.09987 1.99895 1.00153 1.99895L0.998474 1.99895Q0.900133 1.99895 0.803681 1.97976Q0.70723 1.96058 0.616374 1.92294Q0.525519 1.88531 0.443751 1.83067Q0.361984 1.77604 0.292446 1.7065Q0.222909 1.63696 0.168273 1.5552Q0.113638 1.47343 0.0760043 1.38257Q0.0383708 1.29172 0.0191854 1.19527Q0 1.09881 0 1.00047L0 0.998474Q0 0.900133 0.0191854 0.803681Q0.0383708 0.70723 0.0760043 0.616374Q0.113638 0.525519 0.168273 0.443751Q0.222909 0.361984 0.292446 0.292446Q0.361984 0.222909 0.443751 0.168273Q0.525519 0.113638 0.616374 0.0760043Q0.70723 0.0383708 0.803681 0.0191854Q0.900133 0 0.998474 0L0.998474 0Z" id="Rectangle" fill="#FFFFFF" fill-rule="evenodd" stroke="none" />
    </g>
  </g>
</svg>