<?xml version="1.0" encoding="utf-8"?>
<svg width="56px" height="56px" viewBox="0 0 56 56" version="1.1" xmlns:xlink="http://www.w3.org/1999/xlink" xmlns="http://www.w3.org/2000/svg">
  <g id="forest-(1)">
    <path d="M43.5089 42.7429L37.8248 42.7429C37.1937 42.7429 36.6819 43.2545 36.6819 43.8857C36.6819 44.5169 37.1937 45.0286 37.8248 45.0286L43.5089 45.0286C44.1399 45.0286 44.6517 44.5169 44.6517 43.8857C44.6517 43.2545 44.1401 42.7429 43.5089 42.7429Z" id="Path" fill="#1A407A" stroke="none" />
    <path d="M33.939 42.7429L12.3769 42.7429C11.7458 42.7429 11.234 43.2545 11.234 43.8857C11.234 44.5169 11.7456 45.0286 12.3769 45.0286L33.939 45.0286C34.5701 45.0286 35.0819 44.5169 35.0819 43.8857C35.0819 43.2545 34.5701 42.7429 33.939 42.7429Z" id="Path" fill="#1A407A" stroke="none" />
    <path d="M43.5089 48.2286L41.8083 48.2286C41.1772 48.2286 40.6654 48.7402 40.6654 49.3714C40.6654 50.0026 41.1772 50.5143 41.8083 50.5143L43.5089 50.5143C44.1399 50.5143 44.6517 50.0026 44.6517 49.3714C44.6517 48.7402 44.1401 48.2286 43.5089 48.2286Z" id="Path" fill="#1A407A" stroke="none" />
    <path d="M21.6063 48.2286L18.9344 48.2286C18.3032 48.2286 17.7916 48.7402 17.7916 49.3714C17.7916 50.0026 18.3032 50.5143 18.9344 50.5143L21.6063 50.5143C22.2374 50.5143 22.7492 50.0026 22.7492 49.3714C22.7492 48.7402 22.2374 48.2286 21.6063 48.2286Z" id="Path" fill="#1A407A" stroke="none" />
    <path d="M15.0488 48.2286L12.4911 48.2286C11.8601 48.2286 11.3483 48.7402 11.3483 49.3714C11.3483 50.0026 11.8601 50.5143 12.4911 50.5143L15.0488 50.5143C15.6799 50.5143 16.1916 50.0026 16.1916 49.3714C16.1916 48.7402 15.6799 48.2286 15.0488 48.2286Z" id="Path" fill="#1A407A" stroke="none" />
    <path d="M37.9225 48.2286L25.4921 48.2286C24.861 48.2286 24.3492 48.7402 24.3492 49.3714C24.3492 50.0026 24.861 50.5143 25.4921 50.5143L37.9228 50.5143C38.5538 50.5143 39.0656 50.0026 39.0656 49.3714C39.0655 48.7402 38.5537 48.2286 37.9225 48.2286Z" id="Path" fill="#1A407A" stroke="none" />
    <path d="M48.5714 45.0286L52.1142 45.0286C54.2569 45.0286 56 43.2855 56 41.1428C56 39.0002 54.2569 37.2571 52.1142 37.2571L50.7426 37.2571L50.7426 32.7881C51.8559 33.7249 53.2912 34.2908 54.8568 34.2908C55.488 34.2908 55.9997 33.779 55.9997 33.148C55.9997 32.5169 55.488 32.0051 54.8568 32.0051C52.5883 32.0051 50.7426 30.1595 50.7426 27.8908L50.7426 27.531C51.8559 28.4678 53.2912 29.0337 54.8568 29.0337C55.488 29.0337 55.9997 28.522 55.9997 27.8908C55.9997 27.2598 55.488 26.748 54.8568 26.748C52.5883 26.748 50.7426 24.9024 50.7426 22.6337L50.7426 22.2739C51.8559 23.2107 53.2912 23.7766 54.8568 23.7766C55.488 23.7766 55.9997 23.2649 55.9997 22.6337C55.9997 22.0026 55.488 21.4909 54.8568 21.4909C52.5883 21.4909 50.7426 19.6453 50.7426 17.3766C50.7426 16.7455 50.2309 16.2338 49.5997 16.2338C48.9686 16.2338 48.4569 16.7455 48.4569 17.3766C48.4569 19.6453 46.6113 21.4909 44.3426 21.4909C43.7115 21.4909 43.1998 22.0026 43.1998 22.6337C43.1998 23.2649 43.7115 23.7766 44.3426 23.7766C45.9082 23.7766 47.3435 23.2107 48.4569 22.2739L48.4569 22.6337C48.4569 24.9024 46.6113 26.748 44.3426 26.748C43.7115 26.748 43.1998 27.2598 43.1998 27.8908C43.1998 28.522 43.7115 29.0337 44.3426 29.0337C45.9082 29.0337 47.3435 28.4678 48.4569 27.531L48.4569 27.8908C48.4569 30.1595 46.6113 32.0051 44.3426 32.0051C44.3158 32.0051 44.2897 32.0073 44.2635 32.0091L28.9063 12.6609C28.6899 12.3884 28.3612 12.2292 28.0132 12.2286C28.0125 12.2286 28.0118 12.2286 28.0111 12.2286C27.6639 12.2286 27.3354 12.3864 27.1184 12.6579L11.6497 32.0052C9.38447 32.0012 7.54281 30.1572 7.54281 27.8911L7.54281 27.5312C8.65614 28.468 10.0915 29.0339 11.6571 29.0339C12.2881 29.0339 12.7999 28.5223 12.7999 27.8911C12.7999 27.26 12.2881 26.7482 11.6571 26.7482C9.3884 26.7482 7.54281 24.9026 7.54281 22.634L7.54281 22.2741C8.65614 23.2109 10.0915 23.7768 11.6571 23.7768C12.2881 23.7768 12.7999 23.2652 12.7999 22.634C12.7999 22.0029 12.2881 21.4911 11.6571 21.4911C9.3884 21.4911 7.54281 19.6455 7.54281 17.3768C7.54281 16.7458 7.03105 16.234 6.39996 16.234C5.76886 16.234 5.2571 16.7458 5.2571 17.3768C5.2571 19.6455 3.41151 21.4911 1.14286 21.4911C0.511655 21.491 0 22.0028 0 22.6338C0 23.265 0.511655 23.7767 1.14286 23.7767C2.70845 23.7767 4.14377 23.2108 5.2571 22.274L5.2571 22.6338C5.2571 24.9025 3.41151 26.7481 1.14286 26.7481C0.511655 26.7481 0 27.2599 0 27.891C0 28.5222 0.511655 29.0338 1.14286 29.0338C2.70845 29.0338 4.14377 28.4679 5.2571 27.5311L5.2571 27.891C5.2571 30.1596 3.41151 32.0052 1.14286 32.0052C0.511655 32.0053 0 32.5171 0 33.1481C0 33.7792 0.511655 34.2909 1.14286 34.2909C2.70845 34.2909 4.14377 33.725 5.2571 32.7882L5.2571 37.2572L3.88576 37.2572C1.74311 37.2572 0 39.0003 0 41.1428C0 43.2854 1.74311 45.0286 3.88576 45.0286L6.63391 45.0286C7.51624 45.0286 8.23395 45.7463 8.23395 46.6286C8.23395 47.511 7.51624 48.2287 6.63391 48.2287L6.51436 48.2287C4.37171 48.2287 2.6286 49.9718 2.6286 52.1143C2.6286 54.2569 4.3716 56 6.51425 56L49.4856 56C51.6283 56 53.3714 54.2569 53.3714 52.1142C53.3714 49.9716 51.6283 48.2286 49.4856 48.2286L48.5714 48.2286C47.689 48.2286 46.9713 47.5109 46.9713 46.6285C46.9713 45.7462 47.689 45.0286 48.5714 45.0286ZM48.4569 32.7882L48.4569 37.2572L48.4287 37.2572L45.9183 34.0942C46.8663 33.8533 47.7301 33.3997 48.4569 32.7882ZM29.1538 16.6495L45.5105 37.2572L31.0372 37.2572L29.9375 33.485L33.2667 29.1531C33.5625 28.7682 33.5829 28.2384 33.3174 27.8319L29.1538 21.4546L29.1538 16.6495ZM26.8682 16.631L26.8682 21.7947C26.8682 22.0165 26.9328 22.2336 27.0542 22.4195L30.9606 28.4029L27.772 32.552C27.55 32.8408 27.479 33.2184 27.5809 33.5683L28.6563 37.2572L10.3772 37.2572L26.8682 16.631ZM7.54281 32.7881C8.24806 33.3816 9.08259 33.8256 9.99751 34.0714L7.54281 37.1417L7.54281 32.7881ZM48.5714 50.5143L49.4856 50.5143C50.368 50.5143 51.0857 51.232 51.0857 52.1143C51.0857 52.9967 50.368 53.7144 49.4856 53.7144L6.51425 53.7144C5.63193 53.7144 4.91421 52.9967 4.91421 52.1143C4.91421 51.232 5.63193 50.5143 6.51425 50.5143L6.6338 50.5143C8.77645 50.5143 10.5196 48.7712 10.5196 46.6285C10.5196 44.4859 8.77645 42.7428 6.6338 42.7428L3.88576 42.7428C3.00343 42.7428 2.28571 42.025 2.28571 41.1427C2.28571 40.2604 3.00343 39.5427 3.88576 39.5427L52.1142 39.5427C52.9966 39.5427 53.7143 40.2604 53.7143 41.1427C53.7143 42.025 52.9966 42.7428 52.1142 42.7428L48.5714 42.7428C46.4287 42.7428 44.6857 44.4859 44.6857 46.6285C44.6857 48.7712 46.4287 50.5143 48.5714 50.5143Z" id="Shape" fill="#1A407A" stroke="none" />
    <path d="M13.3714 0C9.84242 0 6.97144 2.87098 6.97144 6.39997C6.97144 9.92895 9.84242 12.7999 13.3714 12.7999C16.9004 12.7999 19.7714 9.92895 19.7714 6.39997C19.7714 2.87098 16.9004 0 13.3714 0ZM13.3714 10.5143C11.1027 10.5143 9.25715 8.66873 9.25715 6.40008C9.25715 4.13142 11.1027 2.28583 13.3714 2.28583C15.64 2.28583 17.4856 4.13142 17.4856 6.40008C17.4856 8.66873 15.64 10.5143 13.3714 10.5143Z" id="Shape" fill="#1A407A" stroke="none" />
  </g>
</svg>