<?xml version="1.0" encoding="utf-8"?>
<svg width="56px" height="56px" viewBox="0 0 56 56" version="1.1" xmlns:xlink="http://www.w3.org/1999/xlink" xmlns="http://www.w3.org/2000/svg">
  <g id="hangar">
    <path d="M54.9063 36.5848C55.5103 36.5848 56 36.0952 56 35.4911C56 34.887 55.5103 34.3973 54.9063 34.3973C54.3022 34.3973 53.8125 34.887 53.8125 35.4911C53.8125 36.0952 54.3022 36.5848 54.9063 36.5848Z" id="Oval" fill="#1A407A" stroke="none" />
    <path d="M54.9063 38.7734C54.3036 38.7734 53.8125 39.2634 53.8125 39.8661L53.8125 53.8125L51.625 53.8125L51.625 36.3125C51.625 36.1765 51.5996 36.0418 51.5502 35.9151C51.5024 35.7925 50.3386 32.8797 46.8068 29.9965C44.762 28.3273 42.3316 26.9995 39.5834 26.0502C36.1853 24.8764 32.2882 24.2813 28 24.2813C23.7118 24.2813 19.8147 24.8764 16.4165 26.0502C13.6683 26.9995 11.2378 28.3273 9.19308 29.9965C5.66125 32.8797 4.4975 35.7925 4.4497 35.9151C4.40037 36.0418 4.375 36.1765 4.375 36.3125L4.375 53.8125L2.1875 53.8125L2.1875 35.4561C2.52437 34.7495 4.37391 31.0975 7.80938 28.3019C10.0548 26.4698 12.7105 25.0163 15.703 23.9827C19.3298 22.7292 23.4664 22.0938 27.9978 22.0938L28.0022 22.0938C32.5336 22.0938 36.6702 22.7292 40.2981 23.9827C45.08 25.6309 49.3391 28.6661 51.9848 32.3116C52.1894 32.5938 52.5208 32.7622 52.8697 32.7622C53.1016 32.7622 53.3236 32.69 53.5117 32.5533C53.9995 32.1989 54.1078 31.5131 53.7534 31.0253C52.2375 28.9439 50.3092 27.078 48.0233 25.48C46.9503 24.7297 45.8008 24.0439 44.6086 23.4402C43.447 22.8517 42.2373 22.3388 41.0123 21.9144C37.4493 20.6847 33.4447 20.0155 29.0938 19.9197L29.0938 9.84375L33.4688 9.84375L33.4688 13.125C33.4688 13.7291 33.9584 14.2188 34.5625 14.2188L44.4063 14.2188C44.8486 14.2188 45.2475 13.9522 45.4168 13.5436C45.5861 13.135 45.4925 12.6644 45.1797 12.3516L42.6718 9.84375L45.1796 7.33589C45.4925 7.02308 45.586 6.55255 45.4167 6.14392C45.2475 5.7353 44.8486 5.46875 44.4063 5.46875L37.8438 5.46875L37.8438 2.1875C37.8438 1.58342 37.3541 1.09375 36.75 1.09375L29.0938 1.09375C29.0938 0.489672 28.6041 0 28 0C27.3959 0 26.9063 0.489672 26.9063 1.09375L26.9063 19.9196C22.5553 20.0154 18.5508 20.6846 14.9887 21.9143C11.7523 23.0321 8.87141 24.6115 6.42687 26.6075C5.47094 27.3896 4.55656 28.2821 3.70672 29.261C3.01766 30.055 2.36797 30.9093 1.77406 31.8007C0.873906 33.1547 0.342344 34.231 0.105 34.7516C0.09625 34.7702 0.091875 34.7811 0.0896875 34.7844C0.0295313 34.9245 0 35.0656 0 35.2188L0 54.9063C0 55.1939 0.117031 55.4761 0.320469 55.6795C0.523906 55.883 0.806094 56 1.09375 56L54.9063 56C55.1939 56 55.4761 55.883 55.6795 55.6795C55.883 55.4761 56 55.1939 56 54.9063L56 39.8661C56 39.2634 55.5089 38.7734 54.9063 38.7734L54.9063 38.7734ZM37.8438 8.75L37.8438 7.65625L41.7657 7.65625L40.3516 9.07036C39.9245 9.49747 39.9245 10.19 40.3516 10.6173L41.7657 12.0313L35.6563 12.0313L35.6563 9.84375L36.75 9.84375C37.3541 9.84375 37.8438 9.35408 37.8438 8.75ZM29.0938 3.28125L35.6563 3.28125L35.6563 7.65625L29.0938 7.65625L29.0938 3.28125ZM18.1563 53.8125L6.5625 53.8125L6.5625 51.625L18.1563 51.625L18.1563 53.8125ZM26.9063 53.8125L20.3438 53.8125L20.3438 40.6875L26.9063 40.6875L26.9063 53.8125ZM35.6563 53.8125L29.0938 53.8125L29.0938 40.6875L35.6563 40.6875L35.6563 53.8125ZM49.4375 53.8125L37.8438 53.8125L37.8438 51.625L49.4375 51.625L49.4375 53.8125ZM49.4375 49.4375L37.8438 49.4375L37.8438 39.5938C37.8438 38.9897 37.3541 38.5 36.75 38.5L19.25 38.5C18.6459 38.5 18.1563 38.9897 18.1563 39.5938L18.1563 49.4375L6.5625 49.4375L6.5625 36.5419C7.18813 35.2113 11.9188 26.4688 28 26.4688C35.1474 26.4688 41.1343 28.2437 45.3133 31.6017C47.9923 33.7544 49.1496 35.9352 49.4375 36.5436L49.4375 49.4375Z" id="Shape" fill="#1A407A" stroke="none" />
    <path d="M28 28.6563C25.8892 28.6563 24.1719 30.3735 24.1719 32.4844C24.1719 34.5952 25.8892 36.3125 28 36.3125C30.1108 36.3125 31.8281 34.5952 31.8281 32.4844C31.8281 30.3735 30.1108 28.6563 28 28.6563ZM28 34.125C27.0954 34.125 26.3594 33.389 26.3594 32.4844C26.3594 31.5797 27.0954 30.8438 28 30.8438C28.9046 30.8438 29.6406 31.5797 29.6406 32.4844C29.6406 33.389 28.9046 34.125 28 34.125Z" id="Shape" fill="#1A407A" stroke="none" />
  </g>
</svg>