<?xml version="1.0" encoding="utf-8"?>
<svg width="54px" height="34px" viewBox="0 0 54 34" version="1.1" xmlns:xlink="http://www.w3.org/1999/xlink" xmlns="http://www.w3.org/2000/svg">
  <g id="helicopter" transform="matrix(1.0000001 1.6442359E-09 -1.6442359E-09 1.0000001 0 0)">
    <path d="M4.50142 9.0666C2.01971 9.0666 0.00152382 11.0998 0.00152382 13.6C0.00152382 16.1001 2.01971 18.1333 4.50142 18.1333C6.98313 18.1333 9.00132 16.1001 9.00132 13.6C9.00132 11.0998 6.98313 9.0666 4.50142 9.0666ZM4.50142 15.8666C3.25946 15.8666 2.25153 14.8488 2.25153 13.6C2.25153 12.3511 3.25946 11.3333 4.50142 11.3333C5.74339 11.3333 6.75132 12.3511 6.75132 13.6C6.75132 14.8488 5.74339 15.8666 4.50142 15.8666Z" id="Shape" fill="#FB3C09" stroke="none" />
    <path d="M36.7025 11.3468L34.7563 7.42547C34.5651 7.04244 34.1758 6.79987 33.7506 6.79987L30.3757 6.79987C30.0765 6.79987 29.7907 6.92004 29.5815 7.13084L25.4101 11.3332L7.87632 11.3332C7.25534 11.3332 6.75132 11.841 6.75132 12.4666C6.75132 13.0876 7.24859 13.5932 7.8605 13.6C7.32727 13.6068 6.857 13.9966 6.76703 14.5474C6.66357 15.164 7.07974 15.7488 7.69176 15.8507C11.8137 16.5421 18.8311 18.2443 20.4421 19.9149L20.5142 20.0577C22.6403 24.2511 25.2885 29.4666 30.3756 29.4666L46.1251 29.4666C50.6137 29.4666 53.9999 27.03 53.9999 23.8C53.9999 20.3682 46.3884 11.7504 36.7025 11.3468ZM46.1252 27.1999L30.3756 27.1999C26.6654 27.1999 24.4606 22.857 22.5188 19.0263L22.3771 18.7498C22.3366 18.6727 22.2871 18.5979 22.2308 18.5299C19.7852 15.6558 9.25317 13.8153 8.06078 13.6158C8.00678 13.6044 7.94825 13.6 7.89425 13.6L25.8757 13.6C26.1749 13.6 26.4607 13.4798 26.67 13.269L30.8413 9.0666L33.0553 9.0666L34.9947 12.9744C35.1859 13.3574 35.5752 13.6 36.0004 13.6C45.2296 13.6 51.7499 22.1045 51.7499 23.7999C51.75 25.6744 49.2278 27.1999 46.1252 27.1999Z" id="Shape" fill="#FB3C09" stroke="none" />
    <path d="M51.75 22.6643L42.7233 22.6643C41.2203 22.6643 39.9199 21.6897 39.4879 20.2413L37.076 12.138C36.8983 11.5396 36.2706 11.1996 35.6766 11.3786C35.0804 11.56 34.7429 12.1924 34.9229 12.7908L37.3348 20.8941C38.0548 23.3103 40.2215 24.9333 42.7233 24.9333L51.75 24.9333C52.371 24.9333 52.875 24.4233 52.875 23.7977C52.875 23.1721 52.371 22.6643 51.75 22.6643Z" id="Path" fill="#FB3C09" stroke="none" />
    <path d="M6.66811 9.83277L4.41821 5.29942C4.15043 4.76222 3.51152 4.52879 2.96479 4.76679L0.678824 5.75958C0.143375 5.99078 -0.126617 6.59821 0.0578424 7.15815L1.18284 10.5581C1.38312 11.152 2.02203 11.4716 2.60705 11.2744C3.1965 11.0772 3.51606 10.4357 3.31799 9.83957L2.5193 7.42781L2.87926 7.27141L4.65667 10.8504C4.85463 11.2471 5.25065 11.476 5.66239 11.476C5.83113 11.476 6.00209 11.4352 6.16409 11.3559C6.71989 11.0748 6.94485 10.3948 6.66811 9.83277Z" id="Path" fill="#FB3C09" stroke="none" />
    <path d="M6.13034 15.9844C5.57686 15.7102 4.89966 15.9322 4.6206 16.4922L4.47885 16.7755C4.37539 16.2565 3.92084 15.8666 3.37642 15.8666C2.75544 15.8666 2.25142 16.3743 2.25142 16.9999L2.25142 19.2666C2.25142 19.8922 2.75544 20.3999 3.37642 20.3999L4.50142 20.3999C4.92666 20.3999 5.31593 20.1574 5.50936 19.7721L6.63436 17.5055C6.9111 16.9455 6.68614 16.2655 6.13034 15.9844Z" id="Path" fill="#FB3C09" stroke="none" />
    <path d="M32.6256 0C32.0046 0 31.5006 0.507767 31.5006 1.13337L31.5006 2.26673C31.5006 2.89233 32.0046 3.4001 32.6256 3.4001C33.2466 3.4001 33.7506 2.89233 33.7506 2.26673L33.7506 1.13337C33.7505 0.507661 33.2466 0 32.6256 0Z" id="Path" fill="#FB3C09" stroke="none" />
    <path d="M52.875 2.26662L32.6256 2.26662C32.0046 2.26662 31.5006 2.77439 31.5006 3.39999C31.5006 4.02559 32.0046 4.53335 32.6256 4.53335L52.875 4.53335C53.496 4.53335 54 4.02559 54 3.39999C54 2.77439 53.496 2.26662 52.875 2.26662Z" id="Path" fill="#FB3C09" stroke="none" />
    <path d="M32.6256 2.26662L12.3762 2.26662C11.7552 2.26662 11.2512 2.77439 11.2512 3.39999C11.2512 4.02559 11.7552 4.53335 12.3762 4.53335L32.6256 4.53335C33.2466 4.53335 33.7506 4.02559 33.7506 3.39999C33.7506 2.77439 33.2466 2.26662 32.6256 2.26662Z" id="Path" fill="#FB3C09" stroke="none" />
    <path d="M37.1254 27.1999C36.5044 27.1999 36.0004 27.7077 36.0004 28.3333L36.0004 32.8666C36.0004 33.4922 36.5044 34 37.1254 34C37.7464 34 38.2504 33.4922 38.2504 32.8666L38.2504 28.3333C38.2504 27.7076 37.7464 27.1999 37.1254 27.1999Z" id="Path" fill="#FB3C09" stroke="none" />
    <path d="M46.1252 27.1999C45.5042 27.1999 45.0002 27.7077 45.0002 28.3333L45.0002 32.8666C45.0002 33.4922 45.5042 34 46.1252 34C46.7462 34 47.2502 33.4922 47.2502 32.8666L47.2502 28.3333C47.2501 27.7076 46.7462 27.1999 46.1252 27.1999Z" id="Path" fill="#FB3C09" stroke="none" />
    <path d="M53.4239 29.6116C52.8817 29.3056 52.1955 29.5005 51.8917 30.0468C51.3585 31.0056 49.1851 31.604 48.3751 31.7332L25.8758 31.7332C25.2548 31.7332 24.7508 32.2409 24.7508 32.8665C24.7508 33.4921 25.2548 33.9999 25.8758 33.9999L48.5303 33.9885C48.9466 33.9296 52.6342 33.3516 53.8559 31.1529C54.1597 30.6067 53.9661 29.9176 53.4239 29.6116Z" id="Path" fill="#FB3C09" stroke="none" />
  </g>
</svg>