<?xml version="1.0" encoding="utf-8"?>
<svg width="309px" height="60px" viewBox="0 0 309 60" version="1.1" xmlns:xlink="http://www.w3.org/1999/xlink" xmlns="http://www.w3.org/2000/svg">
  <g id="Logo">
    <g id="Авиакомпания-Конверс" transform="translate(109 0)">
      <g id="АВИАКОМПАНИЯ" fill="#FFFFFF">
        <path d="M87.4738 22.7606L87.4976 22.7606Q91.186 22.7606 93.3514 20.4762Q95.5168 18.1918 95.5168 14.313Q95.5168 10.8864 93.4704 8.54251Q91.4239 6.19861 87.7355 6.19861Q84.1186 6.19862 81.9412 8.5901Q79.7639 10.9816 79.7639 14.5748Q79.7639 18.0728 81.8223 20.4167Q83.8806 22.7606 87.4738 22.7606ZM17.5376 6.69833L17.5376 22.4036Q19.0129 22.6892 21.7733 22.6892Q26.5087 22.6892 28.3885 21.2614Q30.197 19.9051 30.197 17.7396Q30.197 16.3119 29.3642 15.2768Q28.5313 14.2416 27.056 13.8371L27.056 13.7895Q29.6735 12.7901 29.6735 10.4343Q29.6735 8.14988 27.5081 7.12665Q25.9375 6.34139 22.6061 6.34139Q19.3699 6.34139 17.5376 6.69833ZM183.133 22.4988L187.702 22.4988Q187.988 21.9515 188.297 21.0711Q188.392 20.8093 188.606 20.0716Q188.821 19.334 188.975 18.8818Q189.13 18.4297 189.427 17.8824Q189.725 17.3351 190.082 17.0258Q190.7 16.4785 191.557 16.4785L192.128 16.4785L192.128 22.4988L196.388 22.4988L196.388 6.69833Q194.103 6.34139 191.462 6.34139Q187.631 6.34139 185.917 7.60257Q184.18 8.93514 184.18 11.0768Q184.18 12.7425 185.132 13.7062Q186.084 14.67 187.488 14.9555L187.488 15.0269Q186.679 15.36 186.179 15.8598Q185.846 16.1691 185.572 16.5617Q185.299 16.9544 185.073 17.4898Q184.847 18.0252 184.716 18.394Q184.585 18.7629 184.347 19.5005Q184.109 20.2382 184.014 20.5476Q183.633 21.7136 183.133 22.4988ZM5.68722 18.7867L9.82771 18.7867L10.8509 22.4988L15.4911 22.4988L10.7082 6.46037L4.99714 6.46037L0.333143 22.4988L4.78298 22.4988L5.68722 18.7867ZM32.5528 6.46037L36.4791 6.46037L36.4791 10.3629Q36.4791 14.3844 36.2888 17.811L36.3602 17.811Q37.5262 15.1697 39.1919 11.9096L41.9284 6.46037L46.3307 6.46037L46.3307 22.4988L42.4043 22.4988L42.4043 18.6677Q42.4043 14.3606 42.6899 11.8144L42.6185 11.8144Q41.5477 14.7889 40.0009 17.6682L37.5024 22.4988L32.5528 22.4988L32.5528 6.46037ZM53.517 18.7867L57.6575 18.7867L58.6807 22.4988L63.3209 22.4988L58.538 6.46037L52.8269 6.46037L48.1629 22.4988L52.6128 22.4988L53.517 18.7867ZM65.3674 6.46037L69.6031 6.46037L69.6031 12.9329L69.7934 12.9329L73.7436 6.46037L78.9787 6.46037L73.577 13.4802Q74.8858 13.8847 75.6472 14.8127Q76.4087 15.7408 76.8846 17.2161Q78.1696 21.19 78.7645 22.4988L74.1481 22.4988Q73.7911 21.7849 73.0297 19.0722Q72.6251 17.6207 72.0183 16.8354Q71.4116 16.0501 70.2931 16.0501L69.6031 16.0501L69.6031 22.4988L65.3674 22.4988L65.3674 6.46037ZM111.579 22.4988L111.389 16.7402Q111.294 14.3368 111.294 10.2915L111.222 10.2915Q110.532 13.1946 109.533 16.5736L107.938 22.1657L104.583 22.1657L103.25 16.5736Q102.608 14.0513 101.966 10.2915L101.918 10.2915Q101.87 11.5527 101.787 13.8014Q101.704 16.0501 101.68 16.7402L101.418 22.4988L97.4681 22.4988L98.4675 6.46037L104.25 6.46037L105.297 10.7912Q106.082 13.8371 106.558 16.645L106.63 16.645Q107.605 12.4331 108.081 10.7436L109.295 6.46037L114.934 6.46037L115.743 22.4988L111.579 22.4988ZM131.948 6.46037L118.385 6.46037L118.385 22.4988L122.692 22.4988L122.692 9.98216L127.641 9.98216L127.641 22.4988L131.948 22.4988L131.948 6.46037ZM143.228 18.7867L139.087 18.7867L138.183 22.4988L133.733 22.4988L138.397 6.46037L144.108 6.46037L148.891 22.4988L144.251 22.4988L143.228 18.7867ZM155.245 6.46037L150.938 6.46037L150.938 22.4988L155.245 22.4988L155.245 16.1691L160.456 16.1691L160.456 22.4988L164.763 22.4988L164.763 6.46037L160.456 6.46037L160.456 12.4093L155.245 12.4093L155.245 6.46037ZM167.714 6.46037L171.64 6.46037L171.64 10.3629Q171.64 14.3844 171.45 17.811L171.521 17.811Q172.687 15.1697 174.353 11.9096L177.089 6.46037L181.491 6.46037L181.491 22.4988L177.565 22.4988L177.565 18.6677Q177.565 14.3606 177.851 11.8144L177.779 11.8144Q176.708 14.7889 175.162 17.6682L172.663 22.4988L167.714 22.4988L167.714 6.46037ZM21.7971 12.6235L21.7971 9.53004Q22.3682 9.43486 23.201 9.43486Q24.2718 9.43486 24.8191 9.83939Q25.3664 10.2439 25.3664 10.9578Q25.3664 12.6235 22.6537 12.6235L21.7971 12.6235ZM192.128 9.64902L192.128 13.3374Q191.652 13.4088 191.034 13.4088Q189.939 13.4088 189.201 12.921Q188.464 12.4331 188.464 11.5051Q188.464 10.5057 189.13 10.0179Q189.796 9.53004 190.867 9.53004Q191.605 9.53004 192.128 9.64902ZM9.23282 15.6218L6.25833 15.6218L6.94841 12.7425Q7.06739 12.2666 7.30535 11.1482Q7.54331 10.0298 7.66229 9.57763L7.70988 9.57763Q7.75747 9.768 8.05492 10.9935Q8.35237 12.219 8.49514 12.7425L9.23282 15.6218ZM57.0626 15.6218L54.0881 15.6218L54.7782 12.7425Q54.8972 12.2666 55.1351 11.1482Q55.3731 10.0298 55.4921 9.57763L55.5397 9.57763Q55.5873 9.768 55.8847 10.9935Q56.1822 12.219 56.3249 12.7425L57.0626 15.6218ZM139.658 15.6218L142.633 15.6218L141.895 12.7425Q141.752 12.219 141.455 10.9935Q141.157 9.768 141.11 9.57763L141.062 9.57763Q140.943 10.0298 140.705 11.1482Q140.467 12.2666 140.348 12.7425L139.658 15.6218ZM87.688 19.3578L87.6404 19.3578Q86.0936 19.3578 85.1894 18.0133Q84.2851 16.6688 84.3089 14.4796Q84.3089 12.338 85.2132 10.9697Q86.1174 9.60143 87.6404 9.60143Q89.1871 9.60143 90.0795 10.9697Q90.9718 12.338 90.9718 14.4558Q90.9718 16.6688 90.0913 18.0133Q89.2109 19.3578 87.688 19.3578ZM21.7971 19.5005L21.7971 15.6694L22.8203 15.6694Q25.6758 15.6694 25.6758 17.5493Q25.6758 18.5487 24.9381 19.0484Q24.2004 19.5481 23.0344 19.5481Q22.1064 19.5481 21.7971 19.5005Z" />
      </g>
      <g id="КОНВЕРС-АВИА" fill="#FFFFFF">
        <path d="M27.0107 52.9143L26.9835 52.9143Q22.872 52.9143 20.5167 50.2323Q18.1615 47.5503 18.1615 43.5477Q18.1615 39.4362 20.6529 36.6997Q23.1443 33.9632 27.283 33.9632Q31.5035 33.9632 33.8451 36.6452Q36.1868 39.3273 36.1868 43.2482Q36.1868 47.6864 33.709 50.3004Q31.2312 52.9143 27.0107 52.9143ZM120.323 52.1247L119.642 48.2855Q118.335 48.8028 116.375 48.8028Q113.843 48.8028 112.427 47.3597Q111.011 45.9166 111.011 43.4115Q111.011 40.7704 112.508 39.3953Q114.006 38.0203 116.266 38.0203Q118.09 38.0203 119.67 38.6738L120.623 34.7801Q119.043 33.9905 116.048 33.9905Q113.244 33.9905 110.97 35.0524Q108.696 36.1143 107.267 38.3743Q105.837 40.6342 105.837 43.7383Q105.837 45.6171 106.436 47.2372Q107.036 48.8573 108.193 50.137Q109.35 51.4168 111.283 52.1519Q113.216 52.8871 115.721 52.8871Q118.853 52.8871 120.323 52.1247ZM57.9969 52.5059L57.9969 34.535Q60.0935 34.1266 63.7965 34.1266Q67.6085 34.1266 69.4056 35.0252Q71.8834 36.196 71.8834 38.8099Q71.8834 41.5056 68.8883 42.6492L68.8883 42.7036Q70.5765 43.1665 71.5295 44.3509Q72.4825 45.5354 72.4825 47.1691Q72.4825 49.6469 70.4131 51.1989Q68.262 52.8326 62.8435 52.8326Q59.685 52.8326 57.9969 52.5059ZM90.2083 52.6148L90.2083 34.535Q92.7133 34.1266 96.253 34.1266Q100.174 34.1266 102.08 35.597Q104.177 37.149 104.177 40.008Q104.177 42.8942 102.379 44.5279Q100.228 46.4339 96.2802 46.4339Q96.0079 46.4339 95.6131 46.4067Q95.2183 46.3795 95.0822 46.3795L95.0822 52.6148L90.2083 52.6148ZM146.762 34.535L146.762 52.5059Q148.45 52.8326 151.609 52.8326Q157.027 52.8326 159.178 51.1989Q161.248 49.6469 161.248 47.1691Q161.248 45.5354 160.295 44.3509Q159.342 43.1665 157.653 42.7036L157.653 42.6492Q160.649 41.5056 160.649 38.8099Q160.649 36.196 158.171 35.0252Q156.374 34.1266 152.562 34.1266Q148.859 34.1266 146.762 34.535ZM1.68817 34.2627L6.53486 34.2627L6.53486 41.6689L6.75269 41.6689L11.2726 34.2627L17.2629 34.2627L11.082 42.2952Q12.5796 42.7581 13.4509 43.82Q14.3222 44.8819 14.8668 46.5701Q16.3371 51.1172 17.0179 52.6148L11.7355 52.6148Q11.3271 51.798 10.4558 48.6939Q9.99288 47.033 9.29856 46.1344Q8.60423 45.2359 7.32449 45.2359L6.53486 45.2359L6.53486 52.6148L1.68817 52.6148L1.68817 34.2627ZM43.7291 34.2627L38.8007 34.2627L38.8007 52.6148L43.7291 52.6148L43.7291 45.372L49.6921 45.372L49.6921 52.6148L54.6205 52.6148L54.6205 34.2627L49.6921 34.2627L49.6921 41.0699L43.7291 41.0699L43.7291 34.2627ZM86.6958 45.2086L86.6958 41.2333L80.1065 41.2333L80.1065 38.2926L87.1042 38.2926L87.1042 34.2627L75.1781 34.2627L75.1781 52.6148L87.4854 52.6148L87.4854 48.585L80.1065 48.585L80.1065 45.2086L86.6958 45.2086ZM137.94 48.3671L133.202 48.3671L132.167 52.6148L127.076 52.6148L132.413 34.2627L138.947 34.2627L144.42 52.6148L139.111 52.6148L137.94 48.3671ZM163.943 34.2627L168.436 34.2627L168.436 38.7282Q168.436 43.3299 168.218 47.2508L168.3 47.2508Q169.634 44.2284 171.54 40.4981L174.671 34.2627L179.709 34.2627L179.709 52.6148L175.216 52.6148L175.216 48.231Q175.216 43.3026 175.543 40.3892L175.461 40.3892Q174.236 43.7928 172.466 47.0874L169.607 52.6148L163.943 52.6148L163.943 34.2627ZM187.932 48.3671L192.669 48.3671L193.84 52.6148L199.15 52.6148L193.677 34.2627L187.142 34.2627L181.805 52.6148L186.897 52.6148L187.932 48.3671ZM62.8708 37.7752L62.8708 41.3149L63.851 41.3149Q66.9551 41.3149 66.9551 39.409Q66.9551 38.5921 66.3288 38.1292Q65.7025 37.6663 64.4773 37.6663Q63.5243 37.6663 62.8708 37.7752ZM151.636 41.3149L151.636 37.7752Q152.289 37.6663 153.242 37.6663Q154.468 37.6663 155.094 38.1292Q155.72 38.5921 155.72 39.409Q155.72 41.3149 152.616 41.3149L151.636 41.3149ZM95.0822 37.9386L95.0822 42.6219Q95.6267 42.6764 96.1985 42.6764Q97.6417 42.6764 98.4721 41.982Q99.3026 41.2877 99.3026 40.1169Q99.3026 39.055 98.5947 38.4423Q97.8867 37.8297 96.5253 37.8297Q95.5723 37.8297 95.0822 37.9386ZM133.856 44.7458L137.259 44.7458L136.415 41.4511Q136.252 40.8521 135.911 39.4498Q135.571 38.0475 135.517 37.8297L135.462 37.8297Q135.326 38.347 135.054 39.6268Q134.781 40.9065 134.645 41.4511L133.856 44.7458ZM191.989 44.7458L188.585 44.7458L189.375 41.4511Q189.511 40.9065 189.783 39.6268Q190.055 38.347 190.192 37.8297L190.246 37.8297Q190.3 38.0475 190.641 39.4498Q190.981 40.8521 191.145 41.4511L191.989 44.7458ZM27.1741 49.0206L27.2286 49.0206Q28.9712 49.0206 29.9787 47.4822Q30.9861 45.9438 30.9861 43.4115Q30.9861 40.9882 29.965 39.4226Q28.944 37.8569 27.1741 37.8569Q25.4315 37.8569 24.3968 39.4226Q23.3621 40.9882 23.3621 43.4388Q23.3349 45.9438 24.3696 47.4822Q25.4043 49.0206 27.1741 49.0206ZM62.8708 44.8002L62.8708 49.184Q63.2247 49.2385 64.2867 49.2385Q65.6209 49.2385 66.4649 48.6667Q67.309 48.0949 67.309 46.9513Q67.309 44.8002 64.0416 44.8002L62.8708 44.8002ZM151.636 49.184L151.636 44.8002L152.807 44.8002Q156.074 44.8002 156.074 46.9513Q156.074 48.0949 155.23 48.6667Q154.386 49.2385 153.052 49.2385Q151.99 49.2385 151.636 49.184Z" />
      </g>
    </g>
    <g id="Group" transform="translate(0 8.081633)">
      <path d="M68.1806 0C71.7727 0 74.6782 2.90558 74.6782 6.4898L74.6782 45.4286C74.6782 49.0128 71.7727 51.9184 68.1884 51.9184C67.7554 51.9184 67.3398 51.8775 66.9374 51.7994C66.2596 51.721 65.5638 51.4755 64.8635 51.0254L62.2493 49.3253L59.55 47.543C57.3225 46.0647 54.7048 44.3111 51.6966 42.2823L48.4439 40.0842C45.4072 38.132 44.5442 34.1127 46.5162 31.1068C48.4882 28.1008 52.5486 27.2464 55.5852 29.1986L61.6919 33.3047L61.6904 17.919L26.6867 40.4222C22.7155 36.9641 18.2929 34.665 13.4497 33.4545L63.8182 1.0761C64.9708 0.335192 66.2708 -0.00143983 67.5481 0.030408C67.7558 0.0103183 67.967 0 68.1806 0ZM21.3877 43.8286L10.4777 50.8423C9.44155 51.5083 8.28624 51.8477 7.13537 51.8863C6.92556 51.9079 6.71304 51.9184 6.49809 51.9184C2.90602 51.9184 0.000435621 49.0128 0.000435621 45.4286L0.000704 37.0122C7.57901 37.8941 14.6976 40.1699 21.3877 43.8286ZM6.49809 0C10.0823 0 12.9879 2.90558 12.9879 6.4898L12.9874 13.575L32.4319 1.0761C35.4686 -0.876 39.5289 -0.0216674 41.5009 2.98431C43.473 5.99028 42.6099 10.0096 39.5733 11.9617L12.9874 29.052L12.9875 33.3425C8.94195 32.3942 4.60685 32.1955 0 32.7061L0.000435621 6.4898C0.000435621 2.9835 2.78106 0.12665 6.25746 0.00409656L6.49809 0Z" transform="translate(8.657861 0)" id="Shape" fill="#FFFFFF" fill-rule="evenodd" stroke="none" />
      <path d="M0 2.00153C16.4896 -2.6092 32.3514 -0.0838683 43.2915 18.3942C30.8642 7.36534 16.5544 1.67691 0 2.00153Z" transform="translate(0 33.52418)" id="Path" fill="#FB3C09" fill-rule="evenodd" stroke="none" />
    </g>
  </g>
</svg>