<?xml version="1.0" encoding="utf-8"?>
<svg width="20px" height="20px" viewBox="0 0 20 20" version="1.1" xmlns:xlink="http://www.w3.org/1999/xlink" xmlns="http://www.w3.org/2000/svg">
  <g id="1-2">
    <g id="1">
      <path d="M10 20C15.5228 20 20 15.5228 20 10C20 4.47715 15.5228 0 10 0C4.47715 0 0 4.47715 0 10C0 15.5228 4.47715 20 10 20Z" id="Oval" fill="#FFFFFF" fill-rule="evenodd" stroke="none" />
      <path d="M9.11823 15.4412C9.29236 15.7853 9.63122 16 10 16C10.3688 16 10.7077 15.7853 10.8818 15.4412L13.5216 10.2255C14.1912 8.90257 14.1561 7.34398 13.4277 6.05638C12.6993 4.76878 11.4179 4 10 4C8.5821 4 7.3007 4.76878 6.57231 6.05638C5.84391 7.34398 5.80883 8.90257 6.4784 10.2255L9.11823 15.4412ZM8.28886 7.14421C8.65246 6.50144 9.29209 6.11765 10 6.11765C10.7079 6.11765 11.3476 6.50144 11.7112 7.14421C12.0748 7.78699 12.0924 8.56508 11.7581 9.22551L10.0001 12.6989L8.24204 9.22551C7.90766 8.56508 7.9252 7.78699 8.28886 7.14421L8.28886 7.14421Z" id="Shape" fill="#FB3C09" stroke="none" />
    </g>
  </g>
</svg>