<?xml version="1.0" encoding="utf-8"?>
<svg width="30px" height="30px" viewBox="0 0 30 30" version="1.1" xmlns:xlink="http://www.w3.org/1999/xlink" xmlns="http://www.w3.org/2000/svg">
  <g id="messenger">
    <path d="M7.0697 30C6.6449 30 6.2233 29.8814 5.8532 29.648C5.21278 29.2435 4.8159 28.5502 4.79164 27.7928L4.71771 25.3674C1.67633 22.6402 0 18.8111 0 14.5862C0 10.5538 1.54564 6.84548 4.35173 4.14432C7.12852 1.47178 10.9101 0 15 0C19.0899 0 22.8715 1.47178 25.6483 4.14432C28.4544 6.84548 30 10.5538 30 14.5862C30 17.4459 29.2163 20.1789 27.7336 22.4894C27.3839 23.0341 26.659 23.1925 26.1143 22.8428C25.5698 22.4932 25.4114 21.7681 25.7611 21.2236C27.001 19.2915 27.6563 16.9962 27.6563 14.5862C27.6563 7.60678 22.2153 2.34386 15 2.34386C7.78473 2.34386 2.34375 7.60678 2.34375 14.5862C2.34375 18.1411 3.74748 21.3547 6.29631 23.635C6.76643 24.0584 7.03629 24.632 7.05894 25.2528C7.05917 25.2551 7.05917 25.2576 7.05917 25.2601L7.1315 27.6234L9.78584 26.4522C10.2637 26.2418 10.8028 26.2013 11.3047 26.3382C12.4844 26.6637 13.7265 26.8282 15 26.8282C17.6141 26.8282 20.0908 26.1285 22.1617 24.8044C22.7071 24.4558 23.4318 24.6153 23.7804 25.1608C24.129 25.706 23.9694 26.4307 23.4242 26.7793C20.9754 28.3449 18.0624 29.1723 15 29.1723C13.5255 29.1723 12.0827 28.9817 10.7112 28.6058L7.98866 29.807C7.69363 29.9364 7.38098 30 7.0697 30L7.0697 30ZM7.6252 19.3737L12.0049 15.9968C12.3008 15.7748 12.7082 15.7718 13.0069 15.9941L16.2476 18.5133C17.219 19.2382 18.6092 18.9825 19.2567 17.9605L23.3302 11.5007C23.7236 10.8841 22.9589 10.1871 22.3755 10.6286L17.9979 13.946C17.702 14.1682 17.2945 14.171 16.9958 13.9487L13.7551 11.4883C12.7837 10.7634 11.3935 11.0189 10.746 12.0409L6.67053 18.5014C6.27708 19.118 7.04178 19.8152 7.6252 19.3737Z" id="Shape" fill="#4267B2" stroke="none" />
  </g>
</svg>