<?xml version="1.0" encoding="utf-8"?>
<svg width="57px" height="51px" viewBox="0 0 57 51" version="1.1" xmlns:xlink="http://www.w3.org/1999/xlink" xmlns="http://www.w3.org/2000/svg">
  <g id="oil-derrick">
    <path d="M30.6152 16.4088C31.2301 16.4088 31.7285 15.9124 31.7285 15.3001C31.7285 14.6878 31.2301 14.1914 30.6152 14.1914C30.0004 14.1914 29.5019 14.6878 29.5019 15.3001C29.5019 15.9124 30.0004 16.4088 30.6152 16.4088Z" id="Oval" fill="#1A407A" stroke="none" />
    <path d="M56.8655 21.6479C57.1349 20.6468 56.9968 19.6011 56.4763 18.7034C55.956 17.8058 55.1158 17.1637 54.1104 16.8954C53.3336 16.6881 52.5302 16.7242 51.7892 16.9901L48.103 16.0065C48.0084 15.981 47.9115 15.9688 47.8146 15.9688C47.3114 15.9688 46.8695 16.3069 46.7403 16.7903C46.6624 17.0763 46.7025 17.3757 46.8505 17.6318C46.9997 17.889 47.2402 18.072 47.5274 18.1485L49.7106 18.731C49.5506 19.0136 49.4248 19.3178 49.3383 19.6394C49.2252 20.0597 49.1874 20.4825 49.2145 20.8944L36.6591 17.544L36.1778 15.1734C36.1774 15.1558 36.1771 15.138 36.1765 15.1204L36.1777 15.1207L37.8488 15.5664C37.9434 15.5908 38.0414 15.6041 38.1382 15.6041C38.6403 15.6041 39.0823 15.266 39.2125 14.7826C39.3717 14.1916 39.0188 13.583 38.4255 13.4244L35.499 12.6439C34.5525 10.9249 32.7181 9.75665 30.6147 9.75665C29.5552 9.75665 28.5639 10.0532 27.7199 10.5671L17.1784 7.75413L17.9836 4.76122C18.1423 4.17184 17.7928 3.56561 17.2018 3.40473L4.83554 0.0392993C4.54987 -0.0385309 4.24438 0.00049504 3.98722 0.147618C3.73016 0.294742 3.54279 0.537989 3.46642 0.823255L0.0376289 13.6325C-0.0322852 13.8935 -0.00411914 14.1709 0.117006 14.4127L4.31029 22.79L4.31029 32.4848L1.11328 32.4848C0.498527 32.4848 0 32.9812 0 33.5935L0 49.8913C0 50.5035 0.498416 51 1.11328 51L10.0194 51C10.6342 51 11.1327 50.5035 11.1327 49.8913L11.1327 33.5935C11.1327 32.9812 10.6343 32.4848 10.0194 32.4848L6.53685 32.4848L6.53685 23.1247L14.0941 18.1426C14.3208 17.9932 14.4847 17.7664 14.555 17.5051L15.4497 14.1801L24.7495 16.662L19.128 44.3478L15.5856 44.3478C14.9708 44.3478 14.4723 44.8443 14.4723 45.4565L14.4723 49.8913C14.4723 50.5035 14.9707 51 15.5856 51L45.6436 51C46.2584 51 46.7569 50.5035 46.7569 49.8913L46.7569 45.4565C46.7569 44.8443 46.2585 44.3478 45.6436 44.3478L42.1013 44.3478L37.1517 19.9708L50.505 23.5346C50.9204 23.9059 51.4216 24.1927 51.9884 24.3609L51.9884 32.4848L50.8758 32.4848C50.2611 32.4848 49.7626 32.9812 49.7626 33.5935L49.7626 49.8913C49.7626 50.5035 50.261 51 50.8758 51L55.3288 51C55.9436 51 56.4421 50.5035 56.4421 49.8913L56.4421 33.5935C56.4421 32.9812 55.9437 32.4848 55.3288 32.4848L54.2149 32.4848L54.2149 24.3609C55.4672 23.9867 56.5031 22.9949 56.8655 21.6479L56.8655 21.6479ZM8.90614 48.7826L2.22656 48.7826L2.22656 34.7022L8.90614 34.7022L8.90614 48.7826ZM27.2751 15.2947C27.2781 13.4631 28.775 11.974 30.6147 11.974C32.4544 11.974 33.9513 13.4631 33.9543 15.2947C33.9543 15.2967 33.9544 15.2988 33.9544 15.3009C33.9541 17.1344 32.456 18.6262 30.6147 18.6262C28.7733 18.6262 27.2753 17.1344 27.2749 15.3008C27.2749 15.2988 27.2751 15.2967 27.2751 15.2947L27.2751 15.2947ZM5.85842 20.9128L2.29737 13.7986L5.32917 2.47243L15.5464 5.25292L12.5134 16.5254L5.85842 20.9128ZM16.6021 9.89635L25.8889 12.3743L25.8898 12.3745C25.4985 12.9991 25.2276 13.7058 25.1119 14.4631L16.0258 12.0385L16.6021 9.89635ZM38.0533 35.5986L26.1946 31.3369L36.4552 27.728L38.0533 35.5986ZM23.7417 32.8126L36.504 37.3991L21.546 43.6272L23.7417 32.8126ZM24.39 29.62L25.527 24.0203L33.6627 26.3585L24.39 29.62ZM44.5305 48.7826L16.6989 48.7826L16.6989 46.5652L44.5305 46.5652L44.5305 48.7826ZM25.5877 44.3478L38.7196 38.88L39.8297 44.3478L25.5877 44.3478ZM35.8355 24.6752L25.9697 21.8398L26.5333 19.0642C27.5507 20.1576 29.0035 20.8436 30.6148 20.8436C32.1256 20.8436 33.4971 20.2401 34.501 19.2637L34.5024 19.2637L34.7503 19.3299L35.8355 24.6752ZM54.2159 48.7826L51.9893 48.7826L51.9893 34.7022L54.2159 34.7022L54.2159 48.7826ZM54.7149 21.074C54.4764 21.9597 53.5594 22.4869 52.6697 22.25C51.7804 22.0126 51.2506 21.0989 51.4889 20.2131C51.6044 19.784 51.8806 19.4254 52.267 19.2033C52.5243 19.0554 52.8098 18.9798 53.0992 18.9798C53.2442 18.9798 53.3902 18.9987 53.534 19.0372C53.9649 19.1522 54.325 19.4273 54.548 19.812C54.7711 20.1967 54.8303 20.6449 54.7149 21.074L54.7149 21.074Z" id="Shape" fill="#1A407A" stroke="none" />
    <path d="M42.9761 16.895C43.591 16.895 44.0894 16.3986 44.0894 15.7863C44.0894 15.174 43.591 14.6776 42.9761 14.6776C42.3613 14.6776 41.8628 15.174 41.8628 15.7863C41.8628 16.3986 42.3613 16.895 42.9761 16.895Z" id="Oval" fill="#1A407A" stroke="none" />
  </g>
</svg>