<?xml version="1.0" encoding="utf-8"?>
<svg width="1.9980469px" height="858px" viewBox="0 0 1.9980469 858" version="1.1" xmlns:xlink="http://www.w3.org/1999/xlink" xmlns="http://www.w3.org/2000/svg">
  <g id="Rectangle-3">
    <path d="M-4.36295e-08 0.998127L-3.74607e-05 857.002Q-3.7465e-05 857.1 0.0191412 857.197Q0.03832 857.293 0.0759404 857.384Q0.113561 857.474 0.168177 857.556Q0.222794 857.638 0.292307 857.708Q0.36182 857.777 0.44356 857.832Q0.525299 857.886 0.616122 857.924Q0.706946 857.962 0.803364 857.981Q0.899782 858 0.998089 858L1.00009 858Q1.0984 858 1.19481 857.981Q1.29123 857.962 1.38206 857.924Q1.47288 857.886 1.55462 857.832Q1.63636 857.777 1.70587 857.708Q1.77538 857.638 1.83 857.556Q1.88462 857.474 1.92224 857.384Q1.95986 857.293 1.97904 857.197Q1.99822 857.1 1.99822 857.002L1.99825 0.998127Q1.99825 0.89982 1.97907 0.803402Q1.9599 0.706984 1.92227 0.61616Q1.88465 0.525336 1.83004 0.443597Q1.77542 0.361858 1.70591 0.292345Q1.63639 0.222831 1.55466 0.168215Q1.47292 0.113598 1.38209 0.0759779Q1.29127 0.0383575 1.19485 0.0191788Q1.09843 4.8014e-08 1.00013 4.37169e-08L0.998127 4.36295e-08Q0.89982 3.93324e-08 0.803402 0.0191788Q0.706984 0.0383575 0.61616 0.0759779Q0.525336 0.113598 0.443597 0.168215Q0.361858 0.222831 0.292344 0.292344Q0.222831 0.361858 0.168215 0.443597Q0.113598 0.525336 0.0759778 0.61616Q0.0383574 0.706984 0.0191787 0.803402Q-3.93324e-08 0.89982 -4.36295e-08 0.998127L-4.36295e-08 0.998127Z" id="Rectangle" fill="#1A407A" fill-rule="evenodd" stroke="none" />
  </g>
</svg>