<?xml version="1.0" encoding="utf-8"?>
<svg width="46px" height="56px" viewBox="0 0 46 56" version="1.1" xmlns:xlink="http://www.w3.org/1999/xlink" xmlns="http://www.w3.org/2000/svg">
  <g id="parachute">
    <path d="M24.0652 43.4514C24.0522 43.3814 24.0304 43.3125 24.0032 43.2469C23.976 43.1813 23.9423 43.1178 23.9032 43.0577C23.8641 42.9986 23.8184 42.9417 23.7684 42.8914C23.7184 42.8411 23.6629 42.7962 23.6031 42.7558C23.5444 42.7164 23.4814 42.6825 23.415 42.6552C23.3498 42.6278 23.2813 42.607 23.2117 42.5928C22.8584 42.5217 22.4833 42.6377 22.2311 42.8914C22.1811 42.9417 22.1354 42.9986 22.0963 43.0577C22.0571 43.1178 22.0234 43.1813 21.9962 43.2469C21.969 43.3125 21.9473 43.3814 21.9343 43.4514C21.9201 43.5225 21.9125 43.5936 21.9125 43.6658C21.9125 43.7369 21.9201 43.808 21.9343 43.8791C21.9473 43.9491 21.969 44.018 21.9962 44.0836C22.0234 44.1492 22.0571 44.2127 22.0963 44.2728C22.1354 44.3319 22.1811 44.3887 22.2311 44.4391C22.4333 44.6425 22.7138 44.7584 22.9997 44.7584C23.0704 44.7584 23.1422 44.7519 23.2117 44.7377C23.2813 44.7234 23.3498 44.7027 23.415 44.6753C23.4814 44.648 23.5444 44.6141 23.6031 44.5747C23.6629 44.5353 23.7184 44.4894 23.7684 44.4391C23.8184 44.3887 23.8641 44.3319 23.9032 44.2728C23.9423 44.2127 23.976 44.1492 24.0032 44.0836C24.0304 44.018 24.0522 43.9491 24.0652 43.8791C24.0793 43.808 24.0869 43.7369 24.0869 43.6658C24.0871 43.5936 24.0793 43.5225 24.0652 43.4514Z" id="Path" fill="#1A407A" stroke="none" />
    <path d="M22.9997 0C10.3176 0 0 10.3797 0 23.1382C0 23.7423 0.486747 24.2319 1.08722 24.2319L1.11516 24.2319C1.40436 24.2319 1.6816 24.116 1.88556 23.9099C2.85035 22.9351 4.13142 22.3984 5.49338 22.3984L5.49533 22.3984C6.85479 22.3989 8.13303 22.9344 9.09511 23.9063C9.1 23.9113 9.10489 23.9163 9.10989 23.9211L15.481 30.3305L9.40811 30.3305C8.80764 30.3305 8.3209 30.8201 8.3209 31.4242L8.3209 37.1095C8.3209 37.5975 8.63858 38.0109 9.07738 38.1516L9.07738 54.9063C9.07738 55.5103 9.56413 56 10.1646 56L35.8356 56C36.4361 56 36.9228 55.5103 36.9228 54.9063L36.9228 38.1518C37.3615 38.011 37.6792 37.5977 37.6792 37.1096L37.6792 31.4243C37.6792 30.8202 37.1925 30.3306 36.592 30.3306L30.5191 30.3306L36.8988 23.9125C36.9001 23.9112 36.9014 23.9098 36.9027 23.9085C37.8651 22.9352 39.1442 22.3989 40.5047 22.3984L40.5065 22.3984C41.8683 22.3984 43.1496 22.9352 44.1143 23.9099C44.3183 24.1161 44.5956 24.2319 44.8847 24.2319L44.9128 24.2319C45.5133 24.2319 46 23.7423 46 23.1382C45.9997 10.3797 35.682 0 22.9997 0ZM22.9997 2.3158C23.3018 2.65989 24.1246 3.9573 24.9365 8.40503C25.5534 11.7844 26.0079 16.187 26.2401 20.9764C25.2453 20.4755 24.1421 20.2109 22.9985 20.2109L22.9959 20.2109C21.854 20.2113 20.7526 20.4757 19.7596 20.9755C19.9917 16.1865 20.4462 11.7843 21.0631 8.40503C21.8749 3.9573 22.6977 2.65989 22.9997 2.3158ZM22.9998 40.9484C23.6003 40.9484 24.0871 40.4587 24.0871 39.8546L24.0871 32.518L25.8697 32.518L25.8697 47.4176L23.399 46.4366C23.2707 46.3857 23.1353 46.3602 22.9998 46.3602C22.8644 46.3602 22.7289 46.3857 22.6007 46.4366L20.13 47.4176L20.13 32.518L21.9126 32.518L21.9126 39.8546C21.9126 40.4587 22.3993 40.9484 22.9998 40.9484ZM8.97584 21.1041C7.92091 20.5212 6.73215 20.2114 5.49609 20.211L5.49327 20.211L5.49327 20.2109C4.36311 20.2109 3.27187 20.4695 2.2862 20.9592C3.1252 12.8248 8.61075 6.05839 16.018 3.39861C15.0787 4.37489 14.1957 5.55341 13.3867 6.92092C11.1609 10.6839 9.61882 15.6633 8.97584 21.1041ZM15.2551 8.0395C16.7336 5.54006 18.4463 3.78809 20.2439 2.8957C19.8159 3.99645 19.4307 5.42981 19.0746 7.22127C18.3542 10.8446 17.8315 15.6945 17.5792 21.0422C15.6043 20.0394 13.231 20.0051 11.1865 20.9403C11.8204 15.9668 13.2381 11.4494 15.2551 8.0395ZM11.5082 23.2404C13.5142 21.9975 16.1573 22.2126 17.8335 23.8911L17.8538 23.9117C18.0578 24.1169 18.3343 24.232 18.6226 24.232L18.6242 24.232C18.9131 24.2316 19.19 24.1155 19.3937 23.9095C20.0952 23.1995 20.9653 22.7221 21.9125 22.5152L21.9125 30.3306L18.5558 30.3306L11.5082 23.2404ZM10.4951 32.518L17.9556 32.518L17.9556 36.0158L10.4951 36.0158L10.4951 32.518ZM34.748 53.8125L11.2514 53.8125L11.2514 38.2034L17.9554 38.2034L17.9554 49.0252C17.9554 49.3872 18.1335 49.7258 18.431 49.9295C18.7286 50.1331 19.1071 50.1756 19.4418 50.0426L22.9997 48.6298L26.5576 50.0426C26.6866 50.0938 26.8219 50.1189 26.9567 50.1189C27.1718 50.1189 27.3853 50.0547 27.5683 49.9295C27.8658 49.7258 28.0439 49.3872 28.0439 49.0252L28.0439 38.2034L34.7479 38.2034L34.7479 53.8125L34.748 53.8125ZM35.5045 32.5181L35.5045 36.0159L28.044 36.0159L28.044 32.5181L35.5045 32.5181ZM27.4436 30.3305L24.0869 30.3305L24.0869 22.5155C25.0337 22.7228 25.9039 23.2002 26.6061 23.9098C26.8099 24.1157 27.0866 24.2315 27.3754 24.2318L27.3766 24.2318C27.665 24.2318 27.9416 24.1165 28.1454 23.9115L28.173 23.8838C29.8477 22.2138 32.4867 22.0019 34.4904 23.2413L27.4436 30.3305ZM28.4203 21.0428C28.168 15.6948 27.6454 10.8446 26.9249 7.22116C26.5687 5.42981 26.1835 3.99634 25.7556 2.8957C27.5531 3.78809 29.2657 5.54006 30.744 8.03928C32.7611 11.4495 34.1788 15.9677 34.8127 20.942C32.768 20.0077 30.3945 20.0414 28.4203 21.0428ZM40.5063 20.2109L40.5037 20.2109C39.2674 20.2113 38.0784 20.5213 37.0234 21.1042C36.3805 15.663 34.8385 10.6839 32.6127 6.9207C31.8038 5.55319 30.9207 4.37478 29.9815 3.3985C37.3897 6.05784 42.8744 12.8241 43.7135 20.9592C42.7277 20.4694 41.6365 20.2109 40.5063 20.2109Z" id="Shape" fill="#1A407A" stroke="none" />
  </g>
</svg>