<?xml version="1.0" encoding="utf-8"?>
<svg width="17.996094px" height="1.9979248px" viewBox="0 0 17.996094 1.9979248" version="1.1" xmlns:xlink="http://www.w3.org/1999/xlink" xmlns="http://www.w3.org/2000/svg">
  <g id="Группа">
    <g id="Группа">
      <path d="M16.996 0L16.999 0Q17.0973 0 17.1937 0.0191753Q17.2901 0.0383506 17.3809 0.0759642Q17.4718 0.113578 17.5535 0.168184Q17.6352 0.222791 17.7047 0.292292Q17.7742 0.361793 17.8288 0.443518Q17.8834 0.525242 17.921 0.616049Q17.9586 0.706857 17.9778 0.803258Q17.997 0.899658 17.997 0.997948L17.997 0.999947Q17.997 1.09824 17.9778 1.19464Q17.9586 1.29104 17.921 1.38185Q17.8834 1.47265 17.8288 1.55438Q17.7742 1.6361 17.7047 1.7056Q17.6352 1.7751 17.5535 1.82971Q17.4718 1.88432 17.3809 1.92193Q17.2901 1.95954 17.1937 1.97872Q17.0973 1.99789 16.999 1.9979L16.996 1.9979Q16.8977 1.99789 16.8013 1.97872Q16.7049 1.95954 16.6141 1.92193Q16.5233 1.88432 16.4416 1.82971Q16.3598 1.7751 16.2903 1.7056Q16.2208 1.6361 16.1662 1.55438Q16.1116 1.47265 16.074 1.38185Q16.0364 1.29104 16.0172 1.19464Q15.998 1.09824 15.998 0.999947L15.998 0.997948Q15.998 0.899658 16.0172 0.803258Q16.0364 0.706857 16.074 0.616049Q16.1116 0.525242 16.1662 0.443518Q16.2208 0.361793 16.2903 0.292292Q16.3598 0.222791 16.4416 0.168184Q16.5233 0.113578 16.6141 0.0759642Q16.7049 0.0383506 16.8013 0.0191753Q16.8977 0 16.996 0Z" id="Rectangle" fill="#1A407A" fill-rule="evenodd" stroke="none" />
      <path d="M8.99599 0L8.99905 0Q9.09734 0 9.19374 0.0191753Q9.29014 0.0383506 9.38094 0.0759642Q9.47175 0.113578 9.55348 0.168184Q9.6352 0.222791 9.7047 0.292292Q9.7742 0.361793 9.82881 0.443518Q9.88342 0.525242 9.92103 0.616049Q9.95864 0.706857 9.97782 0.803258Q9.99699 0.899658 9.99699 0.997948L9.99699 0.999947Q9.99699 1.09824 9.97782 1.19464Q9.95864 1.29104 9.92103 1.38185Q9.88342 1.47265 9.82881 1.55438Q9.7742 1.6361 9.7047 1.7056Q9.6352 1.7751 9.55348 1.82971Q9.47175 1.88432 9.38094 1.92193Q9.29014 1.95954 9.19374 1.97872Q9.09734 1.99789 8.99905 1.9979L8.99599 1.9979Q8.89771 1.99789 8.8013 1.97872Q8.7049 1.95954 8.6141 1.92193Q8.52329 1.88432 8.44156 1.82971Q8.35984 1.7751 8.29034 1.7056Q8.22084 1.6361 8.16623 1.55438Q8.11162 1.47265 8.07401 1.38185Q8.0364 1.29104 8.01722 1.19464Q7.99805 1.09824 7.99805 0.999947L7.99805 0.997948Q7.99805 0.899658 8.01722 0.803258Q8.0364 0.706857 8.07401 0.616049Q8.11162 0.525242 8.16623 0.443518Q8.22084 0.361793 8.29034 0.292292Q8.35984 0.222791 8.44156 0.168184Q8.52329 0.113578 8.6141 0.0759642Q8.7049 0.0383506 8.8013 0.0191753Q8.89771 0 8.99599 0Z" id="Rectangle" fill="#1A407A" fill-rule="evenodd" stroke="none" />
      <path d="M0.997947 0L1.001 0Q1.09929 0 1.19569 0.0191753Q1.29209 0.0383506 1.3829 0.0759642Q1.4737 0.113578 1.55543 0.168184Q1.63715 0.222791 1.70665 0.292292Q1.77616 0.361793 1.83076 0.443518Q1.88537 0.525242 1.92298 0.616049Q1.9606 0.706857 1.97977 0.803258Q1.99895 0.899658 1.99895 0.997948L1.99895 0.999947Q1.99895 1.09824 1.97977 1.19464Q1.9606 1.29104 1.92298 1.38185Q1.88537 1.47265 1.83076 1.55438Q1.77616 1.6361 1.70665 1.7056Q1.63715 1.7751 1.55543 1.82971Q1.4737 1.88432 1.3829 1.92193Q1.29209 1.95954 1.19569 1.97872Q1.09929 1.99789 1.001 1.9979L0.997948 1.9979Q0.899658 1.99789 0.803258 1.97872Q0.706857 1.95954 0.616049 1.92193Q0.525242 1.88432 0.443518 1.82971Q0.361793 1.7751 0.292292 1.7056Q0.222791 1.6361 0.168184 1.55438Q0.113578 1.47265 0.0759642 1.38185Q0.0383506 1.29104 0.0191753 1.19464Q0 1.09824 0 0.999947L0 0.997948Q0 0.899658 0.0191753 0.803258Q0.0383506 0.706857 0.0759642 0.616049Q0.113578 0.525242 0.168184 0.443518Q0.222791 0.361793 0.292292 0.292292Q0.361793 0.222791 0.443518 0.168184Q0.525242 0.113578 0.616049 0.0759642Q0.706857 0.0383506 0.803258 0.0191753Q0.899658 0 0.997948 0L0.997947 0Z" id="Rectangle" fill="#1A407A" fill-rule="evenodd" stroke="none" />
    </g>
  </g>
</svg>