<?xml version="1.0" encoding="utf-8"?>
<svg width="3.9980469px" height="36px" viewBox="0 0 3.9980469 36" version="1.1" xmlns:xlink="http://www.w3.org/1999/xlink" xmlns="http://www.w3.org/2000/svg">
  <g id="Группа" transform="matrix(1 1.7763568E-15 -1.7763568E-15 1 0 0)">
    <g id="Группа" transform="matrix(1 1.7763568E-15 -1.7763568E-15 1 0 0)">
      <path d="M3.99825 2.00187L3.99825 1.99813Q3.99825 1.89996 3.98863 1.80228Q3.97901 1.70459 3.95986 1.60831Q3.94071 1.51204 3.91221 1.4181Q3.88372 1.32417 3.84615 1.23348Q3.80859 1.14279 3.76232 1.05622Q3.71604 0.969645 3.66151 0.888026Q3.60697 0.806408 3.5447 0.730528Q3.48243 0.654648 3.41302 0.585237Q3.3436 0.515826 3.26772 0.453553Q3.19184 0.39128 3.11023 0.336745Q3.02861 0.282209 2.94204 0.235936Q2.85547 0.189663 2.76478 0.152098Q2.67409 0.114533 2.58015 0.0860382Q2.48622 0.0575433 2.38994 0.038393Q2.29367 0.0192426 2.19598 0.00962105Q2.09829 -4.76837e-07 2.00013 -4.76837e-07L1.99813 -4.76837e-07Q1.89996 -4.76837e-07 1.80228 0.00962105Q1.70459 0.0192426 1.60831 0.038393Q1.51204 0.0575433 1.4181 0.0860382Q1.32417 0.114533 1.23348 0.152098Q1.14279 0.189663 1.05622 0.235936Q0.969645 0.282209 0.888027 0.336745Q0.806408 0.39128 0.730528 0.453553Q0.654648 0.515826 0.585237 0.585237Q0.515827 0.654648 0.453554 0.730528Q0.39128 0.806408 0.336745 0.888026Q0.282209 0.969645 0.235936 1.05622Q0.189663 1.14279 0.152098 1.23348Q0.114533 1.32417 0.0860384 1.4181Q0.0575436 1.51204 0.0383932 1.60831Q0.0192428 1.70459 0.00962129 1.80228Q-2.38419e-07 1.89996 -2.38419e-07 1.99813L-2.38419e-07 2.00187Q-2.38419e-07 2.10003 0.00962129 2.19772Q0.0192428 2.29541 0.0383932 2.39169Q0.0575436 2.48796 0.0860384 2.5819Q0.114533 2.67583 0.152098 2.76652Q0.189663 2.85721 0.235936 2.94378Q0.282209 3.03035 0.336745 3.11197Q0.39128 3.19359 0.453554 3.26947Q0.515827 3.34535 0.585237 3.41476Q0.654648 3.48417 0.730528 3.54645Q0.806408 3.60872 0.888027 3.66325Q0.969645 3.71779 1.05622 3.76406Q1.14279 3.81034 1.23348 3.8479Q1.32417 3.88547 1.4181 3.91396Q1.51204 3.94246 1.60831 3.96161Q1.70459 3.98076 1.80228 3.99038Q1.89996 4 1.99813 4L2.00013 4Q2.09829 4 2.19598 3.99038Q2.29367 3.98076 2.38994 3.96161Q2.48622 3.94246 2.58015 3.91396Q2.67409 3.88547 2.76478 3.8479Q2.85547 3.81034 2.94204 3.76406Q3.02861 3.71779 3.11023 3.66325Q3.19184 3.60872 3.26772 3.54645Q3.3436 3.48417 3.41302 3.41476Q3.48243 3.34535 3.5447 3.26947Q3.60697 3.19359 3.66151 3.11197Q3.71604 3.03035 3.76232 2.94378Q3.80859 2.85721 3.84615 2.76652Q3.88372 2.67583 3.91221 2.5819Q3.94071 2.48796 3.95986 2.39169Q3.97901 2.29541 3.98863 2.19772Q3.99825 2.10003 3.99825 2.00187Z" id="Rectangle" fill="#1A407A" fill-rule="evenodd" stroke="none" />
      <path d="M3.99825 18.0019L3.99825 17.9981Q3.99825 17.9 3.98863 17.8023Q3.97901 17.7046 3.95986 17.6083Q3.94071 17.512 3.91221 17.4181Q3.88372 17.3242 3.84615 17.2335Q3.80859 17.1428 3.76232 17.0562Q3.71604 16.9696 3.66151 16.888Q3.60697 16.8064 3.5447 16.7305Q3.48243 16.6546 3.41302 16.5852Q3.3436 16.5158 3.26772 16.4536Q3.19184 16.3913 3.11023 16.3367Q3.02861 16.2822 2.94204 16.2359Q2.85547 16.1897 2.76478 16.1521Q2.67409 16.1145 2.58015 16.086Q2.48622 16.0575 2.38994 16.0384Q2.29367 16.0192 2.19598 16.0096Q2.09829 16 2.00013 16L1.99813 16Q1.89996 16 1.80228 16.0096Q1.70459 16.0192 1.60831 16.0384Q1.51204 16.0575 1.4181 16.086Q1.32417 16.1145 1.23348 16.1521Q1.14279 16.1897 1.05622 16.2359Q0.969645 16.2822 0.888027 16.3367Q0.806408 16.3913 0.730528 16.4536Q0.654648 16.5158 0.585237 16.5852Q0.515827 16.6546 0.453554 16.7305Q0.39128 16.8064 0.336745 16.888Q0.282209 16.9696 0.235936 17.0562Q0.189663 17.1428 0.152098 17.2335Q0.114533 17.3242 0.0860384 17.4181Q0.0575436 17.512 0.0383932 17.6083Q0.0192428 17.7046 0.00962129 17.8023Q-2.38419e-07 17.9 -2.38419e-07 17.9981L-2.38419e-07 18.0019Q-2.38419e-07 18.1 0.00962129 18.1977Q0.0192428 18.2954 0.0383932 18.3917Q0.0575436 18.488 0.0860384 18.5819Q0.114533 18.6758 0.152098 18.7665Q0.189663 18.8572 0.235936 18.9438Q0.282209 19.0304 0.336745 19.112Q0.39128 19.1936 0.453554 19.2695Q0.515827 19.3454 0.585237 19.4148Q0.654648 19.4842 0.730528 19.5464Q0.806408 19.6087 0.888027 19.6633Q0.969645 19.7178 1.05622 19.7641Q1.14279 19.8103 1.23348 19.8479Q1.32417 19.8855 1.4181 19.914Q1.51204 19.9425 1.60831 19.9616Q1.70459 19.9808 1.80228 19.9904Q1.89996 20 1.99813 20L2.00013 20Q2.09829 20 2.19598 19.9904Q2.29367 19.9808 2.38994 19.9616Q2.48622 19.9425 2.58015 19.914Q2.67409 19.8855 2.76478 19.8479Q2.85547 19.8103 2.94204 19.7641Q3.02861 19.7178 3.11023 19.6633Q3.19184 19.6087 3.26772 19.5464Q3.3436 19.4842 3.41302 19.4148Q3.48243 19.3454 3.5447 19.2695Q3.60697 19.1936 3.66151 19.112Q3.71604 19.0304 3.76232 18.9438Q3.80859 18.8572 3.84615 18.7665Q3.88372 18.6758 3.91221 18.5819Q3.94071 18.488 3.95986 18.3917Q3.97901 18.2954 3.98863 18.1977Q3.99825 18.1 3.99825 18.0019Z" id="Rectangle" fill="#1A407A" fill-rule="evenodd" stroke="none" />
      <path d="M3.99825 34.0019L3.99825 33.9981Q3.99825 33.9 3.98863 33.8023Q3.97901 33.7046 3.95986 33.6083Q3.94071 33.512 3.91221 33.4181Q3.88372 33.3242 3.84615 33.2335Q3.80859 33.1428 3.76232 33.0562Q3.71604 32.9696 3.66151 32.888Q3.60697 32.8064 3.5447 32.7305Q3.48243 32.6546 3.41302 32.5852Q3.3436 32.5158 3.26772 32.4536Q3.19184 32.3913 3.11023 32.3367Q3.02861 32.2822 2.94204 32.2359Q2.85547 32.1897 2.76478 32.1521Q2.67409 32.1145 2.58015 32.086Q2.48622 32.0575 2.38994 32.0384Q2.29367 32.0192 2.19598 32.0096Q2.09829 32 2.00013 32L1.99813 32Q1.89996 32 1.80228 32.0096Q1.70459 32.0192 1.60831 32.0384Q1.51204 32.0575 1.4181 32.086Q1.32417 32.1145 1.23348 32.1521Q1.14279 32.1897 1.05622 32.2359Q0.969645 32.2822 0.888027 32.3367Q0.806408 32.3913 0.730528 32.4536Q0.654648 32.5158 0.585237 32.5852Q0.515827 32.6546 0.453554 32.7305Q0.39128 32.8064 0.336745 32.888Q0.282209 32.9696 0.235936 33.0562Q0.189663 33.1428 0.152098 33.2335Q0.114533 33.3242 0.0860384 33.4181Q0.0575436 33.512 0.0383932 33.6083Q0.0192428 33.7046 0.00962129 33.8023Q-2.38419e-07 33.9 -2.38419e-07 33.9981L-2.38419e-07 34.0019Q-2.38419e-07 34.1 0.00962129 34.1977Q0.0192428 34.2954 0.0383932 34.3917Q0.0575436 34.488 0.0860384 34.5819Q0.114533 34.6758 0.152098 34.7665Q0.189663 34.8572 0.235936 34.9438Q0.282209 35.0304 0.336745 35.112Q0.39128 35.1936 0.453554 35.2695Q0.515827 35.3454 0.585237 35.4148Q0.654648 35.4842 0.730528 35.5464Q0.806408 35.6087 0.888027 35.6633Q0.969645 35.7178 1.05622 35.7641Q1.14279 35.8103 1.23348 35.8479Q1.32417 35.8855 1.4181 35.914Q1.51204 35.9425 1.60831 35.9616Q1.70459 35.9808 1.80228 35.9904Q1.89996 36 1.99813 36L2.00013 36Q2.09829 36 2.19598 35.9904Q2.29367 35.9808 2.38994 35.9616Q2.48622 35.9425 2.58015 35.914Q2.67409 35.8855 2.76478 35.8479Q2.85547 35.8103 2.94204 35.7641Q3.02861 35.7178 3.11023 35.6633Q3.19184 35.6087 3.26772 35.5464Q3.3436 35.4842 3.41302 35.4148Q3.48243 35.3454 3.5447 35.2695Q3.60697 35.1936 3.66151 35.112Q3.71604 35.0304 3.76232 34.9438Q3.80859 34.8572 3.84615 34.7665Q3.88372 34.6758 3.91221 34.5819Q3.94071 34.488 3.95986 34.3917Q3.97901 34.2954 3.98863 34.1977Q3.99825 34.1 3.99825 34.0019Z" id="Rectangle" fill="#1A407A" fill-rule="evenodd" stroke="none" />
    </g>
  </g>
</svg>