<?xml version="1.0" encoding="utf-8"?>
<svg width="36px" height="3.9979248px" viewBox="0 0 36 3.9979248" version="1.1" xmlns:xlink="http://www.w3.org/1999/xlink" xmlns="http://www.w3.org/2000/svg">
  <g id="Группа-2">
    <g id="Группа">
      <path d="M33.9979 0L34.0021 0Q34.1002 0 34.1979 0.00962066Q34.2956 0.0192413 34.3918 0.03839Q34.4881 0.0575387 34.582 0.0860309Q34.6759 0.114523 34.7666 0.152085Q34.8573 0.189646 34.9439 0.235915Q35.0304 0.282184 35.112 0.336715Q35.1937 0.391246 35.2695 0.453513Q35.3454 0.515781 35.4148 0.585185Q35.4842 0.65459 35.5465 0.730463Q35.6088 0.806336 35.6633 0.887947Q35.7178 0.969558 35.7641 1.05612Q35.8104 1.14268 35.8479 1.23337Q35.8855 1.32405 35.914 1.41797Q35.9425 1.5119 35.9616 1.60817Q35.9808 1.70443 35.9904 1.80211Q36 1.89979 36 1.99795L36 1.99995Q36 2.0981 35.9904 2.19578Q35.9808 2.29346 35.9616 2.38973Q35.9425 2.48599 35.914 2.57992Q35.8855 2.67385 35.8479 2.76453Q35.8103 2.85521 35.7641 2.94177Q35.7178 3.02834 35.6633 3.10995Q35.6088 3.19156 35.5465 3.26743Q35.4842 3.3433 35.4148 3.41271Q35.3454 3.48211 35.2695 3.54438Q35.1937 3.60665 35.112 3.66118Q35.0304 3.71571 34.9439 3.76198Q34.8573 3.80825 34.7666 3.84581Q34.6759 3.88337 34.582 3.91186Q34.4881 3.94036 34.3918 3.9595Q34.2956 3.97865 34.1979 3.98827Q34.1002 3.99789 34.0021 3.99789L33.9979 3.99789Q33.8998 3.99789 33.8021 3.98827Q33.7044 3.97865 33.6082 3.9595Q33.5119 3.94036 33.418 3.91186Q33.324 3.88337 33.2334 3.84581Q33.1427 3.80825 33.0561 3.76198Q32.9696 3.71571 32.8879 3.66118Q32.8063 3.60665 32.7305 3.54438Q32.6546 3.48211 32.5852 3.41271Q32.5158 3.3433 32.4535 3.26743Q32.3912 3.19156 32.3367 3.10995Q32.2822 3.02834 32.2359 2.94177Q32.1896 2.85521 32.1521 2.76453Q32.1145 2.67385 32.086 2.57992Q32.0575 2.48599 32.0384 2.38973Q32.0192 2.29346 32.0096 2.19578Q32 2.0981 32 1.99995L32 1.99795Q32 1.89979 32.0096 1.80211Q32.0192 1.70443 32.0384 1.60817Q32.0575 1.5119 32.086 1.41797Q32.1145 1.32405 32.1521 1.23337Q32.1896 1.14268 32.2359 1.05612Q32.2822 0.969558 32.3367 0.887947Q32.3912 0.806336 32.4535 0.730463Q32.5158 0.65459 32.5852 0.585185Q32.6546 0.515781 32.7305 0.453513Q32.8063 0.391246 32.8879 0.336715Q32.9696 0.282184 33.0561 0.235915Q33.1427 0.189646 33.2334 0.152085Q33.324 0.114523 33.418 0.0860309Q33.5119 0.0575387 33.6082 0.03839Q33.7044 0.0192413 33.8021 0.00962066Q33.8998 0 33.9979 0Z" id="Rectangle" fill="#1A407A" fill-rule="evenodd" stroke="none" />
      <path d="M17.9979 0L18.0021 0Q18.1002 0 18.1979 0.00962066Q18.2956 0.0192413 18.3918 0.03839Q18.4881 0.0575387 18.582 0.0860309Q18.676 0.114523 18.7666 0.152085Q18.8573 0.189646 18.9439 0.235915Q19.0304 0.282184 19.1121 0.336715Q19.1937 0.391246 19.2695 0.453513Q19.3454 0.515781 19.4148 0.585185Q19.4842 0.65459 19.5465 0.730463Q19.6088 0.806336 19.6633 0.887947Q19.7178 0.969558 19.7641 1.05612Q19.8104 1.14268 19.8479 1.23337Q19.8855 1.32405 19.914 1.41797Q19.9425 1.5119 19.9616 1.60817Q19.9808 1.70443 19.9904 1.80211Q20 1.89979 20 1.99795L20 1.99995Q20 2.0981 19.9904 2.19578Q19.9808 2.29346 19.9616 2.38973Q19.9425 2.48599 19.914 2.57992Q19.8855 2.67385 19.8479 2.76453Q19.8104 2.85521 19.7641 2.94177Q19.7178 3.02834 19.6633 3.10995Q19.6088 3.19156 19.5465 3.26743Q19.4842 3.3433 19.4148 3.41271Q19.3454 3.48211 19.2695 3.54438Q19.1937 3.60665 19.1121 3.66118Q19.0304 3.71571 18.9439 3.76198Q18.8573 3.80825 18.7666 3.84581Q18.676 3.88337 18.582 3.91186Q18.4881 3.94036 18.3918 3.9595Q18.2956 3.97865 18.1979 3.98827Q18.1002 3.99789 18.0021 3.99789L17.9979 3.99789Q17.8998 3.99789 17.8021 3.98827Q17.7044 3.97865 17.6082 3.9595Q17.5119 3.94036 17.418 3.91186Q17.324 3.88337 17.2334 3.84581Q17.1427 3.80825 17.0561 3.76198Q16.9696 3.71571 16.8879 3.66118Q16.8063 3.60665 16.7305 3.54438Q16.6546 3.48211 16.5852 3.41271Q16.5158 3.3433 16.4535 3.26743Q16.3912 3.19156 16.3367 3.10995Q16.2822 3.02834 16.2359 2.94177Q16.1896 2.85521 16.1521 2.76453Q16.1145 2.67385 16.086 2.57992Q16.0575 2.48599 16.0384 2.38973Q16.0192 2.29346 16.0096 2.19578Q16 2.0981 16 1.99995L16 1.99795Q16 1.89979 16.0096 1.80211Q16.0192 1.70443 16.0384 1.60817Q16.0575 1.5119 16.086 1.41797Q16.1145 1.32405 16.1521 1.23337Q16.1896 1.14268 16.2359 1.05612Q16.2822 0.969558 16.3367 0.887947Q16.3912 0.806336 16.4535 0.730463Q16.5158 0.65459 16.5852 0.585185Q16.6546 0.515781 16.7305 0.453513Q16.8063 0.391246 16.8879 0.336715Q16.9696 0.282184 17.0561 0.235915Q17.1427 0.189646 17.2334 0.152085Q17.324 0.114523 17.418 0.0860309Q17.5119 0.0575387 17.6082 0.03839Q17.7044 0.0192413 17.8021 0.00962066Q17.8998 0 17.9979 0Z" id="Rectangle" fill="#1A407A" fill-rule="evenodd" stroke="none" />
      <path d="M1.99795 0L2.00205 0Q2.10021 0 2.19789 0.00962066Q2.29557 0.0192413 2.39183 0.03839Q2.4881 0.0575387 2.58203 0.0860309Q2.67595 0.114523 2.76663 0.152085Q2.85731 0.189646 2.94388 0.235915Q3.03044 0.282184 3.11205 0.336715Q3.19366 0.391246 3.26954 0.453513Q3.34541 0.515781 3.41481 0.585185Q3.48422 0.65459 3.54649 0.730463Q3.60875 0.806336 3.66328 0.887947Q3.71782 0.969558 3.76408 1.05612Q3.81035 1.14268 3.84791 1.23337Q3.88548 1.32405 3.91397 1.41797Q3.94246 1.5119 3.96161 1.60817Q3.98076 1.70443 3.99038 1.80211Q4 1.89979 4 1.99795L4 1.99995Q4 2.0981 3.99038 2.19578Q3.98076 2.29346 3.96161 2.38973Q3.94246 2.48599 3.91397 2.57992Q3.88548 2.67385 3.84791 2.76453Q3.81035 2.85521 3.76408 2.94177Q3.71782 3.02834 3.66328 3.10995Q3.60875 3.19156 3.54649 3.26743Q3.48422 3.3433 3.41481 3.41271Q3.34541 3.48211 3.26954 3.54438Q3.19366 3.60665 3.11205 3.66118Q3.03044 3.71571 2.94388 3.76198Q2.85731 3.80825 2.76663 3.84581Q2.67595 3.88337 2.58203 3.91186Q2.4881 3.94036 2.39183 3.9595Q2.29557 3.97865 2.19789 3.98827Q2.10021 3.99789 2.00205 3.99789L1.99795 3.99789Q1.89979 3.99789 1.80211 3.98827Q1.70443 3.97865 1.60817 3.9595Q1.5119 3.94036 1.41797 3.91186Q1.32405 3.88337 1.23337 3.84581Q1.14268 3.80825 1.05612 3.76198Q0.969558 3.71571 0.887947 3.66118Q0.806336 3.60665 0.730463 3.54438Q0.65459 3.48211 0.585185 3.41271Q0.515781 3.3433 0.453513 3.26743Q0.391246 3.19156 0.336715 3.10995Q0.282184 3.02834 0.235915 2.94177Q0.189646 2.85521 0.152085 2.76453Q0.114523 2.67385 0.0860309 2.57992Q0.0575387 2.48599 0.03839 2.38973Q0.0192413 2.29346 0.00962066 2.19578Q0 2.0981 0 1.99995L0 1.99795Q0 1.89979 0.00962066 1.80211Q0.0192413 1.70443 0.03839 1.60817Q0.0575387 1.5119 0.0860309 1.41797Q0.114523 1.32405 0.152085 1.23337Q0.189646 1.14268 0.235915 1.05612Q0.282184 0.969558 0.336715 0.887947Q0.391246 0.806336 0.453513 0.730463Q0.515781 0.65459 0.585185 0.585185Q0.65459 0.515781 0.730463 0.453513Q0.806336 0.391246 0.887947 0.336715Q0.969558 0.282184 1.05612 0.235915Q1.14268 0.189646 1.23337 0.152085Q1.32405 0.114523 1.41797 0.0860309Q1.5119 0.0575387 1.60817 0.03839Q1.70443 0.0192413 1.80211 0.00962066Q1.89979 0 1.99795 0Z" id="Rectangle" fill="#1A407A" fill-rule="evenodd" stroke="none" />
    </g>
  </g>
</svg>