<?xml version="1.0" encoding="utf-8"?>
<svg width="44px" height="30px" viewBox="0 0 44 30" version="1.1" xmlns:xlink="http://www.w3.org/1999/xlink" xmlns="http://www.w3.org/2000/svg">
  <g id="Group-4">
    <g id="Group-4">
      <path d="M32.8287 14.8456C33.1379 15.3258 33.017 15.9777 32.5586 16.3016L27.5787 19.8206C27.1203 20.1445 26.4981 20.0178 26.1889 19.5376C26.1523 19.4808 26.1218 19.4217 26.0972 19.361C26.0484 19.2629 26.0196 19.1472 26.0168 19.0122L26.0108 18.6653L26.0054 18.1658L26.001 17.3778L26 16.901L26.0004 15.2599C26.0093 14.6958 26.4412 14.2393 26.9824 14.2319C27.5369 14.2243 27.9962 14.6908 28.0083 15.2738L28.0096 16.986L30.37 15.3179L26.3641 11.8404C25.9468 11.4604 25.9026 10.7979 26.2653 10.3607C26.628 9.92358 27.2604 9.87726 27.6777 10.2573L32.4578 14.4401C32.507 14.4849 32.5511 14.5337 32.5898 14.5855C32.6808 14.655 32.7621 14.7421 32.8287 14.8456Z" id="Path" fill="#FFFFFF" fill-rule="evenodd" stroke="none" />
      <path d="M11.1713 14.8456C10.8621 15.3258 10.983 15.9777 11.4414 16.3016L16.4213 19.8206C16.8797 20.1445 17.5019 20.0178 17.8111 19.5376C17.8477 19.4808 17.8782 19.4217 17.9028 19.361C17.9516 19.2629 17.9804 19.1472 17.9832 19.0122L17.9892 18.6653L17.9946 18.1658L17.999 17.3778L18 16.901L17.9996 15.2599C17.9907 14.6958 17.5588 14.2393 17.0176 14.2319C16.4631 14.2243 16.0038 14.6908 15.9917 15.2738L15.9904 16.986L13.63 15.3179L17.6359 11.8404C18.0532 11.4604 18.0974 10.7979 17.7347 10.3607C17.372 9.92358 16.7396 9.87726 16.3223 10.2573L11.5422 14.4401C11.493 14.4849 11.4489 14.5337 11.4102 14.5855C11.3192 14.655 11.2379 14.7421 11.1713 14.8456Z" id="Path" fill="#FFFFFF" fill-rule="evenodd" stroke="none" />
    </g>
  </g>
</svg>