<?xml version="1.0" encoding="utf-8"?>
<svg width="50px" height="37px" viewBox="0 0 50 37" version="1.1" xmlns:xlink="http://www.w3.org/1999/xlink" xmlns="http://www.w3.org/2000/svg">
  <g id="send">
    <g id="send">
      <path d="M49.5845 23.055L44.9262 19.8369L44.9262 14.0643C44.9262 12.2151 43.4171 10.7106 41.5622 10.7106L40.1514 10.7106L40.1514 8.11402C40.1514 6.2648 38.6423 4.76026 36.7873 4.76026L15.8986 4.76026L14.739 2.49965C13.8761 0.817702 12.5617 0 10.7204 0L3.36399 0C1.50913 -9.73687e-05 0 1.50454 0 3.35377L0 33.6462C0 35.4955 1.50913 37 3.36399 37L41.5621 37C43.4171 37 44.9261 35.4956 44.9261 33.6463L44.9261 27.8736L49.5844 24.6556C50.1385 24.2955 50.1385 23.415 49.5845 23.055ZM42.9729 33.6463C42.9729 34.4218 42.34 35.0526 41.5622 35.0526L7.61157 35.0526C7.81071 34.6246 7.92185 34.1483 7.92185 33.6463L7.92185 14.0643C7.92185 13.2888 8.55473 12.6579 9.33254 12.6579L21.0521 12.6579C22.3466 12.61 22.3456 10.758 21.0521 10.7106L9.33254 10.7106C7.47757 10.7106 5.96854 12.2151 5.96854 14.0643L5.96854 33.6463C5.96854 34.4218 5.33567 35.0526 4.55776 35.0526L3.36399 35.0526C2.58619 35.0526 1.95331 34.4218 1.95331 33.6462L1.95331 3.35377C1.95331 2.57823 2.58619 1.94737 3.36399 1.94737L10.7203 1.94737C11.8295 1.94737 12.4686 2.35087 12.9999 3.38629L14.4315 6.17717C14.5984 6.50277 14.9342 6.70753 15.301 6.70753L36.7872 6.70753C37.5651 6.70753 38.198 7.33838 38.198 8.11393L38.198 10.7105L29.8418 10.7105C28.5474 10.7584 28.5483 12.6104 29.8418 12.6578L41.562 12.6578C42.3398 12.6578 42.9727 13.2887 42.9727 14.0642L42.9727 18.4875L39.0198 15.7569C38.7212 15.5507 38.3323 15.5267 38.0105 15.6947C37.6886 15.8627 37.4869 16.195 37.4869 16.5572L37.4869 18.5686L19.5331 18.5686C18.9937 18.5686 18.5565 19.0046 18.5565 19.5423L18.5565 28.1681C18.5565 28.7057 18.9937 29.1418 19.5331 29.1418L37.4871 29.1418L37.4871 31.1531C37.4871 31.5153 37.6888 31.8476 38.0107 32.0156C38.3317 32.1835 38.7208 32.16 39.02 31.9534L42.9729 29.223L42.9729 33.6463ZM39.4404 29.294L39.4404 28.1682C39.4404 27.6305 39.0032 27.1945 38.4637 27.1945L20.5098 27.1945L20.5098 20.5161L38.4637 20.5161C39.0032 20.5161 39.4404 20.08 39.4404 19.5424L39.4404 18.4165L47.3134 23.8552L39.4404 29.294Z" id="Shape" fill="#FFFFFF" stroke="none" />
      <path d="M25.4474 12.6578C26.7418 12.6099 26.7408 10.7579 25.4474 10.7105L25.4467 10.7105C24.1521 10.7586 24.154 12.6106 25.4474 12.6578Z" id="Path" fill="#FFFFFF" fill-rule="evenodd" stroke="none" />
    </g>
  </g>
</svg>