<?xml version="1.0" encoding="utf-8"?>
<svg width="56px" height="56px" viewBox="0 0 56 56" version="1.1" xmlns:xlink="http://www.w3.org/1999/xlink" xmlns="http://www.w3.org/2000/svg">
  <g id="ship">
    <path d="M54.9061 53.8125C53.1739 53.8125 51.5053 53.0811 50.3286 51.8061C50.1214 51.5818 49.8301 51.4542 49.5248 51.4542C49.2195 51.4542 48.9282 51.5818 48.721 51.8061C47.5443 53.0811 45.8759 53.8125 44.1437 53.8125C42.4114 53.8125 40.743 53.0812 39.5662 51.8061C39.3592 51.5818 39.0677 51.4542 38.7624 51.4542C38.4572 51.4542 38.1657 51.5818 37.9586 51.8061C36.782 53.0812 35.1136 53.8125 33.3812 53.8125C31.6489 53.8125 29.9804 53.0811 28.8036 51.8061C28.5965 51.5818 28.3051 51.4542 27.9999 51.4542C27.6946 51.4542 27.4032 51.5818 27.1961 51.8061C26.0195 53.0811 24.351 53.8125 22.6187 53.8125C20.8863 53.8125 19.2179 53.0812 18.0412 51.8061C17.8341 51.5818 17.5426 51.4542 17.2374 51.4542C16.9321 51.4542 16.6406 51.5818 16.4336 51.8061C15.2569 53.0812 13.5885 53.8125 11.8563 53.8125C10.124 53.8125 8.45547 53.0811 7.27871 51.8061C7.07155 51.5818 6.78018 51.4542 6.47491 51.4542C6.16965 51.4542 5.87827 51.5818 5.67112 51.8061C4.49458 53.0811 2.82606 53.8125 1.09379 53.8125C0.489821 53.8125 4.11619e-05 54.3023 4.11619e-05 54.9063C4.11619e-05 55.5102 0.489821 56 1.09379 56C3.06374 56 4.97232 55.3004 6.47502 54.0525C7.97772 55.3004 9.88642 56 11.8563 56C13.8263 56 15.7347 55.3005 17.2374 54.0525C18.7402 55.3005 20.6487 56 22.6187 56C24.5887 56 26.4973 55.3004 28 54.0525C29.5027 55.3004 31.4112 56 33.3812 56C35.3513 56 37.2597 55.3005 38.7624 54.0525C40.2652 55.3005 42.1736 56 44.1437 56C46.1136 56 48.0222 55.3004 49.5249 54.0525C51.0276 55.3004 52.9362 56 54.9061 56C55.5101 56 55.9999 55.5102 55.9999 54.9063C55.9999 54.3023 55.5101 53.8125 54.9061 53.8125Z" id="Path" fill="#1A407A" stroke="none" />
    <path d="M54.9059 47.8917C53.1736 47.8917 51.5051 47.1603 50.3284 45.8852C50.1213 45.6609 49.8298 45.5332 49.5246 45.5332C49.2193 45.5332 48.9278 45.6609 48.7208 45.8852C47.544 47.1603 45.8755 47.8917 44.1432 47.8917C42.4109 47.8917 40.7425 47.1603 39.5658 45.8852C39.3587 45.6609 39.0673 45.5332 38.762 45.5332C38.4567 45.5332 38.1652 45.6609 37.9582 45.8852C36.7814 47.1603 35.1129 47.8917 33.3806 47.8917C31.6484 47.8917 29.9799 47.1603 28.8031 45.8852C28.5961 45.6609 28.3046 45.5332 27.9993 45.5332C27.694 45.5332 27.4026 45.6609 27.1955 45.8852C26.0187 47.1603 24.3502 47.8917 22.618 47.8917C20.8857 47.8917 19.2172 47.1603 18.0404 45.8852C17.8334 45.6609 17.5419 45.5332 17.2366 45.5332C16.9314 45.5332 16.6399 45.6609 16.4328 45.8852C15.2561 47.1603 13.5877 47.8917 11.8554 47.8917C10.1231 47.8917 8.45459 47.1603 7.27783 45.8852C7.07079 45.6609 6.7793 45.5332 6.47404 45.5332C6.16877 45.5332 5.87729 45.6609 5.67024 45.8852C4.49457 47.1604 2.82606 47.8917 1.09379 47.8917C0.489821 47.8917 4.11619e-05 48.3815 4.11619e-05 48.9855C4.11619e-05 49.5894 0.489821 50.0792 1.09379 50.0792C3.06384 50.0792 4.97232 49.3796 6.47502 48.1316C7.97772 49.3796 9.8862 50.0792 11.8563 50.0792C13.8262 50.0792 15.7347 49.3796 17.2374 48.1316C18.7401 49.3796 20.6486 50.0792 22.6186 50.0792C24.5887 50.0792 26.4972 49.3796 27.9999 48.1316C29.5025 49.3796 31.411 50.0792 33.3811 50.0792C35.3511 50.0792 37.2596 49.3796 38.7623 48.1316C40.265 49.3796 42.1735 50.0792 44.1434 50.0792C46.1135 50.0792 48.022 49.3796 49.5247 48.1316C51.0274 49.3796 52.9359 50.0792 54.9059 50.0792C55.5099 50.0792 55.9997 49.5894 55.9997 48.9855C55.9997 48.3815 55.5099 47.8917 54.9059 47.8917Z" id="Path" fill="#1A407A" stroke="none" />
    <path d="M55.815 27.4007C55.612 27.0975 55.2711 26.9154 54.9061 26.9154L49.7821 26.9154L46.415 18.0945C46.2533 17.6706 45.8467 17.3907 45.3932 17.3907L33.197 17.3907L29.3872 11.2369C29.1878 10.9148 28.8359 10.7189 28.4571 10.7189L23.0781 10.7189L23.0781 8.09375L30.9531 8.09375C31.3955 8.09375 31.7943 7.8272 31.9636 7.41858C32.1328 7.00995 32.0392 6.53942 31.7265 6.22661L29.5468 4.04688L31.7266 1.86714C32.0393 1.55433 32.1329 1.0838 31.9637 0.675172C31.7943 0.266547 31.3955 0 30.9531 0L21.9844 0C21.3804 0 20.8906 0.489672 20.8906 1.09375L20.8906 7L20.8906 10.7188L13.3438 10.7188C12.7398 10.7188 12.25 11.2084 12.25 11.8125L12.25 17.3906L7.00002 17.3906C6.39605 17.3906 5.90627 17.8803 5.90627 18.4844L5.90627 26.9153L1.09379 26.9153C0.728805 26.9153 0.387993 27.0973 0.184884 27.4006C-0.018115 27.7039 -0.0565056 28.0885 0.0824003 28.4258L5.98874 42.7585C6.21887 43.3171 6.85827 43.5832 7.41674 43.3532C7.97521 43.1231 8.24142 42.4837 8.01141 41.9252L2.72752 29.1029L7.8188 29.1029L12.5704 33.8545C12.7756 34.0596 13.0537 34.1749 13.3438 34.1749L35.1565 34.1749C35.4465 34.1749 35.7247 34.0596 35.9298 33.8545L40.6814 29.1029L53.2724 29.1029L52.014 32.1566C52.0124 32.1566 52.0108 32.1564 52.0091 32.1564L45.1718 32.1564C44.5678 32.1564 44.078 32.6461 44.078 33.2501C44.078 33.8541 44.5678 34.3439 45.1718 34.3439L51.1128 34.3439L47.9886 41.9252C47.7585 42.4836 48.0247 43.123 48.5833 43.3532C48.7196 43.4094 48.8607 43.436 48.9996 43.436C49.4295 43.436 49.8373 43.1808 50.0113 42.7586L55.9175 28.4259C56.0565 28.0886 56.0181 27.704 55.815 27.4007ZM23.0781 2.1875L28.3124 2.1875L27.2265 3.27348C26.7994 3.70059 26.7994 4.39316 27.2266 4.82027L28.3124 5.90625L23.0781 5.90625L23.0781 2.1875ZM40.2282 26.9153C39.9381 26.9153 39.66 27.0306 39.4548 27.2357L34.7032 31.9873L13.7968 31.9873L9.04522 27.2357C8.84003 27.0306 8.56189 26.9153 8.27183 26.9153L8.09377 26.9153L8.09377 19.5781L19.177 19.5781C19.781 19.5781 20.2708 19.0885 20.2708 18.4844C20.2708 17.8803 19.781 17.3906 19.177 17.3906L14.4375 17.3906L14.4375 12.9063L27.8479 12.9063L30.6241 17.3906L28.4009 17.3906C27.797 17.3906 27.3072 17.8803 27.3072 18.4844C27.3072 19.0885 27.797 19.5781 28.4009 19.5781L32.5862 19.5781C32.587 19.5781 32.5879 19.5782 32.5887 19.5782C32.5894 19.5782 32.5903 19.5781 32.591 19.5781L44.6398 19.5781L47.4404 26.9153L40.2282 26.9153L40.2282 26.9153Z" id="Shape" fill="#1A407A" stroke="none" />
    <path d="M24.5809 17.7111C24.3775 17.5077 24.0953 17.3906 23.8076 17.3906C23.5189 17.3906 23.2378 17.5077 23.0343 17.7111C22.8298 17.9145 22.7139 18.1967 22.7139 18.4844C22.7139 18.772 22.8298 19.0542 23.0343 19.2577C23.2378 19.4611 23.5189 19.5781 23.8076 19.5781C24.0953 19.5781 24.3775 19.4611 24.5809 19.2577C24.7842 19.0542 24.9014 18.772 24.9014 18.4844C24.9014 18.1967 24.7843 17.9145 24.5809 17.7111Z" id="Path" fill="#1A407A" stroke="none" />
    <path d="M41.9812 32.4767C41.7778 32.2733 41.4956 32.1563 41.2079 32.1563C40.9203 32.1563 40.6382 32.2732 40.4347 32.4767C40.2313 32.6802 40.1142 32.9623 40.1142 33.25C40.1142 33.5377 40.2312 33.8198 40.4347 34.0232C40.6381 34.2266 40.9203 34.3438 41.2079 34.3438C41.4956 34.3438 41.7778 34.2267 41.9812 34.0232C42.1845 33.8198 42.3017 33.5377 42.3017 33.25C42.3017 32.9623 42.1847 32.6802 41.9812 32.4767Z" id="Path" fill="#1A407A" stroke="none" />
    <path d="M43.203 23.0781L36.6169 23.0781C36.013 23.0781 35.5232 23.5678 35.5232 24.1719C35.5232 24.776 36.013 25.2656 36.6169 25.2656L43.203 25.2656C43.807 25.2656 44.2968 24.776 44.2968 24.1719C44.2968 23.5678 43.807 23.0781 43.203 23.0781Z" id="Path" fill="#1A407A" stroke="none" />
    <path d="M18.5964 21.2225C16.4267 21.2225 14.6616 22.9876 14.6616 25.1572C14.6616 27.3269 16.4268 29.092 18.5964 29.092C20.766 29.092 22.5312 27.3269 22.5312 25.1572C22.5312 22.9876 20.766 21.2225 18.5964 21.2225ZM18.5964 26.9046C17.6329 26.9046 16.8491 26.1207 16.8491 25.1573C16.8491 24.194 17.633 23.4101 18.5964 23.4101C19.5598 23.4101 20.3437 24.194 20.3437 25.1573C20.3437 26.1207 19.5598 26.9046 18.5964 26.9046Z" id="Shape" fill="#1A407A" stroke="none" />
    <path d="M29.7453 21.2196C27.5749 21.2196 25.8091 22.9854 25.8091 25.1558C25.8091 27.3263 27.5748 29.092 29.7453 29.092C31.9157 29.092 33.6814 27.3263 33.6814 25.1558C33.6814 22.9854 31.9156 21.2196 29.7453 21.2196ZM29.7453 26.9045C28.781 26.9045 27.9966 26.1201 27.9966 25.1558C27.9966 24.1916 28.781 23.4071 29.7453 23.4071C30.7095 23.4071 31.4939 24.1916 31.4939 25.1558C31.4939 26.1201 30.7095 26.9045 29.7453 26.9045Z" id="Shape" fill="#1A407A" stroke="none" />
  </g>
</svg>