<?xml version="1.0" encoding="utf-8"?>
<svg width="30px" height="30px" viewBox="0 0 30 30" version="1.1" xmlns:xlink="http://www.w3.org/1999/xlink" xmlns="http://www.w3.org/2000/svg">
  <g id="telegram">
    <g id="telegram">
      <path d="M29.2434 0.756941C28.5545 0.0678227 27.5509 -0.173524 26.6241 0.127237L1.78368 8.1893C0.809597 8.50547 0.132711 9.33416 0.0171625 10.352C-0.0983863 11.3701 0.375645 12.3296 1.25433 12.8561C1.31902 12.8949 1.38734 12.9273 1.45818 12.953L8.89631 15.6424L8.90358 23.6633C8.90458 24.7164 9.54027 25.6412 10.5233 26.0192C11.4911 26.3945 12.5954 26.1424 13.3042 25.3559C13.3057 25.3542 13.3074 25.3523 13.3089 25.3506L15.8819 22.4715L20.2015 28.7781C20.7282 29.6376 21.6966 30.0979 22.682 29.9825C23.6999 29.8678 24.5289 29.1912 24.8457 28.2168C24.8596 28.1741 24.871 28.1308 24.8798 28.0869L25.6685 24.1898C25.7968 23.5555 25.3866 22.9371 24.7523 22.8088C24.1179 22.6803 23.4996 23.0906 23.3713 23.725L22.601 27.5312C22.5656 27.6028 22.5048 27.6439 22.4195 27.6535C22.3204 27.6644 22.2433 27.6266 22.1918 27.5404C22.1794 27.5197 22.1664 27.4993 22.1528 27.4794L17.3674 20.4928L24.2353 7.7625C24.4843 7.30102 24.3964 6.73032 24.0201 6.3651C23.6436 5.99995 23.0705 5.92911 22.6169 6.1919L9.94276 13.5285L2.40378 10.8026C2.35679 10.7543 2.3374 10.6919 2.34601 10.6164C2.35738 10.5162 2.41164 10.4496 2.5072 10.4186L27.3476 2.35654C27.4384 2.32725 27.5184 2.34647 27.5857 2.41391C27.6537 2.48188 27.673 2.56279 27.6432 2.65438C27.6294 2.69703 27.618 2.74033 27.6091 2.78422L24.5246 18.0259C24.3963 18.6602 24.8065 19.2785 25.4408 19.4069C26.0748 19.5355 26.6935 19.1251 26.8218 18.4907L29.895 3.30529C30.1607 2.3985 29.9146 1.42848 29.2434 0.756941L29.2434 0.756941ZM20.2056 10.2959L15.0052 19.9354L11.5641 23.7858C11.5379 23.8147 11.479 23.8757 11.3647 23.8317C11.2476 23.7866 11.2475 23.6987 11.2475 23.6612L11.2401 15.4857L20.2056 10.2959Z" id="Shape" fill="#049BE5" stroke="none" />
    </g>
  </g>
</svg>