<?xml version="1.0" encoding="utf-8"?>
<svg width="114px" height="81px" viewBox="0 0 114 81" version="1.1" xmlns:xlink="http://www.w3.org/1999/xlink" xmlns="http://www.w3.org/2000/svg">
  <defs>
    <path d="M20 40C31.0457 40 40 31.0457 40 20C40 8.9543 31.0457 0 20 0C8.9543 0 0 8.9543 0 20C0 31.0457 8.9543 40 20 40Z" id="path_1" />
  </defs>
  <g id="Группа-2" transform="translate(0 -1.6000977)">
    <g id="Группа" transform="translate(0 1.6000977)">
      <g id="Group" transform="translate(0 10)">
        <path d="M105.112 0C110.025 0 114 3.97347 114 8.875L114 62.125C114 67.0265 110.025 71 105.122 71C104.53 71 103.961 70.9441 103.411 70.8373C102.484 70.7301 101.532 70.3944 100.574 69.7788L96.9978 67.4539L93.3052 65.0166C90.2582 62.9949 86.6772 60.5968 82.5622 57.8223L78.1126 54.8163C73.9585 52.1468 72.7779 46.6502 75.4756 42.5395C78.1732 38.4287 83.7276 37.2604 87.8816 39.9299L96.2352 45.5452L96.2333 24.5048L48.3497 55.2786C42.9174 50.5496 36.8674 47.4055 30.2422 45.75L99.144 1.47161C100.721 0.458385 102.499 -0.00196901 104.246 0.0415839C104.53 0.0141106 104.819 0 105.112 0ZM41.101 59.937L26.1765 69.5284C24.7592 70.4393 23.1788 70.9033 21.6044 70.9561C21.3174 70.9857 21.0267 71 20.7326 71C15.8189 71 11.8442 67.0265 11.8442 62.125L11.8445 50.6154C22.2113 51.8213 31.9492 54.9336 41.101 59.937ZM20.7326 0C25.6357 0 29.6104 3.97347 29.6104 8.875L29.6098 18.5642L56.2089 1.47161C60.3629 -1.19796 65.9173 -0.0296309 68.615 4.08114C71.3126 8.1919 70.132 13.6884 65.978 16.358L29.6098 39.7295L29.6099 45.597C24.0757 44.3001 18.1455 44.0284 11.8436 44.7267L11.8442 8.875C11.8442 4.08003 15.6479 0.173198 20.4035 0.00560218L20.7326 0Z" id="Shape" fill="#FFFFFF" fill-rule="evenodd" stroke="none" />
        <path d="M0 48.5825C22.557 42.2772 44.2553 45.7307 59.2208 71C42.2209 55.9177 22.6456 48.1386 0 48.5825Z" id="Path" fill="#FB3C09" fill-rule="evenodd" stroke="none" />
      </g>
      <g id="Group-2" transform="translate(43 0)">
        <g id="Oval">
          <use xlink:href="#path_1" fill="none" stroke="#1A407A" stroke-width="3.2" />
          <use stroke="none" fill="#FB3C09" xlink:href="#path_1" fill-rule="evenodd" />
        </g>
        <g id="check" transform="translate(10 13)">
          <path d="M19.5353 0.451941C18.9165 -0.150837 17.9116 -0.150457 17.292 0.451941L7.19574 10.274L2.70838 5.90875C2.08875 5.30597 1.08435 5.30597 0.464721 5.90875C-0.154907 6.51153 -0.154907 7.48862 0.464721 8.09139L6.07367 13.5478C6.38329 13.849 6.78928 14 7.19531 14C7.60134 14 8.00772 13.8494 8.31733 13.5478L19.5353 2.63455C20.1549 2.03219 20.1549 1.05468 19.5353 0.451941Z" id="Path" fill="#FFFFFF" fill-rule="evenodd" stroke="none" />
        </g>
      </g>
    </g>
  </g>
</svg>