<?xml version="1.0" encoding="utf-8"?>
<svg width="30px" height="32px" viewBox="0 0 30 32" version="1.1" xmlns:xlink="http://www.w3.org/1999/xlink" xmlns="http://www.w3.org/2000/svg">
  <g id="viber-logo">
    <path d="M14.9791 0.00671479C20.4399 -0.10156 24.4725 1.10004 26.9667 3.57993C28.9795 5.58147 30 8.40479 30 11.9715L30 16.1865C30 20.0548 29.0034 22.8976 26.9533 24.8775C25.0035 26.7605 22.1639 27.855 18.0173 28.322C17.979 28.3264 17.9405 28.3285 17.9022 28.3285L13.138 28.3285L9.82308 31.6903C9.61955 31.8968 9.35264 32 9.08586 32C8.81908 32 8.55216 31.8967 8.34864 31.6903C7.94145 31.2773 7.94145 30.6078 8.34864 30.1949L11.9688 26.5235C12.1643 26.3251 12.4295 26.2138 12.706 26.2138L17.8439 26.2138C25.0896 25.3848 27.9146 22.5695 27.9146 16.1866L27.9146 11.9715C27.9146 8.95209 27.1269 6.70115 25.5066 5.08986C23.4275 3.02248 19.9031 2.02277 15.02 2.1209C4.24911 2.33575 2.08528 6.04939 2.08528 11.9715L2.08528 16.1866C2.08528 20.071 4.10022 24.5313 7.83441 25.1464C8.40286 25.24 8.78877 25.7832 8.69647 26.3596C8.60416 26.9362 8.06866 27.3281 7.50021 27.2338C2.5763 26.4227 0 21.0624 0 16.1866L0 11.9715C0 7.84143 1.07906 5.01965 3.39595 3.09128C5.79222 1.09665 9.47289 0.116541 14.9791 0.00671479ZM15.6512 6.90643L15.6507 6.90643C15.0749 6.90643 14.6081 6.433 14.608 5.84919C14.608 5.26524 15.0747 4.79182 15.6505 4.79182L15.6512 4.79182C17.8884 4.79182 19.9915 5.67522 21.5734 7.27961C23.1554 8.884 24.0266 11.0172 24.0265 13.2862C24.0265 13.8701 23.5597 14.3434 22.9839 14.3434L22.9837 14.3434C22.4079 14.3434 21.9412 13.87 21.9412 13.286C21.9414 11.582 21.287 9.97986 20.0988 8.77487C18.9107 7.57003 17.3312 6.90643 15.6512 6.90643ZM10.7029 13.9061C10.378 13.4241 10.5 12.7661 10.9753 12.4365C11.1411 12.3216 11.2163 12.2557 11.2494 12.2187C11.0617 11.625 9.83628 9.93347 9.36626 9.62824C9.33456 9.62049 9.28883 9.61894 9.20569 9.64714C8.81644 9.78022 8.30513 10.0405 8.08756 10.5219C7.8839 10.9725 8.00888 11.4853 8.14957 11.836C9.04721 14.0694 10.2991 16.0199 11.8701 17.6326C13.4516 19.2168 15.3749 20.4863 17.578 21.3972C17.923 21.5395 18.4283 21.6661 18.8731 21.4597C19.3478 21.2389 19.6043 20.7205 19.7358 20.3245C19.7636 20.24 19.762 20.1937 19.7546 20.1632C19.4542 19.6867 17.7852 18.4432 17.2 18.253C17.1629 18.2864 17.0981 18.3628 16.9846 18.531C16.6595 19.0131 16.0108 19.1366 15.5354 18.8068C15.0601 18.477 14.9384 17.8191 15.2634 17.3371C15.519 16.958 16.117 16.0716 17.3112 16.1325C18.0302 16.1721 19.0528 16.8273 19.7848 17.3699C20.8553 18.1636 21.5004 18.8475 21.7017 19.4026C21.8891 19.9137 21.8931 20.4515 21.7124 20.9981C21.335 22.1343 20.6538 22.9581 19.7418 23.382C19.3072 23.584 18.8408 23.685 18.3556 23.685C17.8497 23.685 17.3234 23.5751 16.7914 23.3556C14.3328 22.3391 12.1814 20.9169 10.3957 19.128C8.62223 17.3076 7.21981 15.1256 6.21804 12.6333C5.79389 11.5755 5.78485 10.5408 6.19176 9.64051C6.60965 8.71566 7.42208 8.0247 8.54104 7.64236C9.08127 7.45852 9.61191 7.4626 10.1193 7.6542C10.6628 7.85693 11.3373 8.51095 12.1199 9.59681C12.655 10.3389 13.3011 11.376 13.34 12.1024C13.4014 13.3159 12.5259 13.923 12.1521 14.1821C11.6768 14.5116 11.0278 14.3881 10.7029 13.9061ZM15.6505 10.6247C17.0974 10.625 18.2747 11.8188 18.2749 13.286C18.275 13.87 18.7417 14.3434 19.3176 14.3433C19.8936 14.3433 20.3603 13.8697 20.3602 13.2858C20.3597 10.6528 18.2472 8.51039 15.6507 8.50997L15.6506 8.50997C15.0748 8.50997 14.6081 8.98325 14.608 9.5672C14.608 10.1512 15.0747 10.6247 15.6505 10.6247Z" id="Combined-Shape" fill="#774E9A" fill-rule="evenodd" stroke="none" />
  </g>
</svg>