<?xml version="1.0" encoding="utf-8"?>
<svg width="30px" height="23px" viewBox="0 0 30 23" version="1.1" xmlns:xlink="http://www.w3.org/1999/xlink" xmlns="http://www.w3.org/2000/svg">
  <path d="M29.85 20.387L28.8174 17.9517C27.9169 15.7926 26.7279 13.9253 25.2754 12.3868C27.184 10.8539 29.0993 8.18331 29.0993 3.64092L29.0993 1.87779C29.0993 0.842374 28.2599 0 27.2282 0L23.7143 0C22.6825 0 21.8431 0.842374 21.8431 1.87779L21.8431 3.64092C21.8431 4.95158 21.6009 5.8033 21.0575 6.40248C20.6776 6.82155 20.1144 7.15348 19.3766 7.39426L19.3766 0.888944C19.3766 0.39802 18.98 4.17802e-16 18.4908 4.17802e-16L11.9114 4.17802e-16C10.5941 4.17802e-16 9.52253 1.0754 9.52253 2.39729C9.52253 3.51226 10.2774 4.4713 11.3583 4.72949L11.6461 4.79823C11.9254 4.86491 12.1204 5.11269 12.1204 5.40076L12.1204 14.5341C11.3328 13.9927 10.5974 13.2752 9.9512 12.4121C8.21327 10.0907 7.25614 6.97566 7.25614 3.6408L7.25614 1.87779C7.25614 0.842374 6.41673 0 5.38496 0L1.87112 0C0.83935 0 0 0.842374 0 1.87779L0 3.64092C0 8.64171 1.53017 13.3803 4.30884 16.9835C7.30067 20.8633 11.3634 23 15.7485 23L17.5055 23C18.5372 23 19.3766 22.1576 19.3766 21.1222L19.3766 16.7968C20.512 17.7779 21.4338 19.1081 22.1241 20.7642L22.5755 21.8469C22.8675 22.5474 23.545 22.9999 24.3017 22.9999L28.128 22.9999C28.758 22.9999 29.3414 22.6852 29.689 22.1579C30.0365 21.6306 30.0967 20.9686 29.85 20.387ZM28.211 21.1772C28.1815 21.2221 28.1427 21.2221 28.128 21.2221L24.3017 21.2221C24.2615 21.2221 24.2254 21.198 24.2099 21.1608L23.7586 20.0781C22.7762 17.7214 21.3644 15.9153 19.5626 14.7097C19.3583 14.573 19.1484 14.445 18.9208 14.3181C18.7869 14.2435 18.6388 14.2063 18.4908 14.2063C18.3353 14.2063 18.18 14.2473 18.0415 14.3291C17.771 14.4888 17.605 14.7803 17.605 15.0952L17.605 21.1222C17.605 21.1772 17.5603 21.222 17.5055 21.222L15.7485 21.222C11.9238 21.222 8.35875 19.3303 5.70998 15.8954C3.17037 12.602 1.77175 8.24987 1.77175 3.64086L1.77175 1.87779C1.77175 1.82275 1.81639 1.77795 1.87124 1.77795L5.38502 1.77795C5.43987 1.77795 5.48451 1.82275 5.48451 1.87779L5.48451 3.64092C5.48451 7.35845 6.56779 10.8527 8.53465 13.4801C9.69503 15.03 11.1213 16.1965 12.6592 16.8534C12.9327 16.9703 13.2465 16.9416 13.4946 16.777C13.7427 16.6124 13.892 16.3339 13.892 16.0354L13.892 5.40081C13.892 4.28578 13.1371 3.32669 12.0562 3.06856L11.7684 2.99988C11.4892 2.93314 11.2941 2.6853 11.2941 2.39729C11.2941 2.05578 11.571 1.77789 11.9113 1.77789L17.6049 1.77789L17.6049 8.52788C17.6049 8.79154 17.7216 9.04161 17.9233 9.21049C18.125 9.37936 18.3911 9.44992 18.6495 9.40247C20.3063 9.09965 21.5575 8.49283 22.3679 7.59895C23.2302 6.64791 23.6148 5.42727 23.6148 3.64086L23.6148 1.87773C23.6148 1.82269 23.6594 1.77789 23.7143 1.77789L27.2281 1.77789C27.2829 1.77789 27.3276 1.82269 27.3276 1.87773L27.3276 3.64086C27.3276 8.09311 25.2073 10.3886 23.4286 11.5304C23.1971 11.6789 23.0475 11.9268 23.0234 12.2015C22.9994 12.4762 23.1038 12.7464 23.3059 12.9332C24.9236 14.4279 26.2283 16.348 27.1838 18.64C27.1845 18.6417 27.1852 18.6433 27.1859 18.645L28.2197 21.0831C28.2253 21.0966 28.2405 21.1325 28.211 21.1772Z" id="Shape" fill="#FFFFFF" stroke="none" />
</svg>