<?xml version="1.0" encoding="utf-8"?>
<svg width="32px" height="20px" viewBox="0 0 32 20" version="1.1" xmlns:xlink="http://www.w3.org/1999/xlink" xmlns="http://www.w3.org/2000/svg">
  <g id="vk">
    <g id="vk">
      <path d="M16.1932 20C20.8224 20 19.1718 17.0693 19.5291 16.2267C19.5238 15.5973 19.5185 14.992 19.5398 14.624C19.8331 14.7067 20.5251 15.0573 21.9544 16.4467C24.1611 18.6733 24.7251 20 26.5077 20L29.789 20C30.829 20 31.3703 19.5693 31.641 19.208C31.9023 18.8587 32.1583 18.2453 31.8783 17.2907C31.1463 14.992 26.877 11.0227 26.6117 10.604C26.6517 10.5267 26.7157 10.424 26.749 10.3707L26.7464 10.3707C27.589 9.25733 30.805 4.43867 31.2783 2.51067C31.2797 2.508 31.281 2.504 31.281 2.5C31.537 1.62 31.3023 1.04933 31.0597 0.726667C30.6943 0.244 30.113 1.18424e-15 29.3277 1.18424e-15L26.0464 1.18424e-15C24.9477 1.18424e-15 24.1144 0.553333 23.6931 1.56267C22.9877 3.356 21.0064 7.044 19.5211 8.34933C19.4758 6.5 19.5065 5.088 19.5305 4.03867C19.5785 1.992 19.7331 0 17.6091 0L12.4519 0C11.1212 0 9.84789 1.45333 11.2265 3.17867C12.4319 4.69067 11.6599 5.53333 11.9199 9.728C10.9065 8.64133 9.1039 5.70667 7.82925 1.956C7.47192 0.941333 6.93059 0.00133333 5.40661 0.00133333L2.12531 0.00133333C0.794658 0.00133333 0 0.726667 0 1.94133C0 4.66933 6.0386 20 16.1932 20ZM5.40661 2.00133C5.69594 2.00133 5.72527 2.00133 5.93993 2.61067C7.24525 6.45467 10.1732 12.1427 12.3119 12.1427C13.9185 12.1427 13.9185 10.496 13.9185 9.876L13.9172 4.94C13.8292 3.30667 13.2345 2.49333 12.8439 2L17.5211 2.00533C17.5238 2.028 17.4945 7.46533 17.5345 8.78267C17.5345 10.6533 19.0198 11.7253 21.3384 9.37867C23.7851 6.61733 25.4771 2.48933 25.5451 2.32133C25.6451 2.08133 25.7317 2 26.0464 2L29.3277 2L29.341 2C29.3397 2.004 29.3397 2.008 29.3383 2.012C29.0383 3.412 26.077 7.87333 25.0864 9.25867C25.0704 9.28 25.0557 9.30267 25.0411 9.32533C24.6051 10.0373 24.2504 10.824 25.1011 11.9307L25.1024 11.9307C25.1797 12.024 25.3811 12.2427 25.6744 12.5467C26.5864 13.488 29.7143 16.7067 29.9917 17.9867C29.8077 18.016 29.6077 17.9947 26.5077 18.0013C25.8477 18.0013 25.3317 17.0147 23.3624 15.028C21.5918 13.3053 20.4424 12.6013 19.3958 12.6013C17.3638 12.6013 17.5118 14.2507 17.5305 16.2453C17.5371 18.408 17.5238 17.724 17.5385 17.86C17.4198 17.9067 17.0798 18 16.1932 18C7.73325 18 2.22398 4.572 2.01198 2.00533C2.08531 1.99867 3.09463 2.00267 5.40661 2.00133L5.40661 2.00133Z" id="Shape" fill="#4C75A3" stroke="none" />
    </g>
  </g>
</svg>