<?xml version="1.0" encoding="utf-8"?>
<svg width="30px" height="30px" viewBox="0 0 30 30" version="1.1" xmlns:xlink="http://www.w3.org/1999/xlink" xmlns="http://www.w3.org/2000/svg">
  <g id="Shape">
    <path d="M14.9998 30L14.9938 30C12.6533 29.9991 10.3326 29.4422 8.25302 28.3855L1.8425 29.8553C1.45134 29.9449 1.04164 29.8265 0.756912 29.5416C0.472183 29.2567 0.35202 28.8446 0.43808 28.4496L1.82716 22.0854C0.633774 19.8639 0.00366211 17.4308 0.000228882 15.0183C0 15.01 0 15.0017 0 14.9937C0.00160218 10.9957 1.57013 7.23059 4.41627 4.39197C7.25601 1.55981 11.0145 0 14.9995 0C18.9935 0.00161495 22.746 1.56281 25.567 4.39566C28.4271 7.26797 30.0014 11.0361 30 15.0057C29.9989 18.0055 29.1064 20.9048 27.4194 23.3898C27.0538 23.9282 26.3246 24.066 25.7904 23.6975C25.2564 23.3291 25.1196 22.5941 25.4851 22.0556C26.9044 19.9649 27.6551 17.5268 27.6562 15.0047C27.6574 11.668 26.328 8.49464 23.9129 6.06921C21.5341 3.68024 18.3685 2.36383 14.9991 2.36244C8.03123 2.36244 2.3584 8.01707 2.34375 14.9724C2.34375 14.98 2.34398 14.9874 2.34398 14.9948C2.34306 17.1478 2.94388 19.3307 4.08119 21.3076C4.22836 21.5635 4.27505 21.8655 4.21188 22.1541L3.12401 27.1385L8.15369 25.9852C8.43132 25.9218 8.72246 25.9622 8.97285 26.099C10.8105 27.1046 12.8927 27.6366 14.9943 27.6376L14.9995 27.6376C17.2849 27.6376 19.5293 27.0147 21.4899 25.8364C22.0457 25.5021 22.765 25.6855 23.0965 26.2459C23.4279 26.8063 23.2462 27.5312 22.6902 27.8655C20.3668 29.2617 17.7074 30 14.9995 30L14.9998 30ZM11.6901 8.9902C11.4331 8.4162 11.1626 8.39659 10.9181 8.38667L10.2605 8.38667C10.0317 8.38667 9.65996 8.47295 9.3457 8.81786C9.03122 9.16276 8.14476 9.99654 8.14476 11.6925C8.14476 13.3884 9.37431 15.0273 9.54574 15.2576C9.71741 15.4874 11.9195 19.0788 15.4067 20.4605C18.3051 21.6087 18.8949 21.3803 19.5238 21.3226C20.153 21.2654 21.554 20.4891 21.8397 19.6842C22.1258 18.8795 22.1258 18.1896 22.0399 18.0454C21.9543 17.902 21.7255 17.8157 21.3824 17.6433C21.039 17.471 19.3575 16.6227 19.043 16.5078C18.7285 16.3929 18.4998 16.3354 18.2709 16.6806C18.0421 17.0253 17.3682 17.8224 17.168 18.0521C16.9679 18.2826 16.7677 18.3112 16.4246 18.1389C16.0815 17.9659 14.9876 17.5956 13.6768 16.4215C12.6567 15.5077 11.949 14.3426 11.7487 13.9975C11.5485 13.6528 11.7272 13.4659 11.8993 13.294C12.0534 13.1397 12.2619 12.9286 12.4335 12.7274C12.6047 12.5262 12.6537 12.3825 12.7679 12.1525C12.8824 11.9225 12.8252 11.7213 12.7396 11.5487C12.6537 11.3764 11.995 9.6717 11.6899 8.9902" id="Shape" fill="#4CAF50" stroke="none" />
  </g>
</svg>