<?xml version="1.0" encoding="utf-8"?>
<svg width="500px" height="348.00012px" viewBox="0 0 500 348.00012" version="1.1" xmlns:xlink="http://www.w3.org/1999/xlink" xmlns="http://www.w3.org/2000/svg">
  <g id="Group">
    <g id="Group" transform="matrix(1 -1.7484555E-07 1.7484555E-07 1 0 0.00012207031)" opacity="0.04">
      <path d="M43.4773 -2.27374e-13L43.4793 -2.27374e-13Q44.5466 -2.27374e-13 45.6126 0.0523703Q46.6786 0.104741 47.7408 0.209355Q48.8029 0.313969 49.8587 0.470576Q50.9144 0.627182 51.9612 0.835403Q53.008 1.04362 54.0434 1.30296Q55.0787 1.56229 56.1 1.87212Q57.1214 2.18194 58.1263 2.5415Q59.1312 2.90107 60.1173 3.30951Q61.1033 3.71795 62.0682 4.17428Q63.033 4.63061 63.9743 5.13374Q64.9156 5.63686 65.831 6.18557Q66.7465 6.73427 67.6339 7.32724Q68.5214 7.9202 69.3786 8.556Q70.2359 9.19179 71.0609 9.86888Q71.886 10.546 72.6768 11.2627Q73.4676 11.9795 74.2223 12.7342Q74.977 13.4889 75.6938 14.2797Q76.4105 15.0705 77.0876 15.8956Q77.7647 16.7206 78.4005 17.5779Q79.0363 18.4352 79.6293 19.3226Q80.2222 20.21 80.7709 21.1255Q81.3196 22.0409 81.8228 22.9822Q82.3259 23.9235 82.7822 24.8883Q83.2386 25.8532 83.647 26.8392Q84.0554 27.8253 84.415 28.8302Q84.7746 29.8351 85.0844 30.8565Q85.3942 31.8778 85.6535 32.9131Q85.9129 33.9485 86.1211 34.9953Q86.3293 36.0421 86.4859 37.0978Q86.6425 38.1536 86.7472 39.2157Q86.8518 40.2779 86.9042 41.3439Q86.9565 42.41 86.9565 43.4773L86.9565 304.523Q86.9565 305.59 86.9042 306.656Q86.8518 307.722 86.7472 308.784Q86.6425 309.846 86.4859 310.902Q86.3293 311.958 86.1211 313.005Q85.9129 314.052 85.6535 315.087Q85.3942 316.122 85.0844 317.143Q84.7746 318.165 84.415 319.17Q84.0554 320.175 83.647 321.161Q83.2386 322.147 82.7822 323.112Q82.3259 324.076 81.8228 325.018Q81.3196 325.959 80.7709 326.874Q80.2222 327.79 79.6293 328.677Q79.0363 329.565 78.4005 330.422Q77.7647 331.279 77.0876 332.104Q76.4105 332.929 75.6938 333.72Q74.977 334.511 74.2223 335.266Q73.4676 336.02 72.6768 336.737Q71.886 337.454 71.0609 338.131Q70.2359 338.808 69.3786 339.444Q68.5214 340.08 67.6339 340.673Q66.7465 341.266 65.831 341.814Q64.9156 342.363 63.9743 342.866Q63.033 343.369 62.0682 343.826Q61.1033 344.282 60.1173 344.69Q59.1312 345.099 58.1263 345.458Q57.1214 345.818 56.1 346.128Q55.0787 346.438 54.0434 346.697Q53.008 346.956 51.9613 347.165Q50.9145 347.373 49.8587 347.529Q48.8029 347.686 47.7408 347.791Q46.6786 347.895 45.6126 347.948Q44.5466 348 43.4793 348L43.4773 348Q42.41 348 41.3439 347.948Q40.2779 347.895 39.2157 347.791Q38.1536 347.686 37.0978 347.529Q36.0421 347.373 34.9953 347.165Q33.9485 346.956 32.9131 346.697Q31.8778 346.438 30.8565 346.128Q29.8351 345.818 28.8302 345.458Q27.8253 345.099 26.8392 344.69Q25.8532 344.282 24.8883 343.826Q23.9235 343.369 22.9822 342.866Q22.0409 342.363 21.1255 341.814Q20.21 341.266 19.3226 340.673Q18.4352 340.08 17.5779 339.444Q16.7206 338.808 15.8956 338.131Q15.0705 337.454 14.2797 336.737Q13.4889 336.02 12.7342 335.266Q11.9795 334.511 11.2627 333.72Q10.546 332.929 9.86888 332.104Q9.19179 331.279 8.556 330.422Q7.9202 329.565 7.32724 328.677Q6.73427 327.79 6.18557 326.874Q5.63686 325.959 5.13374 325.018Q4.63061 324.076 4.17428 323.112Q3.71795 322.147 3.30951 321.161Q2.90107 320.175 2.5415 319.17Q2.18194 318.165 1.87212 317.143Q1.56229 316.122 1.30296 315.087Q1.04362 314.052 0.835403 313.005Q0.627182 311.958 0.470576 310.902Q0.313969 309.846 0.209355 308.784Q0.104741 307.722 0.0523703 306.656Q0 305.59 0 304.523L0 43.4773Q0 42.41 0.0523703 41.3439Q0.104741 40.2779 0.209355 39.2157Q0.313969 38.1536 0.470576 37.0978Q0.627182 36.0421 0.835403 34.9953Q1.04362 33.9485 1.30296 32.9131Q1.56229 31.8778 1.87212 30.8565Q2.18194 29.8351 2.5415 28.8302Q2.90107 27.8253 3.30951 26.8392Q3.71795 25.8532 4.17428 24.8883Q4.63061 23.9235 5.13374 22.9822Q5.63686 22.0409 6.18557 21.1255Q6.73427 20.21 7.32724 19.3226Q7.9202 18.4352 8.556 17.5779Q9.19179 16.7206 9.86888 15.8956Q10.546 15.0705 11.2627 14.2797Q11.9795 13.4889 12.7342 12.7342Q13.4889 11.9795 14.2797 11.2627Q15.0705 10.546 15.8956 9.86888Q16.7206 9.19179 17.5779 8.556Q18.4352 7.9202 19.3226 7.32724Q20.21 6.73427 21.1255 6.18557Q22.0409 5.63686 22.9822 5.13374Q23.9235 4.63061 24.8883 4.17428Q25.8532 3.71795 26.8392 3.30951Q27.8253 2.90107 28.8302 2.5415Q29.8351 2.18194 30.8565 1.87212Q31.8778 1.56229 32.9131 1.30296Q33.9485 1.04362 34.9953 0.835403Q36.0421 0.627182 37.0978 0.470576Q38.1536 0.313969 39.2157 0.209355Q40.2779 0.104741 41.3439 0.0523703Q42.41 -2.27374e-13 43.4773 -2.27374e-13Z" id="Rectangle" fill="#FFFFFF" fill-rule="evenodd" stroke="none" />
      <path d="M456.521 -2.27374e-13L456.523 -2.27374e-13Q457.59 -2.27374e-13 458.656 0.0523703Q459.722 0.104741 460.784 0.209355Q461.846 0.313969 462.902 0.470576Q463.958 0.627182 465.005 0.835403Q466.051 1.04362 467.087 1.30296Q468.122 1.56229 469.143 1.87212Q470.165 2.18194 471.17 2.5415Q472.175 2.90107 473.161 3.30951Q474.147 3.71795 475.112 4.17428Q476.076 4.63061 477.018 5.13374Q477.959 5.63686 478.874 6.18557Q479.79 6.73427 480.677 7.32724Q481.565 7.9202 482.422 8.556Q483.279 9.19179 484.104 9.86888Q484.929 10.546 485.72 11.2627Q486.511 11.9795 487.266 12.7342Q488.02 13.4889 488.737 14.2797Q489.454 15.0705 490.131 15.8956Q490.808 16.7206 491.444 17.5779Q492.08 18.4352 492.673 19.3226Q493.266 20.21 493.814 21.1255Q494.363 22.0409 494.866 22.9822Q495.369 23.9235 495.826 24.8883Q496.282 25.8532 496.69 26.8392Q497.099 27.8253 497.458 28.8302Q497.818 29.8351 498.128 30.8565Q498.438 31.8778 498.697 32.9131Q498.956 33.9485 499.165 34.9953Q499.373 36.0421 499.529 37.0978Q499.686 38.1536 499.791 39.2157Q499.895 40.2779 499.948 41.3439Q500 42.41 500 43.4773L500 304.523Q500 305.59 499.948 306.656Q499.895 307.722 499.791 308.784Q499.686 309.846 499.529 310.902Q499.373 311.958 499.165 313.005Q498.956 314.052 498.697 315.087Q498.438 316.122 498.128 317.143Q497.818 318.165 497.458 319.17Q497.099 320.175 496.69 321.161Q496.282 322.147 495.826 323.112Q495.369 324.076 494.866 325.018Q494.363 325.959 493.814 326.874Q493.266 327.79 492.673 328.677Q492.08 329.565 491.444 330.422Q490.808 331.279 490.131 332.104Q489.454 332.929 488.737 333.72Q488.02 334.511 487.266 335.266Q486.511 336.02 485.72 336.737Q484.929 337.454 484.104 338.131Q483.279 338.808 482.422 339.444Q481.565 340.08 480.677 340.673Q479.79 341.266 478.874 341.814Q477.959 342.363 477.018 342.866Q476.076 343.369 475.112 343.826Q474.147 344.282 473.161 344.69Q472.175 345.099 471.17 345.458Q470.165 345.818 469.143 346.128Q468.122 346.438 467.087 346.697Q466.051 346.956 465.005 347.165Q463.958 347.373 462.902 347.529Q461.846 347.686 460.784 347.791Q459.722 347.895 458.656 347.948Q457.59 348 456.523 348L456.521 348Q455.453 348 454.387 347.948Q453.321 347.895 452.259 347.791Q451.197 347.686 450.141 347.529Q449.086 347.373 448.039 347.165Q446.992 346.956 445.957 346.697Q444.921 346.438 443.9 346.128Q442.879 345.818 441.874 345.458Q440.869 345.099 439.883 344.69Q438.897 344.282 437.932 343.826Q436.967 343.369 436.026 342.866Q435.084 342.363 434.169 341.814Q433.253 341.266 432.366 340.673Q431.479 340.08 430.621 339.444Q429.764 338.808 428.939 338.131Q428.114 337.454 427.323 336.737Q426.532 336.02 425.778 335.266Q425.023 334.511 424.306 333.72Q423.589 332.929 422.912 332.104Q422.235 331.279 421.599 330.422Q420.964 329.565 420.371 328.677Q419.778 327.79 419.229 326.874Q418.68 325.959 418.177 325.018Q417.674 324.076 417.218 323.112Q416.761 322.147 416.353 321.161Q415.945 320.175 415.585 319.17Q415.225 318.165 414.916 317.143Q414.606 316.122 414.346 315.087Q414.087 314.052 413.879 313.005Q413.671 311.958 413.514 310.902Q413.357 309.846 413.253 308.784Q413.148 307.722 413.096 306.656Q413.043 305.59 413.043 304.523L413.043 43.4773Q413.043 42.41 413.096 41.3439Q413.148 40.2779 413.253 39.2157Q413.357 38.1536 413.514 37.0978Q413.671 36.0421 413.879 34.9953Q414.087 33.9485 414.346 32.9131Q414.606 31.8778 414.916 30.8565Q415.225 29.8351 415.585 28.8302Q415.945 27.8253 416.353 26.8392Q416.761 25.8532 417.218 24.8883Q417.674 23.9235 418.177 22.9822Q418.68 22.0409 419.229 21.1255Q419.778 20.21 420.371 19.3226Q420.964 18.4352 421.599 17.5779Q422.235 16.7206 422.912 15.8956Q423.589 15.0705 424.306 14.2797Q425.023 13.4889 425.778 12.7342Q426.532 11.9795 427.323 11.2627Q428.114 10.546 428.939 9.86888Q429.764 9.19179 430.621 8.556Q431.479 7.9202 432.366 7.32724Q433.253 6.73427 434.169 6.18557Q435.084 5.63686 436.026 5.13374Q436.967 4.63061 437.932 4.17428Q438.897 3.71795 439.883 3.30951Q440.869 2.90107 441.874 2.5415Q442.879 2.18194 443.9 1.87212Q444.921 1.56229 445.957 1.30296Q446.992 1.04362 448.039 0.835403Q449.086 0.627182 450.141 0.470576Q451.197 0.313969 452.259 0.209355Q453.321 0.104741 454.387 0.0523703Q455.453 -2.27374e-13 456.521 -2.27374e-13Z" id="Rectangle" fill="#FFFFFF" fill-rule="evenodd" stroke="none" />
      <path d="M488.009 20.0033C501.212 40.1519 495.434 67.0927 475.102 80.1773L70.1496 340.787C49.8179 353.872 22.6322 348.145 9.42858 327.997C-3.775 307.848 2.0035 280.907 22.3352 267.823L427.288 7.21294C447.619 -5.87168 474.805 -0.145233 488.009 20.0033Z" id="Rectangle" fill="#FFFFFF" fill-rule="evenodd" stroke="none" />
      <path d="M277.864 20.0033C291.067 40.1519 285.289 67.0927 264.957 80.1773L39.087 225.537L36.2402 123.634L217.143 7.21294C237.474 -5.87168 264.66 -0.145233 277.864 20.0033Z" id="Rectangle" fill="#FFFFFF" fill-rule="evenodd" stroke="none" />
      <path d="M311.443 208.503C298.239 228.652 304.018 255.593 324.35 268.677C324.35 268.677 400.056 319.985 434.286 342.014C475.346 368.439 514.078 289.629 490.961 274.752C453.777 250.822 372.164 195.713 372.164 195.713C351.832 182.628 324.646 188.355 311.443 208.503Z" id="Rectangle" fill="#FFFFFF" fill-rule="evenodd" stroke="none" />
    </g>
  </g>
</svg>