<?xml version="1.0" encoding="utf-8"?>
<svg width="1920px" height="540px" viewBox="0 0 1920 540" version="1.1" xmlns:xlink="http://www.w3.org/1999/xlink" xmlns="http://www.w3.org/2000/svg">
  <defs>
    <path d="M0 0L1920 0L1920 420.001Q1920 421.719 1919.92 423.436Q1919.83 425.152 1919.66 426.862Q1919.49 428.572 1919.24 430.272Q1918.99 431.972 1918.65 433.657Q1918.32 435.342 1917.9 437.009Q1917.48 438.676 1916.99 440.321Q1916.49 441.965 1915.91 443.583Q1915.33 445.201 1914.67 446.788Q1914.01 448.376 1913.28 449.929Q1912.54 451.483 1911.73 452.998Q1910.92 454.514 1910.04 455.988Q1909.16 457.462 1908.2 458.89Q1907.25 460.319 1906.22 461.699Q1905.2 463.08 1904.11 464.408Q1903.02 465.736 1901.87 467.009Q1900.71 468.283 1899.5 469.498Q1898.28 470.713 1897.01 471.867Q1895.74 473.021 1894.41 474.111Q1893.08 475.201 1891.7 476.225Q1890.32 477.248 1888.89 478.203Q1887.46 479.158 1885.99 480.041Q1884.51 480.925 1883 481.735Q1881.48 482.545 1879.93 483.279Q1878.38 484.014 1876.79 484.672Q1875.2 485.329 1873.58 485.908Q1871.96 486.487 1870.32 486.986Q1868.68 487.485 1867.01 487.902Q1865.34 488.32 1863.66 488.655Q1861.97 488.99 1860.27 489.242Q1858.57 489.495 1856.86 489.663Q1855.15 489.831 1853.44 489.916Q1851.72 490 1850 490L1459.83 490Q1458.14 490 1456.46 490.081Q1454.78 490.162 1453.11 490.323Q1451.43 490.485 1449.77 490.727Q1448.1 490.969 1446.45 491.29Q1444.8 491.612 1443.16 492.013Q1441.53 492.414 1439.91 492.892Q1438.3 493.371 1436.71 493.927Q1435.12 494.483 1433.56 495.114Q1432 495.746 1430.47 496.452Q1428.95 497.158 1427.45 497.936Q1425.96 498.714 1424.51 499.563Q1423.06 500.413 1421.65 501.331Q1420.23 502.249 1418.87 503.234Q1417.5 504.218 1416.19 505.268Q1414.87 506.317 1413.61 507.428Q1412.34 508.54 1411.14 509.71L1379.85 540L1348.57 509.71Q1347.36 508.54 1346.1 507.428Q1344.83 506.317 1343.52 505.268Q1342.2 504.219 1340.84 503.234Q1339.47 502.249 1338.06 501.331Q1336.65 500.413 1335.2 499.564Q1333.74 498.714 1332.25 497.936Q1330.76 497.158 1329.23 496.452Q1327.7 495.746 1326.14 495.114Q1324.58 494.483 1322.99 493.927Q1321.41 493.371 1319.79 492.892Q1318.18 492.414 1316.54 492.013Q1314.91 491.612 1313.26 491.291Q1311.61 490.969 1309.94 490.727Q1308.27 490.485 1306.6 490.323Q1304.92 490.162 1303.24 490.081Q1301.56 490 1299.88 490L0 490L0 0Z" id="path_1" />
    <clipPath id="mask_1">
      <use xlink:href="#path_1" />
    </clipPath>
  </defs>
  <g id="Rectangle-2">
    <path d="M0 0L1920 0L1920 420.001Q1920 421.719 1919.92 423.436Q1919.83 425.152 1919.66 426.862Q1919.49 428.572 1919.24 430.272Q1918.99 431.972 1918.65 433.657Q1918.32 435.342 1917.9 437.009Q1917.48 438.676 1916.99 440.321Q1916.49 441.965 1915.91 443.583Q1915.33 445.201 1914.67 446.788Q1914.01 448.376 1913.28 449.929Q1912.54 451.483 1911.73 452.998Q1910.92 454.514 1910.04 455.988Q1909.16 457.462 1908.2 458.89Q1907.25 460.319 1906.22 461.699Q1905.2 463.08 1904.11 464.408Q1903.02 465.736 1901.87 467.009Q1900.71 468.283 1899.5 469.498Q1898.28 470.713 1897.01 471.867Q1895.74 473.021 1894.41 474.111Q1893.08 475.201 1891.7 476.225Q1890.32 477.248 1888.89 478.203Q1887.46 479.158 1885.99 480.041Q1884.51 480.925 1883 481.735Q1881.48 482.545 1879.93 483.279Q1878.38 484.014 1876.79 484.672Q1875.2 485.329 1873.58 485.908Q1871.96 486.487 1870.32 486.986Q1868.68 487.485 1867.01 487.902Q1865.34 488.32 1863.66 488.655Q1861.97 488.99 1860.27 489.242Q1858.57 489.495 1856.86 489.663Q1855.15 489.831 1853.44 489.916Q1851.72 490 1850 490L1459.83 490Q1458.14 490 1456.46 490.081Q1454.78 490.162 1453.11 490.323Q1451.43 490.485 1449.77 490.727Q1448.1 490.969 1446.45 491.29Q1444.8 491.612 1443.16 492.013Q1441.53 492.414 1439.91 492.892Q1438.3 493.371 1436.71 493.927Q1435.12 494.483 1433.56 495.114Q1432 495.746 1430.47 496.452Q1428.95 497.158 1427.45 497.936Q1425.96 498.714 1424.51 499.563Q1423.06 500.413 1421.65 501.331Q1420.23 502.249 1418.87 503.234Q1417.5 504.218 1416.19 505.268Q1414.87 506.317 1413.61 507.428Q1412.34 508.54 1411.14 509.71L1379.85 540L1348.57 509.71Q1347.36 508.54 1346.1 507.428Q1344.83 506.317 1343.52 505.268Q1342.2 504.219 1340.84 503.234Q1339.47 502.249 1338.06 501.331Q1336.65 500.413 1335.2 499.564Q1333.74 498.714 1332.25 497.936Q1330.76 497.158 1329.23 496.452Q1327.7 495.746 1326.14 495.114Q1324.58 494.483 1322.99 493.927Q1321.41 493.371 1319.79 492.892Q1318.18 492.414 1316.54 492.013Q1314.91 491.612 1313.26 491.291Q1311.61 490.969 1309.94 490.727Q1308.27 490.485 1306.6 490.323Q1304.92 490.162 1303.24 490.081Q1301.56 490 1299.88 490L0 490L0 0Z" id="Rectangle" fill="#1A407A" fill-rule="evenodd" stroke="none" />
  </g>
</svg>