<?xml version="1.0" encoding="utf-8"?>
<svg width="3.9980469px" height="1950px" viewBox="0 0 3.9980469 1950" version="1.1" xmlns:xlink="http://www.w3.org/1999/xlink" xmlns="http://www.w3.org/2000/svg">
  <g id="Group-8">
    <g id="Group-8" transform="matrix(-4.371139E-08 1 1 4.371139E-08 0 0)">
      <path d="M49.9981 0L1948 0Q1948.1 0 1948.2 0.00962152Q1948.3 0.019243 1948.39 0.0383934Q1948.49 0.0575438 1948.58 0.0860386Q1948.68 0.114533 1948.77 0.152098Q1948.86 0.189663 1948.94 0.235936Q1949.03 0.282209 1949.11 0.336745Q1949.19 0.391281 1949.27 0.453554Q1949.35 0.515827 1949.41 0.585238Q1949.48 0.654648 1949.55 0.730528Q1949.61 0.806408 1949.66 0.888027Q1949.72 0.969645 1949.76 1.05622Q1949.81 1.14279 1949.85 1.23348Q1949.89 1.32417 1949.91 1.4181Q1949.94 1.51204 1949.96 1.60831Q1949.98 1.70459 1949.99 1.80228Q1950 1.89997 1950 1.99813L1950 2.00013Q1950 2.09829 1949.99 2.19598Q1949.98 2.29367 1949.96 2.38994Q1949.94 2.48622 1949.91 2.58015Q1949.89 2.67409 1949.85 2.76478Q1949.81 2.85547 1949.76 2.94204Q1949.72 3.02861 1949.66 3.11023Q1949.61 3.19184 1949.55 3.26772Q1949.48 3.3436 1949.41 3.41302Q1949.35 3.48243 1949.27 3.5447Q1949.19 3.60697 1949.11 3.66151Q1949.03 3.71604 1948.94 3.76232Q1948.86 3.80859 1948.77 3.84615Q1948.68 3.88372 1948.58 3.91221Q1948.49 3.94071 1948.39 3.95986Q1948.3 3.97901 1948.2 3.98863Q1948.1 3.99825 1948 3.99825L49.9981 3.99825Q49.9 3.99825 49.8023 3.98863Q49.7046 3.97901 49.6083 3.95986Q49.512 3.94071 49.4181 3.91221Q49.3242 3.88372 49.2335 3.84615Q49.1428 3.80859 49.0562 3.76232Q48.9696 3.71604 48.888 3.66151Q48.8064 3.60697 48.7305 3.5447Q48.6546 3.48243 48.5852 3.41302Q48.5158 3.3436 48.4535 3.26772Q48.3913 3.19184 48.3367 3.11023Q48.2822 3.02861 48.2359 2.94204Q48.1897 2.85547 48.1521 2.76478Q48.1145 2.67409 48.086 2.58015Q48.0575 2.48622 48.0384 2.38994Q48.0192 2.29367 48.0096 2.19598Q48 2.09829 48 2.00013L48 1.99813Q48 1.89997 48.0096 1.80228Q48.0192 1.70459 48.0384 1.60831Q48.0575 1.51204 48.086 1.4181Q48.1145 1.32417 48.1521 1.23348Q48.1897 1.14279 48.2359 1.05622Q48.2822 0.969645 48.3367 0.888027Q48.3913 0.806408 48.4535 0.730528Q48.5158 0.654648 48.5852 0.585238Q48.6546 0.515827 48.7305 0.453554Q48.8064 0.391281 48.888 0.336745Q48.9696 0.282209 49.0562 0.235936Q49.1428 0.189663 49.2335 0.152098Q49.3242 0.114533 49.4181 0.0860386Q49.512 0.0575438 49.6083 0.0383934Q49.7046 0.019243 49.8023 0.00962152Q49.9 0 49.9981 0Z" id="Rectangle" fill="#1A407A" fill-rule="evenodd" stroke="none" />
      <path d="M33.9981 0L34.0019 0Q34.1 0 34.1977 0.00962152Q34.2954 0.019243 34.3917 0.0383934Q34.488 0.0575438 34.5819 0.0860386Q34.6758 0.114533 34.7665 0.152098Q34.8572 0.189663 34.9438 0.235936Q35.0304 0.282209 35.112 0.336745Q35.1936 0.391281 35.2695 0.453554Q35.3454 0.515827 35.4148 0.585238Q35.4842 0.654648 35.5464 0.730528Q35.6087 0.806408 35.6633 0.888027Q35.7178 0.969645 35.7641 1.05622Q35.8103 1.14279 35.8479 1.23348Q35.8855 1.32417 35.914 1.4181Q35.9425 1.51204 35.9616 1.60831Q35.9808 1.70459 35.9904 1.80228Q36 1.89997 36 1.99813L36 2.00013Q36 2.09829 35.9904 2.19598Q35.9808 2.29367 35.9616 2.38994Q35.9425 2.48622 35.914 2.58015Q35.8855 2.67409 35.8479 2.76478Q35.8103 2.85547 35.7641 2.94204Q35.7178 3.02861 35.6633 3.11023Q35.6087 3.19184 35.5464 3.26772Q35.4842 3.3436 35.4148 3.41302Q35.3454 3.48243 35.2695 3.5447Q35.1936 3.60697 35.112 3.66151Q35.0304 3.71604 34.9438 3.76232Q34.8572 3.80859 34.7665 3.84615Q34.6758 3.88372 34.5819 3.91221Q34.488 3.94071 34.3917 3.95986Q34.2954 3.97901 34.1977 3.98863Q34.1 3.99825 34.0019 3.99825L33.9981 3.99825Q33.9 3.99825 33.8023 3.98863Q33.7046 3.97901 33.6083 3.95986Q33.512 3.94071 33.4181 3.91221Q33.3242 3.88372 33.2335 3.84615Q33.1428 3.80859 33.0562 3.76232Q32.9696 3.71604 32.888 3.66151Q32.8064 3.60697 32.7305 3.5447Q32.6546 3.48243 32.5852 3.41302Q32.5158 3.3436 32.4536 3.26772Q32.3913 3.19184 32.3367 3.11023Q32.2822 3.02861 32.2359 2.94204Q32.1897 2.85547 32.1521 2.76478Q32.1145 2.67409 32.086 2.58015Q32.0575 2.48622 32.0384 2.38994Q32.0192 2.29367 32.0096 2.19598Q32 2.09829 32 2.00013L32 1.99813Q32 1.89997 32.0096 1.80228Q32.0192 1.70459 32.0384 1.60831Q32.0575 1.51204 32.086 1.4181Q32.1145 1.32417 32.1521 1.23348Q32.1897 1.14279 32.2359 1.05622Q32.2822 0.969645 32.3367 0.888027Q32.3913 0.806408 32.4536 0.730528Q32.5158 0.654648 32.5852 0.585238Q32.6546 0.515827 32.7305 0.453554Q32.8064 0.391281 32.888 0.336745Q32.9696 0.282209 33.0562 0.235936Q33.1428 0.189663 33.2335 0.152098Q33.3242 0.114533 33.4181 0.0860386Q33.512 0.0575438 33.6083 0.0383934Q33.7046 0.019243 33.8023 0.00962152Q33.9 0 33.9981 0Z" id="Rectangle" fill="#1A407A" fill-rule="evenodd" stroke="none" />
      <path d="M17.9981 0L18.0019 0Q18.1 0 18.1977 0.00962152Q18.2954 0.019243 18.3917 0.0383934Q18.488 0.0575438 18.5819 0.0860386Q18.6758 0.114533 18.7665 0.152098Q18.8572 0.189663 18.9438 0.235936Q19.0304 0.282209 19.112 0.336745Q19.1936 0.391281 19.2695 0.453554Q19.3454 0.515827 19.4148 0.585238Q19.4842 0.654648 19.5464 0.730528Q19.6087 0.806408 19.6633 0.888027Q19.7178 0.969645 19.7641 1.05622Q19.8103 1.14279 19.8479 1.23348Q19.8855 1.32417 19.914 1.4181Q19.9425 1.51204 19.9616 1.60831Q19.9808 1.70459 19.9904 1.80228Q20 1.89997 20 1.99813L20 2.00013Q20 2.09829 19.9904 2.19598Q19.9808 2.29367 19.9616 2.38994Q19.9425 2.48622 19.914 2.58015Q19.8855 2.67409 19.8479 2.76478Q19.8103 2.85547 19.7641 2.94204Q19.7178 3.02861 19.6633 3.11023Q19.6087 3.19184 19.5464 3.26772Q19.4842 3.3436 19.4148 3.41302Q19.3454 3.48243 19.2695 3.5447Q19.1936 3.60697 19.112 3.66151Q19.0304 3.71604 18.9438 3.76232Q18.8572 3.80859 18.7665 3.84615Q18.6758 3.88372 18.5819 3.91221Q18.488 3.94071 18.3917 3.95986Q18.2954 3.97901 18.1977 3.98863Q18.1 3.99825 18.0019 3.99825L17.9981 3.99825Q17.9 3.99825 17.8023 3.98863Q17.7046 3.97901 17.6083 3.95986Q17.512 3.94071 17.4181 3.91221Q17.3242 3.88372 17.2335 3.84615Q17.1428 3.80859 17.0562 3.76232Q16.9696 3.71604 16.888 3.66151Q16.8064 3.60697 16.7305 3.5447Q16.6546 3.48243 16.5852 3.41302Q16.5158 3.3436 16.4536 3.26772Q16.3913 3.19184 16.3367 3.11023Q16.2822 3.02861 16.2359 2.94204Q16.1897 2.85547 16.1521 2.76478Q16.1145 2.67409 16.086 2.58015Q16.0575 2.48622 16.0384 2.38994Q16.0192 2.29367 16.0096 2.19598Q16 2.09829 16 2.00013L16 1.99813Q16 1.89997 16.0096 1.80228Q16.0192 1.70459 16.0384 1.60831Q16.0575 1.51204 16.086 1.4181Q16.1145 1.32417 16.1521 1.23348Q16.1897 1.14279 16.2359 1.05622Q16.2822 0.969645 16.3367 0.888027Q16.3913 0.806408 16.4536 0.730528Q16.5158 0.654648 16.5852 0.585238Q16.6546 0.515827 16.7305 0.453554Q16.8064 0.391281 16.888 0.336745Q16.9696 0.282209 17.0562 0.235936Q17.1428 0.189663 17.2335 0.152098Q17.3242 0.114533 17.4181 0.0860386Q17.512 0.0575438 17.6083 0.0383934Q17.7046 0.019243 17.8023 0.00962152Q17.9 0 17.9981 0Z" id="Rectangle" fill="#1A407A" fill-rule="evenodd" stroke="none" />
      <path d="M1.99813 0L2.00187 0Q2.10003 0 2.19772 0.00962152Q2.29541 0.019243 2.39169 0.0383934Q2.48796 0.0575438 2.5819 0.0860386Q2.67583 0.114533 2.76652 0.152098Q2.85721 0.189663 2.94378 0.235936Q3.03035 0.282209 3.11197 0.336745Q3.19359 0.391281 3.26947 0.453554Q3.34535 0.515827 3.41476 0.585238Q3.48417 0.654648 3.54645 0.730528Q3.60872 0.806408 3.66325 0.888027Q3.71779 0.969645 3.76406 1.05622Q3.81034 1.14279 3.8479 1.23348Q3.88547 1.32417 3.91396 1.4181Q3.94246 1.51204 3.96161 1.60831Q3.98076 1.70459 3.99038 1.80228Q4 1.89997 4 1.99813L4 2.00013Q4 2.09829 3.99038 2.19598Q3.98076 2.29367 3.96161 2.38994Q3.94246 2.48622 3.91396 2.58015Q3.88547 2.67409 3.8479 2.76478Q3.81034 2.85547 3.76406 2.94204Q3.71779 3.02861 3.66325 3.11023Q3.60872 3.19184 3.54645 3.26772Q3.48417 3.3436 3.41476 3.41302Q3.34535 3.48243 3.26947 3.5447Q3.19359 3.60697 3.11197 3.66151Q3.03035 3.71604 2.94378 3.76232Q2.85721 3.80859 2.76652 3.84615Q2.67583 3.88372 2.5819 3.91221Q2.48796 3.94071 2.39169 3.95986Q2.29541 3.97901 2.19772 3.98863Q2.10003 3.99825 2.00187 3.99825L1.99813 3.99825Q1.89997 3.99825 1.80228 3.98863Q1.70459 3.97901 1.60831 3.95986Q1.51204 3.94071 1.4181 3.91221Q1.32417 3.88372 1.23348 3.84615Q1.14279 3.80859 1.05622 3.76232Q0.969645 3.71604 0.888027 3.66151Q0.806408 3.60697 0.730528 3.5447Q0.654648 3.48243 0.585238 3.41302Q0.515827 3.3436 0.453554 3.26772Q0.391281 3.19184 0.336745 3.11023Q0.282209 3.02861 0.235936 2.94204Q0.189663 2.85547 0.152098 2.76478Q0.114533 2.67409 0.0860386 2.58015Q0.0575438 2.48622 0.0383934 2.38994Q0.019243 2.29367 0.00962152 2.19598Q0 2.09829 0 2.00013L0 1.99813Q0 1.89997 0.00962152 1.80228Q0.019243 1.70459 0.0383934 1.60831Q0.0575438 1.51204 0.0860386 1.4181Q0.114533 1.32417 0.152098 1.23348Q0.189663 1.14279 0.235936 1.05622Q0.282209 0.969645 0.336745 0.888027Q0.391281 0.806408 0.453554 0.730528Q0.515827 0.654648 0.585238 0.585238Q0.654648 0.515827 0.730528 0.453554Q0.806408 0.391281 0.888027 0.336745Q0.969645 0.282209 1.05622 0.235936Q1.14279 0.189663 1.23348 0.152098Q1.32417 0.114533 1.4181 0.0860386Q1.51204 0.0575438 1.60831 0.0383934Q1.70459 0.019243 1.80228 0.00962152Q1.89997 0 1.99813 0Z" id="Rectangle" fill="#1A407A" fill-rule="evenodd" stroke="none" />
    </g>
  </g>
</svg>