<?xml version="1.0" encoding="utf-8"?>
<svg width="390px" height="138px" viewBox="0 0 390 138" version="1.1" xmlns:xlink="http://www.w3.org/1999/xlink" xmlns="http://www.w3.org/2000/svg">
  <g id="Rectangle-2">
    <path d="M49.6687 0L382.557 0Q382.724 0 382.891 0.00932917Q383.058 0.0186583 383.225 0.0372877Q383.391 0.055917 383.556 0.0837886Q383.721 0.11166 383.884 0.148687Q384.047 0.185714 384.208 0.231782Q384.369 0.277849 384.527 0.332814Q384.685 0.387778 384.84 0.451469Q384.995 0.51516 385.146 0.587378Q385.297 0.659597 385.443 0.740119Q385.59 0.820641 385.732 0.909216Q385.874 0.997791 386.011 1.09414Q386.148 1.1905 386.279 1.29433Q386.41 1.39816 386.535 1.50914Q386.661 1.62013 386.779 1.73792Q386.898 1.85572 387.01 1.97996Q387.123 2.10419 387.228 2.23449Q387.333 2.36478 387.43 2.50073Q387.528 2.63668 387.618 2.77785Q387.707 2.91903 387.789 3.06499Q387.871 3.21096 387.945 3.36126Q388.018 3.51156 388.083 3.66573Q388.148 3.8199 388.205 3.97746Q388.261 4.13502 388.309 4.29547Q388.356 4.45593 388.395 4.61879Q388.433 4.78164 388.463 4.94639Q388.492 5.11114 388.512 5.27727Q388.532 5.4434 388.543 5.6104Q388.554 5.77739 388.555 5.94473Q388.557 6.11207 388.549 6.27923Q388.541 6.4464 388.524 6.61286Q388.507 6.77933 388.481 6.94458Q388.454 7.10984 388.419 7.27337L361.027 133.275Q360.973 133.524 360.898 133.767Q360.823 134.01 360.728 134.246Q360.633 134.482 360.518 134.71Q360.403 134.937 360.269 135.153Q360.135 135.37 359.984 135.574Q359.832 135.779 359.664 135.969Q359.495 136.16 359.312 136.336Q359.128 136.512 358.93 136.672Q358.731 136.832 358.52 136.974Q358.309 137.116 358.087 137.24Q357.865 137.364 357.633 137.469Q357.401 137.574 357.161 137.658Q356.921 137.743 356.675 137.807Q356.428 137.871 356.178 137.914Q355.927 137.957 355.673 137.978Q355.419 138 355.165 138L49.6687 138Q49.1246 138 48.5809 137.98Q48.0372 137.961 47.4945 137.921Q46.9518 137.882 46.4109 137.823Q45.87 137.764 45.3316 137.685Q44.7933 137.606 44.2581 137.508Q43.7229 137.41 43.1916 137.292Q42.6603 137.175 42.1337 137.038Q41.607 136.902 41.0857 136.746Q40.5643 136.59 40.0489 136.416Q39.5336 136.241 39.0248 136.048Q38.5161 135.855 38.0148 135.644Q37.5134 135.432 37.02 135.203Q36.5267 134.974 36.0419 134.726Q35.5572 134.479 35.0817 134.215Q34.6063 133.95 34.1408 133.669Q33.6752 133.387 33.2202 133.089Q32.7652 132.79 32.3213 132.476Q31.8773 132.161 31.4451 131.83Q31.0129 131.5 30.593 131.154Q30.1731 130.808 29.766 130.447Q29.3589 130.086 28.9651 129.71Q28.5713 129.335 28.1915 128.945Q27.8116 128.556 27.4461 128.153Q27.0806 127.75 26.7299 127.334Q26.3793 126.918 26.044 126.489Q25.7086 126.061 25.3891 125.62Q25.0695 125.18 24.7661 124.728Q24.4627 124.277 24.1759 123.814Q23.8891 123.352 23.6193 122.879Q23.3494 122.407 23.0969 121.925Q22.8443 121.443 22.6094 120.952Q22.3745 120.461 22.1576 119.962L1.40721e-13 69L22.1576 18.0376Q22.3745 17.5386 22.6094 17.0478Q22.8443 16.5571 23.0969 16.0751Q23.3494 15.5932 23.6193 15.1207Q23.8891 14.6482 24.1759 14.1858Q24.4627 13.7235 24.7661 13.2718Q25.0695 12.8201 25.3891 12.3798Q25.7086 11.9394 26.044 11.5109Q26.3793 11.0824 26.7299 10.6664Q27.0806 10.2503 27.4461 9.84724Q27.8116 9.44418 28.1915 9.05464Q28.5713 8.66509 28.9651 8.28958Q29.3589 7.91407 29.766 7.55308Q30.1731 7.1921 30.593 6.84611Q31.0129 6.50013 31.4451 6.1696Q31.8773 5.83907 32.3213 5.52443Q32.7652 5.20979 33.2202 4.91146Q33.6752 4.61312 34.1408 4.33148Q34.6063 4.04985 35.0817 3.78528Q35.5572 3.5207 36.0419 3.27355Q36.5267 3.02639 37.02 2.79698Q37.5134 2.56756 38.0148 2.35619Q38.5161 2.14482 39.0249 1.95176Q39.5336 1.75871 40.0489 1.58423Q40.5643 1.40975 41.0857 1.25408Q41.607 1.0984 42.1337 0.961735Q42.6603 0.825068 43.1916 0.707589Q43.7229 0.590111 44.2581 0.491975Q44.7933 0.393839 45.3316 0.315175Q45.87 0.236511 46.4109 0.177422Q46.9518 0.118333 47.4945 0.0788975Q48.0372 0.0394617 48.5809 0.0197309Q49.1246 0 49.6687 0Z" id="Rectangle" fill="#FFFFFF" fill-rule="evenodd" stroke="none" />
  </g>
</svg>