<?xml version="1.0" encoding="utf-8"?>
<svg width="390px" height="138px" viewBox="0 0 390 138" version="1.1" xmlns:xlink="http://www.w3.org/1999/xlink" xmlns="http://www.w3.org/2000/svg">
  <g id="Rectangle-3">
    <path d="M384.001 0L34.835 0Q34.5805 0 34.3269 0.0215546Q34.0733 0.0431091 33.8225 0.0860633Q33.5716 0.129018 33.3253 0.193063Q33.079 0.257108 32.839 0.341784Q32.599 0.42646 32.3671 0.531158Q32.1351 0.635856 31.9128 0.759825Q31.6906 0.883793 31.4796 1.02614Q31.2686 1.16849 31.0705 1.32819Q30.8723 1.48789 30.6884 1.66381Q30.5045 1.83972 30.3361 2.03057Q30.1678 2.22143 30.0162 2.42586Q29.8646 2.63029 29.7309 2.84682Q29.5972 3.06335 29.4823 3.29044Q29.3674 3.51752 29.2721 3.75351Q29.1768 3.98951 29.1019 4.23273Q29.027 4.47594 28.9729 4.72463L1.58118 130.727Q1.54563 130.89 1.51925 131.055Q1.49287 131.221 1.47575 131.387Q1.45862 131.554 1.4508 131.721Q1.44299 131.888 1.4445 132.055Q1.44601 132.223 1.45685 132.39Q1.46769 132.557 1.48783 132.723Q1.50796 132.889 1.53732 133.054Q1.56669 133.218 1.60519 133.381Q1.64369 133.544 1.69121 133.705Q1.73873 133.865 1.79512 134.023Q1.85151 134.18 1.9166 134.334Q1.98169 134.488 2.05527 134.639Q2.12885 134.789 2.2107 134.935Q2.29254 135.081 2.3824 135.222Q2.47225 135.363 2.56984 135.499Q2.66743 135.635 2.77244 135.766Q2.87745 135.896 2.98956 136.02Q3.10168 136.144 3.22054 136.262Q3.33941 136.38 3.46465 136.491Q3.5899 136.602 3.72114 136.706Q3.85238 136.809 3.9892 136.906Q4.12603 137.002 4.26801 137.091Q4.40999 137.179 4.55669 137.26Q4.70339 137.34 4.85435 137.413Q5.00531 137.485 5.16006 137.549Q5.31482 137.612 5.47288 137.667Q5.63094 137.722 5.79182 137.768Q5.9527 137.814 6.1159 137.851Q6.27909 137.888 6.4441 137.916Q6.60911 137.944 6.77541 137.963Q6.94172 137.981 7.10881 137.991Q7.27589 138 7.44324 138L360.001 138Q360.737 138 361.473 137.964Q362.208 137.928 362.941 137.856Q363.674 137.783 364.403 137.675Q365.131 137.567 365.854 137.424Q366.576 137.28 367.29 137.101Q368.005 136.922 368.709 136.708Q369.414 136.494 370.107 136.246Q370.801 135.998 371.481 135.716Q372.161 135.435 372.827 135.12Q373.493 134.805 374.142 134.458Q374.792 134.111 375.424 133.732Q376.055 133.353 376.668 132.944Q377.28 132.535 377.871 132.096Q378.463 131.658 379.032 131.191Q379.601 130.723 380.147 130.229Q380.693 129.734 381.213 129.213Q381.734 128.693 382.229 128.147Q382.723 127.601 383.191 127.032Q383.658 126.463 384.096 125.871Q384.535 125.28 384.944 124.668Q385.353 124.055 385.732 123.424Q386.111 122.792 386.458 122.142Q386.805 121.493 387.12 120.827Q387.435 120.161 387.716 119.481Q387.998 118.801 388.246 118.107Q388.494 117.414 388.708 116.709Q388.922 116.005 389.101 115.29Q389.28 114.576 389.424 113.854Q389.567 113.131 389.675 112.403Q389.783 111.674 389.856 110.941Q389.928 110.209 389.964 109.473Q390 108.737 390 108.001L390 5.999Q390 5.85173 389.993 5.70464Q389.986 5.55755 389.971 5.411Q389.957 5.26444 389.935 5.11876Q389.913 4.97309 389.885 4.82865Q389.856 4.68422 389.82 4.54136Q389.784 4.39851 389.742 4.25758Q389.699 4.11666 389.649 3.978Q389.6 3.83934 389.543 3.70328Q389.487 3.56722 389.424 3.4341Q389.361 3.30097 389.292 3.17109Q389.222 3.04121 389.146 2.9149Q389.071 2.78858 388.989 2.66613Q388.907 2.54369 388.819 2.4254Q388.732 2.30711 388.638 2.19327Q388.545 2.07944 388.446 1.97032Q388.347 1.8612 388.243 1.75707Q388.139 1.65293 388.03 1.55403Q387.921 1.45514 387.807 1.36171Q387.693 1.26829 387.575 1.18056Q387.456 1.09283 387.334 1.01101Q387.211 0.929196 387.085 0.853486Q386.959 0.777776 386.829 0.708354Q386.699 0.638933 386.566 0.575968Q386.433 0.513003 386.297 0.456647Q386.161 0.40029 386.022 0.350677Q385.883 0.301064 385.742 0.258315Q385.601 0.215565 385.459 0.179782Q385.316 0.143999 385.171 0.115269Q385.027 0.0865387 384.881 0.0649301Q384.736 0.0433215 384.589 0.0288868Q384.442 0.0144521 384.295 0.00722606Q384.148 0 384.001 0Z" id="Rectangle" fill="#FFFFFF" fill-rule="evenodd" stroke="none" />
  </g>
</svg>