<?xml version="1.0" encoding="utf-8"?>
<svg width="600px" height="417px" viewBox="0 0 600 417" version="1.1" xmlns:xlink="http://www.w3.org/1999/xlink" xmlns="http://www.w3.org/2000/svg">
  <g id="Combined-Shape">
    <path d="M52.1729 -9.1222e-06L52.1749 -9.12255e-06Q53.4557 -9.34649e-06 54.7349 0.062835Q56.0141 0.125679 57.2888 0.251217Q58.5634 0.376754 59.8303 0.564682Q61.0972 0.752611 62.3533 1.00248Q63.6095 1.25234 64.8519 1.56355Q66.0943 1.87475 67.3199 2.24654Q68.5455 2.61832 69.7514 3.0498Q70.9573 3.48128 72.1406 3.97141Q73.3239 4.46154 74.4817 5.00914Q75.6395 5.55675 76.7691 6.1605Q77.8986 6.76425 78.9971 7.4227Q80.0957 8.08115 81.1606 8.79271Q82.2255 9.50426 83.2543 10.2672Q84.283 11.0302 85.2731 11.8427Q86.2631 12.6552 87.2121 13.5153Q88.1611 14.3754 89.0667 15.2811Q89.9724 16.1867 90.8325 17.1357Q91.6926 18.0847 92.5051 19.0748Q93.3176 20.0648 94.0806 21.0935Q94.8435 22.1223 95.5551 23.1872Q96.2667 24.2521 96.9251 25.3507Q97.5836 26.4492 98.1873 27.5788Q98.7911 28.7083 99.3387 29.8661Q99.8863 31.0239 100.376 32.2072Q100.867 33.3905 101.298 34.5964Q101.729 35.8023 102.101 37.0279Q102.473 38.2535 102.784 39.4959Q103.095 40.7383 103.345 41.9945Q103.595 43.2506 103.783 44.5175Q103.971 45.7844 104.097 47.0591Q104.222 48.3337 104.285 49.6129Q104.348 50.8921 104.348 52.1729L104.348 109.037L260.571 8.64305C284.969 -7.03594 317.592 -0.174085 333.436 23.9694C349.281 48.1129 342.347 80.3955 317.948 96.0744L104.348 233.341L104.348 271.092L512.745 8.643C522.022 2.68142 532.488 -0.0213624 542.768 0.245545Q545.291 -9.53417e-05 547.825 -9.57848e-05L547.827 -9.57851e-05Q549.108 -9.60091e-05 550.387 0.0627483Q551.666 0.125593 552.941 0.25113Q554.216 0.376668 555.482 0.564596Q556.749 0.752524 558.005 1.00239Q559.262 1.25226 560.504 1.56346Q561.746 1.87466 562.972 2.24645Q564.198 2.61824 565.404 3.04972Q566.61 3.4812 567.793 3.97133Q568.976 4.46146 570.134 5.00906Q571.292 5.55666 572.421 6.16041Q573.551 6.76416 574.649 7.42261Q575.748 8.08106 576.813 8.79262Q577.878 9.50418 578.906 10.2671Q579.935 11.0301 580.925 11.8426Q581.915 12.6551 582.864 13.5152Q583.813 14.3753 584.719 15.281Q585.625 16.1866 586.485 17.1356Q587.345 18.0846 588.157 19.0747Q588.97 20.0647 589.733 21.0934Q590.496 22.1222 591.207 23.1871Q591.919 24.252 592.577 25.3506Q593.236 26.4491 593.839 27.5787Q594.443 28.7082 594.991 29.866Q595.538 31.0238 596.029 32.2071Q596.519 33.3904 596.95 34.5963Q597.382 35.8022 597.753 37.0278Q598.125 38.2534 598.436 39.4958Q598.748 40.7382 598.997 41.9944Q599.247 43.2505 599.435 44.5174Q599.623 45.7844 599.749 47.059Q599.874 48.3336 599.937 49.6128Q600 50.892 600 52.1728L600 364.827Q600 366.108 599.937 367.387Q599.874 368.666 599.749 369.941Q599.623 371.215 599.435 372.482Q599.247 373.749 598.998 375.005Q598.748 376.262 598.436 377.504Q598.125 378.746 597.753 379.972Q597.382 381.198 596.95 382.403Q596.519 383.609 596.029 384.793Q595.538 385.976 594.991 387.134Q594.443 388.292 593.839 389.421Q593.236 390.551 592.577 391.649Q591.919 392.748 591.207 393.813Q590.496 394.878 589.733 395.906Q588.97 396.935 588.157 397.925Q587.345 398.915 586.485 399.864Q585.625 400.813 584.719 401.719Q583.813 402.624 582.864 403.485Q581.915 404.345 580.925 405.157Q579.935 405.97 578.906 406.733Q577.878 407.496 576.813 408.207Q575.748 408.919 574.649 409.577Q573.551 410.236 572.421 410.839Q571.292 411.443 570.134 411.991Q568.976 412.538 567.793 413.028Q566.61 413.519 565.404 413.95Q564.198 414.382 562.972 414.753Q561.746 415.125 560.504 415.436Q559.262 415.747 558.006 415.997Q556.749 416.247 555.482 416.435Q554.216 416.623 552.941 416.749Q551.666 416.874 550.387 416.937Q549.108 417 547.827 417L547.825 417Q542.861 417 537.987 416.064C532.483 415.458 526.832 413.483 521.144 409.828C480.068 383.431 389.219 321.949 389.219 321.949C364.821 306.27 357.887 273.988 373.731 249.844C389.576 225.701 422.199 218.839 446.597 234.518C446.597 234.518 468.156 249.055 495.652 267.449L495.652 143.931L84.1796 408.357C75.8673 413.699 66.6003 416.424 57.3674 416.741Q54.7777 417 52.175 417L52.173 417Q50.8922 417 49.613 416.937Q48.3338 416.874 47.0591 416.749Q45.7845 416.623 44.5176 416.435Q43.2507 416.247 41.9946 415.997Q40.7384 415.748 39.496 415.436Q38.2536 415.125 37.028 414.753Q35.8024 414.382 34.5965 413.95Q33.3905 413.519 32.2073 413.029Q31.024 412.538 29.8662 411.991Q28.7084 411.443 27.5788 410.839Q26.4493 410.236 25.3507 409.577Q24.2522 408.919 23.1873 408.207Q22.1223 407.496 21.0936 406.733Q20.0649 405.97 19.0748 405.157Q18.0848 404.345 17.1358 403.485Q16.1868 402.625 15.2812 401.719Q14.3755 400.813 13.5154 399.864Q12.6553 398.915 11.8428 397.925Q11.0303 396.935 10.2673 395.906Q9.50435 394.878 8.79279 393.813Q8.08123 392.748 7.42278 391.649Q6.76433 390.551 6.16058 389.421Q5.55683 388.292 5.00923 387.134Q4.46162 385.976 3.97149 384.793Q3.48136 383.609 3.04988 382.404Q2.6184 381.198 2.24661 379.972Q1.87483 378.746 1.56362 377.504Q1.25242 376.262 1.00255 375.006Q0.752687 373.749 0.564758 372.482Q0.376829 371.216 0.251292 369.941Q0.125754 368.666 0.0629088 367.387Q6.40123e-05 366.108 6.37884e-05 364.827L9.1222e-06 52.1729Q8.89826e-06 50.8921 0.0628532 49.6129Q0.125698 48.3337 0.251235 47.0591Q0.376773 45.7845 0.564701 44.5176Q0.752629 43.2506 1.0025 41.9945Q1.25236 40.7383 1.56356 39.4959Q1.87477 38.2535 2.24655 37.0279Q2.61834 35.8023 3.04982 34.5964Q3.4813 33.3905 3.97143 32.2072Q4.46156 31.0239 5.00916 29.8661Q5.55676 28.7083 6.16052 27.5788Q6.76427 26.4492 7.42272 25.3507Q8.08116 24.2521 8.79272 23.1872Q9.50428 22.1223 10.2672 21.0935Q11.0302 20.0648 11.8427 19.0748Q12.6552 18.0847 13.5153 17.1357Q14.3755 16.1867 15.2811 15.2811Q16.1867 14.3754 17.1357 13.5153Q18.0847 12.6552 19.0748 11.8427Q20.0648 11.0302 21.0935 10.2672Q22.1223 9.50428 23.1872 8.79272Q24.2521 8.08116 25.3507 7.42271Q26.4492 6.76426 27.5788 6.16051Q28.7083 5.55675 29.8661 5.00915Q31.0239 4.46155 32.2072 3.97142Q33.3905 3.48129 34.5964 3.04981Q35.8023 2.61833 37.0279 2.24654Q38.2535 1.87475 39.4959 1.56355Q40.7383 1.25235 41.9945 1.00248Q43.2506 0.752614 44.5176 0.564685Q45.7845 0.376756 47.0591 0.251219Q48.3337 0.125681 49.6129 0.0628359Q50.8921 -8.89826e-06 52.1729 -9.1222e-06Z" id="Combined-Shape" fill="#FFFFFF" fill-rule="evenodd" stroke="none" />
  </g>
</svg>