<?xml version="1.0" encoding="utf-8"?>
<svg width="300px" height="209.00006px" viewBox="0 0 300 209.00006" version="1.1" xmlns:xlink="http://www.w3.org/1999/xlink" xmlns="http://www.w3.org/2000/svg">
  <g id="Group" transform="matrix(1 -1.7484555E-07 1.7484555E-07 1 0 6.1035156E-05)" opacity="0.04">
    <path d="M26.086 1.13687e-13L26.088 1.13687e-13Q26.7283 1.13687e-13 27.3679 0.0314217Q28.0075 0.0628434 28.6448 0.125611Q29.2821 0.188379 29.9156 0.282341Q30.549 0.376303 31.1771 0.501234Q31.8051 0.626165 32.4263 0.781763Q33.0475 0.937362 33.6603 1.12325Q34.2731 1.30914 34.876 1.52488Q35.479 1.74061 36.0706 1.98567Q36.6622 2.23074 37.2411 2.50453Q37.82 2.77833 38.3848 3.0802Q38.9495 3.38207 39.4988 3.71128Q40.0481 4.0405 40.5805 4.39628Q41.113 4.75205 41.6273 5.13352Q42.1417 5.51499 42.6367 5.92124Q43.1317 6.32749 43.6062 6.75754Q44.0807 7.18759 44.5335 7.6404Q44.9863 8.09321 45.4164 8.5677Q45.8464 9.04218 46.2527 9.5372Q46.6589 10.0322 47.0404 10.5466Q47.4219 11.0609 47.7776 11.5934Q48.1334 12.1258 48.4626 12.6751Q48.7918 13.2244 49.0937 13.7891Q49.3956 14.3539 49.6694 14.9328Q49.9432 15.5117 50.1882 16.1033Q50.4333 16.6949 50.649 17.2979Q50.8648 17.9008 51.0507 18.5136Q51.2365 19.1264 51.3921 19.7476Q51.5477 20.3688 51.6727 20.9968Q51.7976 21.6249 51.8916 22.2583Q51.9855 22.8918 52.0483 23.5291Q52.1111 24.1664 52.1425 24.806Q52.1739 25.4456 52.1739 26.086L52.1739 182.914Q52.1739 183.554 52.1425 184.194Q52.1111 184.834 52.0483 185.471Q51.9855 186.108 51.8916 186.742Q51.7976 187.375 51.6727 188.003Q51.5477 188.631 51.3921 189.252Q51.2365 189.874 51.0507 190.486Q50.8648 191.099 50.649 191.702Q50.4333 192.305 50.1882 192.897Q49.9432 193.488 49.6694 194.067Q49.3956 194.646 49.0937 195.211Q48.7918 195.776 48.4626 196.325Q48.1334 196.874 47.7776 197.407Q47.4219 197.939 47.0404 198.453Q46.6589 198.968 46.2527 199.463Q45.8464 199.958 45.4164 200.432Q44.9863 200.907 44.5335 201.36Q44.0807 201.812 43.6062 202.242Q43.1317 202.673 42.6367 203.079Q42.1417 203.485 41.6273 203.866Q41.113 204.248 40.5805 204.604Q40.0481 204.959 39.4988 205.289Q38.9495 205.618 38.3848 205.92Q37.82 206.222 37.2411 206.495Q36.6622 206.769 36.0706 207.014Q35.479 207.259 34.876 207.475Q34.2731 207.691 33.6603 207.877Q33.0475 208.063 32.4263 208.218Q31.8051 208.374 31.1771 208.499Q30.549 208.624 29.9156 208.718Q29.2821 208.812 28.6448 208.874Q28.0075 208.937 27.3679 208.969Q26.7283 209 26.088 209L26.086 209Q25.4456 209 24.806 208.969Q24.1664 208.937 23.5291 208.874Q22.8918 208.812 22.2583 208.718Q21.6249 208.624 20.9968 208.499Q20.3688 208.374 19.7476 208.218Q19.1264 208.063 18.5136 207.877Q17.9008 207.691 17.2979 207.475Q16.6949 207.259 16.1033 207.014Q15.5117 206.769 14.9328 206.495Q14.3539 206.222 13.7891 205.92Q13.2244 205.618 12.6751 205.289Q12.1258 204.959 11.5934 204.604Q11.0609 204.248 10.5466 203.866Q10.0322 203.485 9.5372 203.079Q9.04218 202.673 8.5677 202.242Q8.09321 201.812 7.6404 201.36Q7.18759 200.907 6.75754 200.432Q6.32749 199.958 5.92124 199.463Q5.51499 198.968 5.13352 198.453Q4.75205 197.939 4.39628 197.407Q4.0405 196.874 3.71128 196.325Q3.38207 195.776 3.0802 195.211Q2.77833 194.646 2.50453 194.067Q2.23074 193.488 1.98567 192.897Q1.74061 192.305 1.52488 191.702Q1.30914 191.099 1.12325 190.486Q0.937362 189.874 0.781763 189.252Q0.626165 188.631 0.501234 188.003Q0.376303 187.375 0.282341 186.742Q0.188379 186.108 0.125611 185.471Q0.0628434 184.834 0.0314217 184.194Q0 183.554 0 182.914L0 26.086Q0 25.4456 0.0314217 24.806Q0.0628434 24.1664 0.125611 23.5291Q0.188379 22.8918 0.282341 22.2583Q0.376303 21.6249 0.501234 20.9968Q0.626165 20.3688 0.781763 19.7476Q0.937362 19.1264 1.12325 18.5136Q1.30914 17.9008 1.52488 17.2979Q1.74061 16.6949 1.98567 16.1033Q2.23074 15.5117 2.50453 14.9328Q2.77833 14.3539 3.0802 13.7891Q3.38207 13.2244 3.71128 12.6751Q4.0405 12.1258 4.39628 11.5934Q4.75205 11.0609 5.13352 10.5466Q5.51499 10.0322 5.92124 9.5372Q6.32749 9.04218 6.75754 8.5677Q7.18759 8.09321 7.6404 7.6404Q8.09321 7.18759 8.5677 6.75754Q9.04218 6.32749 9.5372 5.92124Q10.0322 5.51499 10.5466 5.13352Q11.0609 4.75205 11.5934 4.39628Q12.1258 4.0405 12.6751 3.71128Q13.2244 3.38207 13.7891 3.0802Q14.3539 2.77833 14.9328 2.50453Q15.5117 2.23074 16.1033 1.98567Q16.6949 1.74061 17.2979 1.52488Q17.9008 1.30914 18.5136 1.12325Q19.1264 0.937362 19.7476 0.781763Q20.3688 0.626165 20.9968 0.501234Q21.6249 0.376303 22.2583 0.282341Q22.8918 0.188379 23.5291 0.125611Q24.1664 0.0628434 24.806 0.0314217Q25.4456 1.13687e-13 26.086 1.13687e-13L26.086 1.13687e-13Z" id="Rectangle" fill="#FFFFFF" fill-rule="evenodd" stroke="none" />
    <path d="M273.912 0L273.914 0Q274.554 0 275.194 0.0314217Q275.834 0.0628434 276.471 0.125611Q277.108 0.188379 277.742 0.282341Q278.375 0.376303 279.003 0.501234Q279.631 0.626165 280.252 0.781763Q280.874 0.937362 281.486 1.12325Q282.099 1.30914 282.702 1.52488Q283.305 1.74061 283.897 1.98567Q284.488 2.23074 285.067 2.50453Q285.646 2.77833 286.211 3.0802Q286.776 3.38207 287.325 3.71128Q287.874 4.0405 288.407 4.39628Q288.939 4.75205 289.453 5.13352Q289.968 5.51499 290.463 5.92124Q290.958 6.32749 291.432 6.75754Q291.907 7.18759 292.36 7.6404Q292.812 8.09321 293.242 8.5677Q293.673 9.04218 294.079 9.5372Q294.485 10.0322 294.866 10.5466Q295.248 11.0609 295.604 11.5934Q295.959 12.1258 296.289 12.6751Q296.618 13.2244 296.92 13.7891Q297.222 14.3539 297.495 14.9328Q297.769 15.5117 298.014 16.1033Q298.259 16.6949 298.475 17.2979Q298.691 17.9008 298.877 18.5136Q299.063 19.1264 299.218 19.7476Q299.374 20.3688 299.499 20.9968Q299.624 21.6249 299.718 22.2583Q299.812 22.8918 299.874 23.5291Q299.937 24.1664 299.969 24.806Q300 25.4456 300 26.086L300 182.914Q300 183.554 299.969 184.194Q299.937 184.834 299.874 185.471Q299.812 186.108 299.718 186.742Q299.624 187.375 299.499 188.003Q299.374 188.631 299.218 189.252Q299.063 189.874 298.877 190.486Q298.691 191.099 298.475 191.702Q298.259 192.305 298.014 192.897Q297.769 193.488 297.495 194.067Q297.222 194.646 296.92 195.211Q296.618 195.776 296.289 196.325Q295.959 196.874 295.604 197.407Q295.248 197.939 294.866 198.453Q294.485 198.968 294.079 199.463Q293.672 199.958 293.242 200.432Q292.812 200.907 292.36 201.36Q291.907 201.812 291.432 202.242Q290.958 202.673 290.463 203.079Q289.968 203.485 289.453 203.866Q288.939 204.248 288.407 204.604Q287.874 204.959 287.325 205.289Q286.776 205.618 286.211 205.92Q285.646 206.222 285.067 206.495Q284.488 206.769 283.897 207.014Q283.305 207.259 282.702 207.475Q282.099 207.691 281.486 207.877Q280.874 208.063 280.252 208.218Q279.631 208.374 279.003 208.499Q278.375 208.624 277.742 208.718Q277.108 208.812 276.471 208.874Q275.834 208.937 275.194 208.969Q274.554 209 273.914 209L273.912 209Q273.272 209 272.632 208.969Q271.992 208.937 271.355 208.874Q270.718 208.812 270.084 208.718Q269.451 208.624 268.823 208.499Q268.195 208.374 267.574 208.218Q266.952 208.063 266.34 207.877Q265.727 207.691 265.124 207.475Q264.521 207.259 263.929 207.014Q263.338 206.769 262.759 206.495Q262.18 206.222 261.615 205.92Q261.05 205.618 260.501 205.289Q259.952 204.959 259.419 204.604Q258.887 204.248 258.373 203.866Q257.858 203.485 257.363 203.079Q256.868 202.673 256.394 202.242Q255.919 201.812 255.466 201.36Q255.014 200.907 254.584 200.432Q254.154 199.958 253.747 199.463Q253.341 198.968 252.96 198.453Q252.578 197.939 252.222 197.407Q251.867 196.874 251.537 196.325Q251.208 195.776 250.906 195.211Q250.604 194.646 250.331 194.067Q250.057 193.488 249.812 192.897Q249.567 192.305 249.351 191.702Q249.135 191.099 248.949 190.486Q248.763 189.874 248.608 189.252Q248.452 188.631 248.327 188.003Q248.202 187.375 248.108 186.742Q248.014 186.108 247.952 185.471Q247.889 184.834 247.857 184.194Q247.826 183.554 247.826 182.914L247.826 26.086Q247.826 25.4456 247.858 24.806Q247.889 24.1664 247.952 23.5291Q248.014 22.8918 248.108 22.2583Q248.202 21.6249 248.327 20.9968Q248.452 20.3688 248.608 19.7476Q248.763 19.1264 248.949 18.5136Q249.135 17.9008 249.351 17.2979Q249.567 16.6949 249.812 16.1033Q250.057 15.5117 250.331 14.9328Q250.604 14.3539 250.906 13.7891Q251.208 13.2244 251.537 12.6751Q251.867 12.1258 252.222 11.5934Q252.578 11.0609 252.96 10.5466Q253.341 10.0322 253.747 9.5372Q254.154 9.04218 254.584 8.5677Q255.014 8.09321 255.466 7.6404Q255.919 7.18759 256.394 6.75754Q256.868 6.32749 257.363 5.92124Q257.858 5.51499 258.373 5.13352Q258.887 4.75205 259.419 4.39628Q259.952 4.0405 260.501 3.71128Q261.05 3.38207 261.615 3.0802Q262.18 2.77833 262.759 2.50453Q263.338 2.23074 263.929 1.98567Q264.521 1.74061 265.124 1.52488Q265.727 1.30914 266.34 1.12325Q266.952 0.937362 267.574 0.781763Q268.195 0.626165 268.823 0.501234Q269.451 0.376303 270.084 0.282341Q270.718 0.188379 271.355 0.125611Q271.992 0.0628434 272.632 0.0314217Q273.272 0 273.912 0Z" id="Rectangle" fill="#FFFFFF" fill-rule="evenodd" stroke="none" />
    <path d="M292.805 12.0135C300.727 24.1142 297.26 40.2942 285.061 48.1524L42.0898 204.668C29.8907 212.526 13.5793 209.087 5.65715 196.986C-2.265 184.886 1.2021 168.706 13.4011 160.848L256.373 4.33191C268.572 -3.52638 284.883 -0.0872233 292.805 12.0135Z" id="Rectangle" fill="#FFFFFF" fill-rule="evenodd" stroke="none" />
    <path d="M166.718 12.0135C174.64 24.1142 171.173 40.2942 158.974 48.1524L23.4522 135.452L21.7441 74.2514L130.286 4.33191C142.485 -3.52638 158.796 -0.0872233 166.718 12.0135Z" id="Rectangle" fill="#FFFFFF" fill-rule="evenodd" stroke="none" />
    <path d="M186.866 125.222C178.944 137.323 182.411 153.502 194.61 161.361C194.61 161.361 240.034 192.175 260.572 205.405C285.208 221.275 308.447 173.944 294.577 165.009C272.266 150.638 223.298 117.54 223.298 117.54C211.099 109.682 194.788 113.121 186.866 125.222Z" id="Rectangle" fill="#FFFFFF" fill-rule="evenodd" stroke="none" />
  </g>
</svg>