<?xml version="1.0" encoding="utf-8"?>
<svg width="600px" height="417px" viewBox="0 0 600 417" version="1.1" xmlns:xlink="http://www.w3.org/1999/xlink" xmlns="http://www.w3.org/2000/svg">
  <g id="Group-9">
    <g id="Group" opacity="0.7">
      <path d="M52.1729 0L52.1749 0Q53.4557 0 54.7349 0.0628446Q56.0141 0.125689 57.2888 0.251227Q58.5634 0.376765 59.8303 0.564693Q61.0972 0.752621 62.3533 1.00249Q63.6095 1.25235 64.8519 1.56356Q66.0943 1.87476 67.3199 2.24655Q68.5455 2.61834 69.7514 3.04982Q70.9573 3.4813 72.1406 3.97143Q73.3239 4.46156 74.4817 5.00916Q75.6395 5.55676 76.7691 6.16051Q77.8986 6.76426 78.9971 7.42271Q80.0957 8.08116 81.1606 8.79272Q82.2255 9.50428 83.2543 10.2672Q84.283 11.0302 85.2731 11.8427Q86.2631 12.6552 87.2121 13.5153Q88.1611 14.3754 89.0667 15.2811Q89.9724 16.1867 90.8325 17.1357Q91.6926 18.0847 92.5051 19.0748Q93.3176 20.0648 94.0806 21.0935Q94.8435 22.1223 95.5551 23.1872Q96.2667 24.2521 96.9251 25.3507Q97.5836 26.4492 98.1873 27.5788Q98.7911 28.7083 99.3387 29.8661Q99.8863 31.0239 100.376 32.2072Q100.867 33.3905 101.298 34.5964Q101.729 35.8023 102.101 37.0279Q102.473 38.2535 102.784 39.4959Q103.095 40.7383 103.345 41.9945Q103.595 43.2506 103.783 44.5176Q103.971 45.7845 104.097 47.0591Q104.222 48.3337 104.285 49.6129Q104.348 50.8921 104.348 52.1729L104.348 109.037L260.571 8.64309C284.969 -7.03589 317.592 -0.174029 333.436 23.9695C349.281 48.113 342.347 80.3955 317.948 96.0745L104.348 233.341L104.348 271.092L512.745 8.64309C522.022 2.68152 532.488 -0.0212693 542.768 0.24564Q545.291 0 547.825 0L547.827 0Q549.108 0 550.387 0.0628446Q551.666 0.125689 552.941 0.251227Q554.216 0.376765 555.482 0.564693Q556.749 0.752621 558.005 1.00249Q559.262 1.25235 560.504 1.56356Q561.746 1.87476 562.972 2.24655Q564.198 2.61834 565.404 3.04982Q566.61 3.4813 567.793 3.97143Q568.976 4.46156 570.134 5.00916Q571.292 5.55676 572.421 6.16051Q573.551 6.76426 574.649 7.42271Q575.748 8.08116 576.813 8.79272Q577.878 9.50428 578.906 10.2672Q579.935 11.0302 580.925 11.8427Q581.915 12.6552 582.864 13.5153Q583.813 14.3754 584.719 15.2811Q585.625 16.1867 586.485 17.1357Q587.345 18.0847 588.157 19.0748Q588.97 20.0648 589.733 21.0935Q590.496 22.1223 591.207 23.1872Q591.919 24.2521 592.577 25.3507Q593.236 26.4492 593.839 27.5788Q594.443 28.7083 594.991 29.8661Q595.538 31.0239 596.029 32.2072Q596.519 33.3905 596.95 34.5964Q597.382 35.8023 597.753 37.0279Q598.125 38.2535 598.436 39.4959Q598.748 40.7383 598.997 41.9945Q599.247 43.2506 599.435 44.5176Q599.623 45.7845 599.749 47.0591Q599.874 48.3337 599.937 49.6129Q600 50.8921 600 52.1729L600 364.827Q600 366.108 599.937 367.387Q599.874 368.666 599.749 369.941Q599.623 371.216 599.435 372.482Q599.247 373.749 598.997 375.006Q598.748 376.262 598.436 377.504Q598.125 378.746 597.753 379.972Q597.382 381.198 596.95 382.404Q596.519 383.609 596.029 384.793Q595.538 385.976 594.991 387.134Q594.443 388.292 593.839 389.421Q593.236 390.551 592.577 391.649Q591.919 392.748 591.207 393.813Q590.496 394.878 589.733 395.906Q588.97 396.935 588.157 397.925Q587.345 398.915 586.485 399.864Q585.625 400.813 584.719 401.719Q583.813 402.625 582.864 403.485Q581.915 404.345 580.925 405.157Q579.935 405.97 578.906 406.733Q577.878 407.496 576.813 408.207Q575.748 408.919 574.649 409.577Q573.551 410.236 572.421 410.84Q571.292 411.443 570.134 411.991Q568.976 412.538 567.793 413.029Q566.61 413.519 565.404 413.95Q564.198 414.382 562.972 414.753Q561.746 415.125 560.504 415.436Q559.262 415.748 558.006 415.997Q556.749 416.247 555.482 416.435Q554.216 416.623 552.941 416.749Q551.666 416.874 550.387 416.937Q549.108 417 547.827 417L547.825 417Q542.861 417 537.987 416.064C532.483 415.458 526.832 413.483 521.144 409.828C480.067 383.431 389.219 321.949 389.219 321.949C364.821 306.271 357.887 273.988 373.731 249.844C389.576 225.701 422.199 218.839 446.597 234.518C446.597 234.518 468.156 249.055 495.652 267.449L495.652 143.931L84.1795 408.357C75.8672 413.699 66.6003 416.424 57.3674 416.741Q54.7776 417 52.1749 417L52.1729 417Q50.8921 417 49.6129 416.937Q48.3337 416.874 47.0591 416.749Q45.7845 416.623 44.5176 416.435Q43.2506 416.247 41.9945 415.997Q40.7383 415.748 39.4959 415.436Q38.2535 415.125 37.0279 414.753Q35.8023 414.382 34.5964 413.95Q33.3905 413.519 32.2072 413.029Q31.0239 412.538 29.8661 411.991Q28.7083 411.443 27.5788 410.839Q26.4492 410.236 25.3507 409.577Q24.2521 408.919 23.1872 408.207Q22.1223 407.496 21.0935 406.733Q20.0648 405.97 19.0748 405.157Q18.0847 404.345 17.1357 403.485Q16.1867 402.625 15.2811 401.719Q14.3754 400.813 13.5153 399.864Q12.6552 398.915 11.8427 397.925Q11.0302 396.935 10.2672 395.906Q9.50428 394.878 8.79272 393.813Q8.08116 392.748 7.42271 391.649Q6.76426 390.551 6.16051 389.421Q5.55676 388.292 5.00916 387.134Q4.46156 385.976 3.97143 384.793Q3.4813 383.609 3.04982 382.404Q2.61834 381.198 2.24655 379.972Q1.87476 378.746 1.56356 377.504Q1.25235 376.262 1.00249 375.006Q0.752621 373.749 0.564693 372.482Q0.376765 371.216 0.251227 369.941Q0.125689 368.666 0.0628446 367.387Q0 366.108 0 364.827L0 52.1729Q0 50.8921 0.0628446 49.6129Q0.125689 48.3337 0.251227 47.0591Q0.376765 45.7845 0.564693 44.5176Q0.752621 43.2506 1.00249 41.9945Q1.25235 40.7383 1.56356 39.4959Q1.87476 38.2535 2.24655 37.0279Q2.61834 35.8023 3.04982 34.5964Q3.4813 33.3905 3.97143 32.2072Q4.46156 31.0239 5.00916 29.8661Q5.55676 28.7083 6.16051 27.5788Q6.76426 26.4492 7.42271 25.3507Q8.08116 24.2521 8.79272 23.1872Q9.50428 22.1223 10.2672 21.0935Q11.0302 20.0648 11.8427 19.0748Q12.6552 18.0847 13.5153 17.1357Q14.3754 16.1867 15.2811 15.2811Q16.1867 14.3754 17.1357 13.5153Q18.0847 12.6552 19.0748 11.8427Q20.0648 11.0302 21.0935 10.2672Q22.1223 9.50428 23.1872 8.79272Q24.2521 8.08116 25.3507 7.42271Q26.4492 6.76426 27.5788 6.16051Q28.7083 5.55676 29.8661 5.00916Q31.0239 4.46156 32.2072 3.97143Q33.3905 3.4813 34.5964 3.04982Q35.8023 2.61834 37.0279 2.24655Q38.2535 1.87476 39.4959 1.56356Q40.7383 1.25235 41.9945 1.00249Q43.2506 0.752621 44.5176 0.564693Q45.7845 0.376765 47.0591 0.251227Q48.3337 0.125689 49.6129 0.0628446Q50.8921 0 52.1729 0Z" id="Combined-Shape" fill="#FAFBFC" fill-rule="evenodd" stroke="none" />
    </g>
  </g>
</svg>